<?xml version="1.0" encoding="utf-8"?>
<!-- Generator: Adobe Illustrator 25.2.1, SVG Export Plug-In . SVG Version: 6.00 Build 0)  -->
<svg version="1.1" id="Layer_1" xmlns="http://www.w3.org/2000/svg" xmlns:xlink="http://www.w3.org/1999/xlink" x="0px" y="0px"
	 viewBox="0 0 400 400" style="enable-background:new 0 0 400 400;" xml:space="preserve">
<style type="text/css">
	.st0{fill:#FFFFFF;}
	.st1{fill:#DFE1E3;}
	.st2{fill:#BBBFC3;}
	.st3{fill:#253746;}
</style>
<path class="st0" d="M399.9460144,302.2169495l-0.0037842-1.0603333l0.0577393-0.0250549l-0.0842285-0.4186401l-0.0036621-0.1819153
	l-0.0303345,0.0131836l-0.015686-0.0778503l-17.1771851-0.1837158l-0.0447388-0.0006714l-0.4902954,0.1218262v-91.486969
	l-56.843689-113.2130585V95.452858l-36.3331299,7.8773117v-34.458725l-3.5269165-5.8234367V63l-148.3591919,39.088028v34.1708679
	l-25.6078415,5.5521088v19.9804077l-71.4116211,13.3012543v-0.0013428l-0.8927612,0.1671448v18.1228333l0.1869507,0.0483704
	v0.0422211l2.2697144,1.4535065c0.1235962,0.0893097,2.4663696,1.7444763,5.9286499,1.7444763
	c0.9112549,0,1.9017334-0.1186371,2.9478149-0.4064331l9.7457886,2.4798889l-0.0279541,44.3889465l-2.5587769,0.2579041
	l0.1566772,68.7254791l-57.4876709,3.4585876l-0.3398438-0.0149536v4.4284973l57.8529663,2.9200745l0.0026245,1.0290833
	l8.0183754,0.6505127l0.000061-0.0429688l5.8533936-0.6142578v-0.322998l191.6389771,9.6769409l0.0013428,1.5665894v0.3082581
	l9.5142212,0.5743713v0.0888062l0.2473755-0.0738525l0.3961792,0.0239563l-0.0001221-0.1421814l5.2438354-1.5657654
	l52.6957397,2.7038879V337l0.416748-0.2103271h0.0002441l0.0760498-0.0379944l0.194458,0.0093079v-0.1078186l67.6090088-34.1348877
	l0.189209-0.0951538V302.42276l0.0033569-0.001709l-0.0040283-0.2016907L399.9460144,302.2169495z"/>
<polygon class="st1" points="146.4140625,147.9729919 161.173996,145.0546722 172.360611,142.855957 187.1205139,139.9376526 
	198.3071289,137.7389221 214.4270477,134.5674286 225.6136627,132.3540497 240.3735657,129.4490662 251.5601807,127.2410049 
	265.62677,124.4719391 276.813385,122.262558 285.1333313,120.6261826 285.1333313,63.4153366 137.4141083,102.3327789 
	137.4141083,149.7453003 137.4541168,149.7319641 "/>
<polygon class="st1" points="265.62677,124.9223557 251.5601807,127.718071 240.3735657,129.9327698 225.6136627,132.8657532 
	214.4270477,135.0871277 198.3071289,138.2852783 187.1205139,140.4973297 172.360611,143.4289703 161.173996,145.6543427 
	146.4140625,148.585968 138.1207733,150.2250214 142.6807556,152.4903717 146.4140625,151.7974396 161.173996,149.0123901 
	172.360611,146.9069519 187.1205139,144.1352234 198.3071289,142.0297699 214.4270477,139.0048676 225.6136627,136.8994141 
	240.3735657,134.1143494 251.5601807,132.0129089 265.62677,129.3677826 276.813385,127.260994 288.3599854,125.0929184 
	285.2666626,121.0286026 276.813385,122.7063065 "/>
<polygon class="st1" points="185.1205292,311.211731 185.1205292,191.4944305 135.0941315,197.7041626 135.0941315,309.8391724 "/>
<polygon class="st1" points="201.3604584,239.4000092 266.0401001,235.1091614 266.0667725,182.326416 201.3604584,190.1885223 "/>
<polygon class="st1" points="293.5999451,178.9816742 275.0533752,181.2337189 275.0533752,235.0425262 293.5999451,233.9498291 "/>
<polygon class="st1" points="278.8133545,333.7053528 331.7997742,336.3971252 331.7997742,330.493866 278.8133545,328.0952759 "/>
<polygon class="st1" points="71.4184723,323.244751 263.6134644,332.9458008 263.6134644,327.9087219 71.4184723,319.0471802 "/>
<polygon class="st1" points="0.3450078,315.9156494 0.3450078,319.6601562 58.1692047,322.5784607 58.1558762,318.4608459 "/>
<path class="st1" d="M265.62677,177.3293152v-18.8903809c0,0-5.9738464,6.7635345-14.074585,2.3726196
	c-1.2779846-0.8681488-6.7729034-3.5447388-11.5298157,1.4867401c-2.7102509,2.4178009-6.9038239,6.3177948-14.4145966,2.7200165
	c-1.3227386-0.7920685-5.8822327-3.7658081-11.1878052,1.0909882c-5.3055725,4.856781-9.7311401,6.0795441-16.0465851,3.0818176
	c-2.0046387-1.0077972-6.5402222-2.9977417-11.3167267,1.3773346c-4.7765045,4.3749237-7.8398285,5.8707123-14.6652527,3.1910706
	c-2.0718536-1.0315247-5.6885071-3.3157959-11.3166046,1.3773346c-5.6282349,4.6930237-10.2960815,5.6020813-14.6705933,2.4203339
	c-2.2141113-1.0227356-5.969696-2.8412933-11.3120728,1.704483c-5.3422394,4.5455017-8.3183517,5.1322174-14.505249,2.5093384
	c-6.1867676-2.622879-7.6778259-1.3161316-11.3098068,1.6669159c-3.6319809,2.9829254-8.2574234,6.5513916-16.121254,2.4376526
	c-1.7237244-0.9319763-6.669693-2.4660492-10.9051437,2.3350525l29.3105164,8.9149475l154.0658569-19.7951813L265.62677,177.3293152
	z"/>
<path class="st1" d="M308.7865295,171.7059021l-16.9892273-17.6950684
	c-3.6178589,4.2908478-9.7990417,4.1181488-11.1179504,3.8183289c-1.3189087-0.299942-5.6306458-2.5092163-5.6306458-2.5092163
	l0.006958,20.3961639l33.7304993-4.011261L308.7865295,171.7059021z"/>
<polygon class="st1" points="289.559967,263.3460999 311.226532,262.6665039 311.226532,252.4191132 289.559967,253.3385925 "/>
<polygon class="st1" points="357.7862854,257.4162292 364.4395752,260.8009338 364.4395752,254.6045227 357.7862854,250.5135651 "/>
<polygon class="st1" points="349.4663391,209.5239716 355.6396484,216.3467102 355.6396484,208.7644348 349.4663391,201.2487793 "/>
<polygon class="st1" points="364.4395752,209.7505341 364.4395752,215.3872528 368.0129089,219.9979095 368.0129089,214.6943207 "/>
<path class="st0" d="M164.7339783,273.8467102c-2.3210602,3.252655-4.5917053,6.5400696-6.8901062,9.8083191
	c-2.2529144,3.2996826-4.5301056,6.5827026-6.7602234,9.8981323l-3.3341217,4.980835
	c-1.0908661,1.6744995-2.2010498,3.3356628-3.2747803,5.0218811c1.2010345-1.5982666,2.3657227-3.2215881,3.5497131-4.8317261
	l3.4906616-4.8726501c2.3195801-3.2535706,4.5922394-6.5397949,6.8891602-9.8091125
	c2.2514496-3.3007507,4.5305176-6.5823364,6.7592926-9.8988037c2.2299957-3.3156738,4.4506531-6.6376038,6.6098328-10.0021973
	c-2.3905182,3.2045593-4.719574,6.4514771-7.0394287,9.704895V273.8467102z"/>
<path class="st0" d="M174.0672607,291.8362732c-0.8577423,1.9326172-1.7141266,3.8657532-2.522522,5.8204956l-1.2101288,2.9331055
	c-0.3806763,0.9878845-0.7826996,1.9661865-1.1444702,2.9625549c0.503006-0.933136,0.9655914-1.8843689,1.4497375-2.8258362
	l1.3838501-2.8554382c0.9211273-1.9042053,1.7940063-3.829895,2.6657257-5.7562561
	c0.8569031-1.9330139,1.7135925-3.8660278,2.5213318-5.8210144c0.8148956-1.9518127,1.6194458-3.9081421,2.3557129-5.8951416
	c-0.9930725,1.8719788-1.9178619,3.7746277-2.8325195,5.6817627c-0.9216156,1.9039917-1.7942657,3.8299255-2.6667938,5.7558594
	L174.0672607,291.8362732z"/>
<path class="st0" d="M241.0402374,198.8768311c4.2513123-4.4794006,8.4943542-8.9666748,12.6837921-13.5055084
	c-4.3918457,4.3438873-8.7298126,8.7396088-13.0596619,13.1430664l-12.9290009,13.2692413l-12.8153992,13.3789062
	l-6.3674316,6.728241l-6.315567,6.7783356l6.5562439-6.5462189l6.504364-6.5961761l12.9280701-13.2701721l12.8144684-13.380249
	L241.0402374,198.8768311z"/>
<path class="st0" d="M246.160202,211.9759064L236.6947784,224.1362l-4.6886292,6.1147156l-4.6319885,6.1592255l4.8949127-5.9526825
	l4.8383789-5.9971924l9.5886078-12.0636597l9.4644928-12.161087c3.132782-4.0709686,6.2566528-8.1490021,9.3216858-12.2732849
	c-3.2862549,3.9503632-6.5137024,7.946991-9.7323456,11.950531l-9.5895538,12.0628815L246.160202,211.9759064z"/>
<path class="st0" d="M279.8800354,206.0326691c1.4455872-1.7044678,2.8499756-3.4419861,4.2531738-5.1803284
	c1.3906555-1.7484589,2.7810364-3.4970245,4.1296997-5.2790527c1.3546753-1.7772369,2.700531-3.5615387,3.9879761-5.3926086
	c-1.5070496,1.6551666-2.9558411,3.3571167-4.3956909,5.0661316c-1.4460144,1.704071-2.8501282,3.4417267-4.2541199,5.1795349
	c-1.3913269,1.7477875-2.7815857,3.4966278-4.1306458,5.2784119l-2.0217285,2.6740417
	c-0.6544189,0.9069672-1.327179,1.7992401-1.9654541,2.7192383c0.7590332-0.8232422,1.4835815-1.6741028,2.226532-2.5101471
	l2.170105-2.5551758L279.8800354,206.0326691z"/>
<path class="st0" d="M288.0933228,204.9932709c-1.4465332,1.962738-2.8489075,3.9559784-4.2513123,5.9494934
	c-1.3890686,2.0027161-2.7769165,4.0063477-4.121582,6.0401001l-2.0149231,3.0519714
	c-0.651123,1.0315857-1.3215942,2.0497284-1.955719,3.093277c0.7610779-0.9549561,1.4859924-1.9351349,2.2301331-2.9019318
	l2.170929-2.9430847c1.4459839-1.9629974,2.8487854-3.9562531,4.2503662-5.9502869
	c1.3882751-2.0032349,2.7763977-4.0066223,4.1205139-6.0407715c1.3505249-2.0296326,2.691864-4.0656433,3.9717102-6.144455
	c-1.5106506,1.9179535-2.9599609,3.8785553-4.3999634,5.8458099L288.0933228,204.9932709z"/>
<path class="st0" d="M156.8540192,215.0141449l10.3354034-10.8522491c3.4249268-3.6368408,6.8417053-7.2815094,10.204483-10.9780426
	c-3.5657196,3.5015717-7.0774231,7.0549774-10.5810089,10.6161194l-10.4500732,10.7419128l-10.3362122,10.8513184
	l-5.1277161,5.4645538l-5.0758362,5.5144043l5.3169098-5.2826538l5.2649078-5.3326569l10.4491425-10.7428284V215.0141449z"/>
<path class="st0" d="M165.3606262,230.1120605l-9.2706146,11.9252167l-4.5913086,5.9971924l-4.5346375,6.0415649l4.797699-5.8352814
	l4.740921-5.8796539l9.3939514-11.8284607l9.2696838-11.9260406c3.0678558-3.9926147,6.1267548-7.9922943,9.1268768-12.0379639
	c-3.2214508,3.8721771-6.3839569,7.7902832-9.5376892,11.7156067
	C174.7555084,218.2842407,165.3606262,230.1120605,165.3606262,230.1120605z"/>
<path class="st0" d="M176.3205872,243.4909668c-1.2255249,1.5285645-2.4499817,3.0582275-3.633316,4.6209106l-1.7731934,2.3455658
	c-0.5716095,0.7975311-1.1615906,1.5804291-1.7170563,2.3908844c0.6759338-0.7133942,1.3174896-1.4544983,1.9773102-2.1808624
	l1.9211884-2.2260437c1.2795563-1.4850006,2.5181274-3.0033264,3.7555847-4.5223236
	c1.224762-1.5292358,2.4494476-3.0586243,3.6323853-4.6217346c1.1890106-1.5581512,2.3691864-3.1233826,3.4913177-4.7356567
	c-1.3409424,1.4354248-2.6237335,2.918045-3.897583,4.4075928c-1.2800293,1.484726-2.5182648,3.0030518-3.7565155,4.521637
	L176.3205872,243.4909668z"/>
<path class="st0" d="M256.1201477,235.0558472c1.7714539-1.7628479,3.3807678-3.6565552,4.9498596-5.5827637
	c1.5529175-1.9391327,3.0664978-3.9101257,4.419281-6.01091c-1.7702332,1.7637634-3.3796997,3.6573334-4.9496765,5.5827637
	c-1.5541382,1.9382019-3.0677185,3.9091797-4.4193115,6.01091H256.1201477z"/>
<path class="st0" d="M181.7072144,249.4608307c-0.5974884,0.8760223-1.1535034,1.7809753-1.5370636,2.8055878
	c0.8277435-0.7160339,1.4830627-1.5518951,2.0968018-2.4166107c0.5962372-0.8768921,1.1522522-1.7817688,1.5370483-2.8055878
	C182.9775085,247.7610931,182.3222809,248.5970612,181.7072144,249.4608307z"/>
<rect x="137.8007812" y="259.3750916" class="st0" width="1.2075131" height="9.1020651"/>
<rect x="146.6674042" y="258.9220276" class="st0" width="1.2075131" height="9.1593637"/>
<rect x="155.5473633" y="258.348999" class="st0" width="1.2964714" height="9.4434605"/>
<rect x="165.0939789" y="257.9758911" class="st0" width="1.2964714" height="9.5727196"/>
<rect x="173.9605865" y="257.5761414" class="st0" width="1.2964816" height="9.5727196"/>
<rect x="182.8272095" y="257.0297852" class="st0" width="1.3304576" height="10.1256008"/>
<rect x="137.8007812" y="270.4620056" class="st0" width="1.3031648" height="46.8541718"/>
<rect x="146.6674042" y="270.2088013" class="st0" width="1.3031648" height="47.3552246"/>
<rect x="155.5473633" y="269.9556274" class="st0" width="1.3101127" height="48.0001755"/>
<rect x="165.0939789" y="269.5025635" class="st0" width="1.3168062" height="48.7397575"/>
<rect x="173.9605865" y="269.1827393" class="st0" width="1.3168062" height="49.5206337"/>
<rect x="182.8272095" y="268.9695129" class="st0" width="1.3441294" height="50.0709763"/>
<polygon class="st2" points="288.6533203,68.958786 285.7600098,64.1722336 285.7600098,120.8647003 288.6533203,124.4586258 "/>
<polygon class="st2" points="198.093811,242.6781006 263.6134644,239.0135651 263.4667969,235.4289703 201.3604584,239.4000092 
	201.3604584,190.1885223 266.0667725,182.326416 266.0667725,179.8744965 197.720459,188.5494843 "/>
<path class="st2" d="M275.0533752,155.4220123c1.0853271,0.3373718,1.7671814,0.74823,1.7671814,0.74823v-24.4711456
	l-11.1885986,1.8204041v24.913559c1.7594604-2.1864624,3.6998596-3.0891418,5.4646301-3.3535156V234.66008l1.985199-0.1772766
	l0.1228027,100.8895111l5.614624-1.6772766v-95.5432892l18.4532471-1.0363617v-61.1872101l-22.2132263,2.8022461
	l-0.0068359-23.3091583L275.0533752,155.4220123z M293.6026306,233.9391632l-18.542572,1.0977325l-0.0068359-53.8088226
	l18.5492249-2.2500305v54.9614716L293.6026306,233.9391632z"/>
<polygon class="st2" points="291.7999878,154.009491 325.0131226,188.6027679 325.0131226,169.2406616 292.2532959,129.5756531 "/>
<path class="st2" d="M251.5601807,160.8188782v-24.6616974l-11.1885986,2.08638v23.6383057
	c5.2118378-5.3692932,11.1885986-1.0637054,11.1885986-1.0637054V160.8188782z"/>
<path class="st2" d="M225.6136627,165.016449v-24.0340729l-11.1878052,2.0863953v23.0386505
	C219.9588776,160.54039,225.6136627,165.0164337,225.6136627,165.016449z"/>
<path class="st2" d="M198.3737946,169.1873627l-0.0745697-23.1212616l-11.1884766,2.08638
	c0,0-0.0536194,17.0421295-0.0536194,22.4110107c5.7998352-5.5397186,11.3167267-1.3773346,11.3167267-1.3773346
	L198.3737946,169.1873627z"/>
<path class="st2" d="M172.4006042,173.7580414l-0.0745087-23.1212616l-11.1885986,2.08638
	c0,0-0.0535583,17.0421295-0.0535583,22.411026c5.7997131-5.5397186,11.3166046-1.3773346,11.3166046-1.3773346
	L172.4006042,173.7580414z"/>
<path class="st2" d="M146.4140625,177.5558472l-0.0703278-21.8113556l-11.1886139,2.0863953
	c0,0-0.0532074,16.0600128-0.0532074,21.4289093c5.6560974-6.1430969,11.3120728-1.7044678,11.3120728-1.7044678
	L146.4140625,177.5558472z"/>
<path class="st2" d="M120.59021,181.7667542l-0.0683594-21.1903839l-11.1884766,2.08638
	c0,0-0.052948,15.4017334-0.052948,20.7719574c5.656105-6.1431122,11.3098068-1.6669006,11.3098068-1.6669006L120.59021,181.7667542
	z"/>
<path class="st2" d="M55.3452225,172.8918915v20.3575439c-1.9587936,1.5386963-4.8234406,2.6543274-4.8234406,2.6543274
	l9.9943466,2.5430603l-0.0269508-9.0319672c4.8415718-1.5716095,9.0595512,1.9204865,9.0595512,1.9204865v-21.0065002
	l-14.2039261,2.563446L55.3452225,172.8918915z M55.4062767,193.1987762
	c0.4696388-0.5900421,0.9452095-1.0992889,1.4231949-1.5462952
	C56.523632,192.1947937,56.0104752,192.7164612,55.4062767,193.1987762z M56.8857346,191.6005096
	c1.1899147-1.0992432,2.393589-1.7867126,3.5623817-2.1728821
	C60.1758499,189.5724487,58.4413261,190.5062714,56.8857346,191.6005096z"/>
<polygon class="st2" points="399.5727234,301.044281 331.7997742,330.493866 331.7997742,336.3971252 399.5993958,302.2036133 "/>
<path class="st2" d="M258.1468201,321.8988342l-9.5443573-0.3681641l-8.875412-0.3409119l-0.9413757-0.0413208l-7.9341125-0.2995911
	l-0.006958-0.0002747l0.1871948-53.3997192l6.5259705-0.2127075l1.1811829-0.0325317l0.03302,53.9247131l0.941391,0.0436401
	l0.1871185-54.0086975l6.5326538-0.2196655l1.1747742-0.0323181l0.0327911,54.2165833l0.9414062,0.0441895l0.1858063-54.3018494
	l7.2162323-0.2406311l1.1744843-0.0325317l0.0330811,54.9908142l0.9413757,0.0444641l0.1872559-55.0760803l5.3181152-0.1790771
	l0.0140076-1.9023438l-5.325592,0.172821l0.0384827-11.3003693l-1.2145386,0.078537l0.0067444,11.2553406l-1.1599731,0.0327148
	l-7.2230225,0.2336731l0.0384674-11.2405548l0.1105194-0.004776l0.9613647-0.0479279l6.0852966-0.3136444l0.805481-0.0405579
	l0.415741-0.0206604l0.8054199-0.0406494l0.1499634-0.0066071l0.804718-0.0413208l4.6595764-0.2383575l-0.0066223-4.1661224
	l-5.0486145,0.2589569l-0.4090576,0.0206604l-0.5456543,0.0206604l-0.4096985,0.0199738l-0.8115234,0.0479431l-0.4097137,0.0206604
	l-6.4810333,0.3269043l-0.6954803,0.0412598l-0.1912537,0.0066986l-0.347702,0.0132751l-0.6069794,0.0346527l-0.3344116,0.0199585
	l-0.8867493,0.0479431l-6.0106354,0.3069611l-0.2997589,0.0132904h-0.00737l-0.3816833,0.0206604l-0.9553833,0.0406189
	l-0.1085968,0.007309l-0.4230347,0.019989l-0.6895905,0.0346222l-24.3478699,1.2477875l-0.955368,0.0539551l-1.2138519,0.0545349
	l-6.8974304,0.35495l-0.9619904,0.0545502l-1.2145538,0.0546265l-6.8967743,0.3542023l-0.9553528,0.0546112l-1.2211609,0.0612793
	l-6.8971558,0.3475494l-0.9550171,0.0479126l-1.2211609,0.0685883l-6.897171,0.3475952l-0.9550018,0.0472565l-1.2144775,0.0685883
	l-6.8971558,0.3475952l-0.9550323,0.0479279l-1.2211609,0.0679169l-6.8974304,0.3475952l-0.9550323,0.0479279l-1.2211609,0.0686035
	l-6.8903503,0.3475037l-0.9617157,0.0473175l-1.2145538,0.0685883l-6.8970184,0.3475342l-0.9620667,0.0479279l-1.2142029,0.0679169
	l-5.4040985,0.2781219l2.0646515-0.2541351l-0.0306396-57.4933472l50.0197449-6.2119904v-1.3116913l-52.066391,6.5575409v58.7139893
	l-1.4803925,0.0761566l-0.5662994,0.0272675h-0.0070343l-0.8117676,0.0406494l-0.7911682,0.0405579l-6.8972855,0.3548889h-0.1705399
	l-1.7329254,0.0885773l-0.2728119,0.0139771L72.0113144,258.57724l-1.8010635,0.088562l-0.8937683,0.0612183
	c-0.6279755,0.4706116-1.0066071,1.2431946-0.9649811,2.0696106c-0.0020447-0.0068665-0.0057983-0.0139771-0.0077744-0.020874
	c-0.2882996-0.9920959,0.9705811-2.1712646,0.9705811-2.1712646h2.0967941v-14.6461639l-1.871994-0.4221802
	c0,0,0.0328827-27.8718567,0.0264053-42.7858734l42.2117767,10.7325745l-0.2185745-14.3516998l-29.2451782-8.8948364
	c5.4179688-5.1193085,10.8392792-2.3551636,10.8392792-2.3551636V165.671524l-11.8704758,2.208847
	c0,0,0.2754669,15.4750366,0.2800446,20.9691925c-1.1307068,0.9854279-3.5206528,2.8076935-6.0515747,3.1161957
	c-2.7287827,0.0852356-4.8177032,0.1531372-5.9692993-0.6238708v0.2726746
	c-0.5116653-0.7773438-3.9227829-2.2023163-3.9227829-2.2023163l0.0749741,134.8418427l5.7171707-0.599884v-5.5431824
	l-2.5039902-0.1978149c0,0-0.017868-0.0048828-0.0428314-0.0119934l0.0428314,0.0119934l194.745636,6.7976685l0.0206604-0.3542786
	v-0.3475037l0.0472717-1.8957214h-0.0545654l-5.5255737-0.2110901L258.1468201,321.8988342z M86.6010513,261.9935608
	l5.5057068-0.2796936l1.2278519-0.0612183l0.1569061-0.0066833l0.79142-0.0412292l0.4297333-0.019989l0.9550323-0.0546265
	l6.0037079-0.3002625l0.8937607-0.0480042l0.3411102-0.0132751l0.8800507-0.0479431l0.0679474-0.0066833l0.8870773-0.0479431
	l5.7987671-0.2929688l1.0982895-0.0545654l0.1365814-0.0066528l0.9480133-0.0479431l0.1365814-0.0066833l0.9483261-0.0545959
	l5.6077118-0.2796326l1.2281799-0.0679016h0.0612717l0.8867264-0.0479431l0.3344193-0.0133667l0.9550171-0.0479126
	l5.4101105-0.2730103l1.2348785-0.0612183l0.2521362-0.0133057l0.6958618-0.0413208l0.5252838-0.0272827l0.9484253-0.0473022
	l5.9147644-0.3069458l0.9893494-0.0479431l0.2318115-0.0133057l0.9550323-0.0479126h0.0273438l0.9619904-0.0479431
	l5.7102356-0.2929688l1.1868439-0.0613098h0.034317l0.947998-0.0479126l0.2322235-0.0133057l0.9550323-0.0479431
	l5.5123749-0.2862854l1.2211609-0.0613098l0.1635284-0.0072937l0.7844849-0.0406189l0.4300537-0.0206604l0.9617157-0.0472717
	l6.0037079-0.3069458l0.893692-0.0479126l0.3274536-0.0206909l0.8934174-0.0472107h0.0546417l0.8937073-0.0413208
	l5.7987671-0.2995911l1.0982819-0.0546265l0.1229553-0.0066833l0.9550018-0.0479431l0.143219-0.0066223l0.9553528-0.0479736
	l5.6213074-0.2862854l1.2211456-0.0686035h0.0546417l0.9003906-0.0472717l0.3207703-0.0139771l0.9480743-0.0472412
	l6.0991821-0.3136292l0.7981262-0.0413208l0.4230347-0.0205994l0.7981873-0.0406494l0.1564941-0.0066528l0.805481-0.0479431
	l5.9081116-0.2995911l0.9886627-0.0479431l0.2318268-0.0140381l0.9553528-0.0472412h0.0273743l0.9553528-0.0546265
	l5.7167664-0.2863007l1.1798859-0.0612183h0.0413361l0.9546967-0.0479279l0.2185211-0.0140533l0.9620361-0.0472412
	l6.1878204-0.3135681l0.7088318-0.0346375l0.5116425-0.0273285l0.7095795-0.0405884l0.2458038-0.0133667l0.7095642-0.0346222
	l6.0033112-0.3062744l0.886734-0.0479279l0.3344116-0.0139923l0.8867493-0.0472412h0.068634l0.8867493-0.0479431l5.8121033-0.292984
	l1.0853424-0.0546112l0.1358795-0.0066681l0.9553833-0.0545502l0.1298828-0.00737l0.9480133-0.0472565l5.6215668-0.2862854
	l1.1734161-0.065918l0.0068207,11.2154999l-1.1602325,0.0318909l-6.5392914,0.2068787l0.038269-11.0474701l-1.2145386,0.0770416
	l0.0067596,11.0109558l-1.1666565,0.0321045l-6.5325012,0.1995239l0.038147-10.862915l-1.2145386,0.0761414l0.0066833,10.8270569
	l-1.1798859,0.0331421l-6.5189056,0.2051697l0.0379333-10.6780701l-1.2145233,0.0752716l0.0066681,10.6371613l-1.2005615,0.0402527
	l-7.1803589,0.2260132l0.0377808-10.501236l-1.2145233,0.0743103l0.0066833,10.4612579l-1.1938782,0.0392151l-6.504364,0.1986084
	l0.037323-10.2122192l-1.2145386,0.0732422l0.006546,10.1795654l-1.2070923,0.0404358l-6.4911652,0.1913757l0.0375214-10.1323853
	l-1.2145386,0.0722961l0.0066223,10.1005554l-1.2277832,0.0411072l-7.1527557,0.2251282l0.0374603-9.9617004l-1.2145538,0.0710754
	l0.0066071,9.9248962l-1.2208099,0.0335693l-6.7198334,0.2109985l-0.9483185,0.0273438l-1.2348785,0.0412598l-6.6855621,0.2110901
	l-0.948349,0.0272522l-1.2278442,0.0413208l-7.3884888,0.2243958l-0.9413757,0.0272827l-1.2348175,0.0413208l-6.6995544,0.2109985
	l-0.9413147,0.0273743l-1.2348785,0.0339355l-6.6925049,0.211731l-0.947998,0.0339355l-1.2281799,0.0339355l-3.6602478,0.1114807
	l0.883728-0.0295715l0.0003357-8.9345703l-2.0469208,0.0849609v8.9147034l-2.4099884,0.0733643l0.0359497-8.8175659
	l-1.2145538,0.0654602l0.0063477,8.8000793l-1.1658936,0.0320435l-6.5303574,0.1990356l0.0357513-8.6877747l-1.2145386,0.0649414
	l0.0062714,8.6635132l-1.1794739,0.0326538l-6.5166321,0.2061157l0.035614-8.4901428l-1.2145386,0.0636597l0.0062866,8.460968
	l-1.1865005,0.0390015l-6.5088959,0.2061768l0.0348663-8.193512l-1.2145462,0.0627441l0.0062027,8.1650085l-1.1864319,0.0325928
	l-7.1907578,0.2255554l0.034584-7.967926l-1.2145386,0.061554l0.0061417,7.9471436l-1.2066345,0.0334167l-6.4885025,0.2016296
	l0.0347977-7.973938l0.9617157-0.0545959L86.6010513,261.9935608z M70.3238068,262.8251648l2.0809174-0.1092224l1.9439926-0.0951843
	l0.9960251-0.0479126l0.2388382-0.0133057l0.948349-0.0546265h0.0339737l0.955368-0.0412903l6.9036942-0.3542175
	l0.0061417,7.9492493l-7.870224,0.2445679l0.0050507-7.7982788l-0.9823151,0.0546265l0.001091,7.7718811l-0.014801,0.0004272
	l-1.2348099,0.0412292l-2.926384,0.088562l-1.6649246,0.0546265c0,0-0.0706787,0.0426025-0.1618958,0.1200562
	c0.1027451-0.1043701,0.1847458-0.1746826,0.1847458-0.1746826l1.7989273-0.1244812l-0.1569061-7.5120544
	c0,0-0.4003143-0.0359192-1.0849152,0c-0.2059555,0.0108643-0.4413834-0.0890503-0.6777115-0.249115
	c0.039917,0.0168762,0.076889,0.0352173,0.1184311,0.0513916l0.5592804,0.1977234L70.3238068,262.8251648z M69.1611176,271.5941162
	c-0.0667877-0.1473389-0.0229874-0.3163147,0.0603714-0.4786682
	C69.1654892,271.2533264,69.1375809,271.4138184,69.1611176,271.5941162z M66.9947281,316.3894653
	c0.0126801,0.1550293,0.0474091,0.2897034,0.0950241,0.4136658
	C67.0229645,316.6756287,66.9842834,316.5386658,66.9947281,316.3894653z M76.5320053,314.9099121l-5.1232986-0.1977234v-42.0209961
	l2.9061127-0.0951843l1.2414932-0.0406189l0.028717-0.000824l0.0056,42.2848206l0.9413757,0.0712585l0.0274963-42.3834534
	l7.8734207-0.262207l0.0331573,42.9524231l-7.9340897-0.3062439L76.5320053,314.9099121z M103.8545303,315.9599915
	l-0.9413834-0.0346375l-8.6299438-0.3336182l-8.8756866-0.3409119l0.1877441-43.0257263l6.4843597-0.2159119l1.2219772-0.033844
	l0.033226,43.2402954l0.9413757,0.0348511l0.1880112-43.3095703l7.1866302-0.2452393l1.2016602-0.0330811l0.033226,44.0664673
	l0.9413757,0.0354614l0.1880112-44.1424255l6.5045013-0.2125244l1.2017746-0.0394897l0.0330963,44.5928345l0.9413757,0.0360107
	l0.1874084-44.6634521l6.5121002-0.2189331l1.1947556-0.0395508l0.0330811,45.5296021l-7.9000931-0.3052368l-8.8687592-0.3409119
	L103.8545303,315.9599915z M212.4152832,320.1394348l-0.9413757-0.0413208l-7.9341125-0.3069458l-0.9413757-0.0339661
	l-7.9480896-0.3069458l-0.94133-0.0339661l-8.6026154-0.3342285l-0.9413757-0.0339661l-7.9546356-0.3069458l-0.9413605-0.0339661
	l-7.9274292-0.3069458l-9.5646057-0.3682556l-17.7372437-0.6817932l-0.9413147-0.0339661l-8.623291-0.3335571l-8.8823471-0.3409119
	l-0.0272827-0.0010071l0.1875992-45.5989075l6.5255737-0.2190247l1.1811066-0.0324402l0.0330963,45.8600769l0.9413757,0.0370178
	l0.1874695-45.9386902l2.4187927-0.0802002v39.1399841l2.0466614,0.0405579l0.0003357-39.2492371l2.7625122-0.0916138
	l1.2281952-0.0412598l0.9480133-0.0339661l6.6924896-0.2184448l1.2281799-0.0339661l0.9480133-0.0272522l6.6995697-0.2250977
	l1.2348785-0.0405579l0.9413757-0.0273438l7.3883514-0.245636l1.2278595-0.0406494l0.9483337-0.0272827l6.6855774-0.2250671
	l1.2348785-0.0413208l0.9483337-0.0265808l6.7198334-0.2250671l1.2345276-0.0346375l0.0012817-0.000061l0.03302,49.6991882
	l0.9414062,0.0402222l0.1870422-49.7871399l7.146637-0.2314148l1.2348785-0.0412598l0.0079193-0.0002747l0.0330811,50.5640564
	l0.9413757,0.0408936l0.1871948-50.6452942l6.4846191-0.2047729l1.2223816-0.0401611l0.0331726,51.3475952l0.9413757,0.0413818
	l0.1876221-51.4302063l6.49823-0.2118225l1.2084808-0.0397034l0.0330811,52.0005188l0.941391,0.0420837l0.1872559-52.0831299
	l7.1741028-0.2330017l1.2150726-0.0400085l0.0331116,52.6614685l0.9413757,0.0426331l0.1872559-52.7454224l6.5119629-0.2113647
	l1.1951752-0.0400391l0.03302,53.3157654l0.900238,0.0411987l-8.8412781-0.3463745l-9.54422-0.3608093L212.4152832,320.1394348z"/>
<path class="st3" d="M399.9460449,302.2169495l-0.0038147-1.0603027L400,301.1315613l-0.084259-0.4186707l-0.0036621-0.1818848
	l-0.0303345,0.0131531l-0.0156555-0.0777893l-17.1772461-0.1837463l-0.0447083-0.0007019l-0.4902649,0.1218567v-91.486969
	l-56.843689-113.2130508v-0.2509155l-36.3331604,7.8773041V68.8714447l-3.5269165-5.8234253v-0.0479965l-148.3591919,39.0880127
	v34.1708603l-25.607872,5.5521088v19.980423l-71.4116211,13.3012238v-0.001297l-0.8927422,0.1671295v18.1228333l0.1869316,0.0483551
	v0.0421906l2.269722,1.4535675c0.1236153,0.0892487,2.4663849,1.7444458,5.9286346,1.7444458
	c0.9113007,0,1.901722-0.1186523,2.9478493-0.4064484l9.7458115,2.4798889l-0.0279732,44.3889465l-2.5587883,0.2579346
	l0.1567078,68.7254944l-57.4876976,3.4585266L0,315.5592957v4.4284973l57.8530273,2.9200439l0.002594,1.0290833l8.0183563,0.6505432
	l0.0000687-0.0429688l5.8534317-0.6142578v-0.3229675l191.6389771,9.6769409l0.0012817,1.5665283v0.3082581l9.5142212,0.5744324
	v0.0887756l0.2474365-0.0738525l0.3961487,0.0239563l-0.0001221-0.1421814l5.243866-1.5657654l52.6957092,2.7038879V337
	l0.416748-0.2103271h0.0002747l0.0760193-0.0379944l0.1944885,0.0093384v-0.1078491l67.6089783-34.1348877l0.189209-0.0951843
	V302.42276l0.0033569-0.001709l-0.0040283-0.2016602L399.9460449,302.2169495z M332.1490784,335.8814392v-5.1568909
	l67.0969849-29.1550903l0.008667,0.430481l-67.1063232,33.8816833L332.1490784,335.8814392z M273.4067078,234.1350861
	l-0.0632935,0.0055847l-0.464386-0.1747437v0.2157135l-1.4869385,0.1313934v-78.9529114
	c1.1445007-0.1888428,2.273468-0.1110535,3.3645325,0.2332611l0.0065613,79.0808258l-1.3564148-0.5103455v-0.0293732
	L273.4067078,234.1350861z M60.4078522,189.0851746c-2.0182533,0.6841583-3.5875816,2.0070953-4.2098427,2.9632111
	c-0.1700134,0.1642609-0.3419991,0.3182831-0.5139847,0.4725037v-19.5193481l13.5172615-2.5187988v20.3375397
	c-0.7775192-0.3509979-1.2311935-0.6698151-1.2365112-0.6737061l-0.1618958-0.094223l-0.0047073,0.001297
	c-0.6691742-0.4477539-1.3703995-0.7966309-2.0869293-1.0380096c-1.6971893-0.5693054-3.5317116-0.5453186-5.3027687,0.0685883
	L60.4078522,189.0851746z M324.6864624,188.7613373v125.893692l-45.5437622-1.235199v-74.9552307l18.4479065-1.032074V175.5737
	l-22.2425842,2.8047791l-0.0018311-22.5655975c0.4320679,0.1766052,0.8634949,0.3861847,1.2884216,0.6578827
	c0.1046143,0.0655975,0.2025757,0.1305237,0.3071289,0.202713l0.1086121,0.0606232h0.0026855
	c0.881958,0.5730743,7.6134338,4.5320435,14.8505859-2.3530426v0.1977997l32.7825012,34.1828613L324.6864624,188.7613373z
	 M292.5932922,154.3026428v-24.2392883l32.0704956,39.3012238v18.3786926
	C324.6637878,187.7432709,292.5932922,154.3026428,292.5932922,154.3026428z M263.2788086,235.6754608l0.0025024,3.0321198
	l-64.8703003,3.6360321V188.722702l67.3609619-8.4882812l-0.000824,1.8040161l-64.7383118,7.8601074v49.85112l62.2463379-4.0755005
	L263.2788086,235.6754608z M257.5007019,321.6016846l-0.0066223-54.7629395l0.3657532-0.0119934v54.7882385l-0.3591309-0.013855
	V321.6016846z M74.6483383,272.8446045l0.6446228-0.0211487l0.0068893,41.7691345l-0.6581268-0.0253601l0.0066147-41.7224731
	V272.8446045z M75.8901749,314.6150513l-0.006958-41.8117676l0.3580856-0.0118103v41.8370972L75.8901749,314.6150513
	L75.8901749,314.6150513z M101.3753662,309.4934692l-6.7928925,0.4090881v-37.7127991l6.7987595-0.2233582l-0.0059357,37.5275879
	L101.3753662,309.4934692z M93.9930115,309.9380798l-0.3526306,0.0212097l-0.006073-37.7394409l0.3587036-0.0118103v37.7288208
	V309.9380798z M93.0446701,272.2399597l0.006073,37.7554626l-0.6504898,0.0391846l0.006073-37.7727966l0.6383438-0.0209961
	V272.2399597z M91.8106308,310.0700378l-6.1036987,0.3675537v-37.956665l6.1098328-0.2007141l-0.0061493,37.7887573
	L91.8106308,310.0700378z M85.1171951,310.473114l-0.3525009,0.0212708l-0.005867-37.9819946l0.3583679-0.0117188v37.9726562
	V310.473114z M84.1692047,272.5324402l0.005928,37.9979858l-0.6574326,0.0396118l0.0062027-38.0166321l0.6453018-0.0212097
	V272.5324402z M82.9281158,310.6050415l-6.0963669,0.367157v-38.1991882l6.1026382-0.2003784l-0.0062103,38.0326233
	L82.9281158,310.6050415z M76.831749,311.6604919l6.0962372-0.367157l-0.000618,3.5931091l-6.0955658-0.2344666v-2.9914856
	H76.831749z M83.5175858,311.2578735l0.6576462-0.0396118l0.000618,3.7162476l-0.6588135-0.0253296l0.0005417-3.6512451
	L83.5175858,311.2578735z M84.7654953,314.9570618l-0.000618-3.7743225l0.352356-0.0212097v3.8091125
	C85.1172333,314.9706421,84.7654877,314.9570618,84.7654953,314.9570618z M85.7068787,311.125946l6.1036987-0.3674927
	l-0.0007401,4.4695435l-6.1029053-0.2347412v-3.8673706L85.7068787,311.125946z M92.400177,310.7229309l0.6506424-0.0392151
	l0.0007477,4.5921631l-0.6521225-0.0250854l0.0007401-4.527771L92.400177,310.7229309z M93.6411819,315.2985535
	l-0.0007401-4.6503906l0.352562-0.0212097v4.6850281l-0.3518219-0.0135193V315.2985535z M94.5825806,310.5914307
	l6.7927551-0.4090271l-0.0008163,5.4135132l-6.791832-0.2612915v-4.7432251L94.5825806,310.5914307z M101.970932,271.9471436
	l0.6453018-0.0212097l0.0065536,43.7173157l-0.6588135-0.0252991l0.006958-43.6719971V271.9471436z M103.2124252,315.6671143
	l-0.0066223-43.7599487l0.3584366-0.0118103v43.7853088l-0.3518143-0.0135193V315.6671143z M110.2449188,308.9624634
	l-6.0910339,0.3668213v-37.4529724l6.0969009-0.2001648l-0.0058594,37.286377L110.2449188,308.9624634z M104.1538849,310.0175171
	l6.0910339-0.3667297l-0.00103,6.2868652l-6.0899582-0.2342529v-5.6857605L104.1538849,310.0175171z M110.8390503,271.6571045
	l0.6409454-0.0210266v37.5782166l0.0066833,0.2996826h0.0046387l0.0009613,6.472229l-0.6601715-0.0253906l0.006958-44.3036499
	L110.8390503,271.6571045z M112.0805435,316.008728l-0.00103-6.7946167h0.0000687v-37.5982056l0.3541336-0.0115662v44.4182434
	l-0.3531647-0.0135498L112.0805435,316.008728z M119.120636,309.0670166l-6.0986328-0.1615295v-37.3197021l6.1041031-0.200531
	l-0.0055237,37.6821594L119.120636,309.0670166z M113.0220032,309.5931091l6.0984955,0.161499l-0.000946,6.5249023
	l-6.0975571-0.2345581v-6.4518433H113.0220032z M119.7145004,271.3659363l0.6399841-0.0209961l0.0065536,44.9832764
	l-0.6531601-0.025177l0.0066223-44.936615V271.3659363z M120.9493103,316.3505249l-0.0065536-45.0245667l0.3597336-0.0117798
	v45.0498962l-0.3531723-0.0136414L120.9493103,316.3505249z M121.8907623,309.8367004l6.1062317,0.1641846l-0.0010223,6.6208496
	l-6.1053009-0.2348938v-6.5500793L121.8907623,309.8367004z M128.0029907,271.093811l-0.005867,38.2191772l-6.1063766-0.1673584
	V271.29422l7.3470306-0.2413025l0.0066223,45.6162415l-0.6621552-0.0254517l0.006958-45.5495911h-0.5862885L128.0029907,271.093811z
	 M129.830719,316.6914062l-0.0066071-45.6455383h-0.3905792l0.7522736-0.0247498v45.6841736l-0.3550873-0.0136414V316.6914062z
	 M137.5686798,309.5714111l-2.1309204-0.0570679v-38.6655884l2.1365204-0.0702515l-0.0055847,38.7921753L137.5686798,309.5714111z
	 M134.7441559,309.4957886l-1.3557281-0.0363464v-38.5429993l1.3557281-0.0444946v38.6242676V309.4957886z M132.7001648,309.44104
	l-1.9281158-0.0516968v-38.3777466h-0.2843323l2.2123871-0.0726929v38.5016785L132.7001648,309.44104z M130.772049,310.0770569
	l1.9281158,0.0516052v0.0134888l2.0439911,0.0552368v0.0020447l2.8243866,0.0762329l-0.0010223,6.7133179l-6.7954407-0.2614136
	v-6.6505432L130.772049,310.0770569z M138.1605377,270.7598267l0.6418915-0.0210571l0.0066223,46.2984924l-0.6551971-0.025238
	l0.0066833-46.2518616V270.7598267z M139.39534,317.0596619l-0.0066223-46.3398438l0.3617859-0.0119324v46.3664551
	l-0.3551636-0.0136414V317.0596619z M146.437439,309.810791l-6.100647-0.1622009v-38.960083l6.1062317-0.200531
	l-0.0055847,39.3225403V309.810791z M140.336792,310.3528137l6.100647,0.1615906l-0.0010376,6.8160706l-6.0995636-0.2346802
	v-6.743042L140.336792,310.3528137z M147.0226288,317.3347778l0.0066833-46.8661499l0.6418915-0.0210876l0.0066071,46.931488
	l-1.1285858-0.0434265h0.4733887L147.0226288,317.3347778z M148.2641144,317.4007263l-0.0066223-46.9727783l0.3617706-0.0118408
	v46.9980774l-0.3551636-0.0137024L148.2641144,317.4007263z M155.3062134,310.0555115l-6.1006317-0.1677246v-39.490448
	l6.1062317-0.200592l-0.0055847,39.8595886L155.3062134,310.0555115z M149.2055817,310.5914917l6.1006317,0.168335
	l-0.0010223,6.9117432l-6.0995636-0.2346191v-6.8454895L149.2055817,310.5914917z M155.8980713,270.1775818l0.6486359-0.0212708
	l0.0069733,47.5644226l-0.6622314-0.0254822l0.0066223-47.5164795V270.1775818z M157.1399078,317.7420044l-0.006897-47.6057434
	l0.3551025-0.0116577v47.631073l-0.3482056-0.0134277V317.7420044z M164.8709259,310.3143005l-6.7964935-0.1881714v-40.020813
	l6.8021088-0.2234192l-0.0055847,40.4325562L164.8709259,310.3143005z M158.0744324,310.8303833l6.7964935,0.1882324
	l-0.000946,6.9978333h0.5862122l0.0066223-48.1534424l0.6420288-0.0210571l0.006546,48.2453613l-8.0368958-0.3092041v-6.9475708
	L158.0744324,310.8303833z M166.6977234,318.1097717l-0.0066071-48.2866821l0.3616943-0.0118408v48.313324l-0.3550873-0.0137024
	V318.1097717z M173.7328949,310.5534668l-6.0937042-0.1682739v-40.593811l6.0995789-0.2003174l-0.0057983,40.9629517
	L173.7328949,310.5534668z M167.6391907,311.089447l6.0935822,0.1676636l-0.0010223,7.1233215l-6.0924988-0.2344055v-7.0565796
	H167.6391907z M174.3250275,269.5721741l0.6486359-0.0213318l0.0065613,48.8783264l-0.6621552-0.0255127l0.006958-48.8317261
	V269.5721741z M175.5665283,318.4518433l-0.0065613-48.9196472l0.3617096-0.0117798v48.9449463l-0.3551483-0.0136414V318.4518433z
	 M182.6290283,310.7993469l-6.121048-0.1677246v-41.1308289l6.1267548-0.2012024l-0.0057983,41.4999695L182.6290283,310.7993469z
	 M176.5079803,311.3349915l6.1208954,0.162262l-0.0010071,7.2260742l-6.1199646-0.2353516v-7.1530457L176.5079803,311.3349915z
	 M183.2211456,269.2806702l0.6483154-0.0212708l0.006958,49.5126343l-0.6622314-0.0255127l0.006958-49.4660034V269.2806702z
	 M184.4626312,318.7946472l-0.0068817-49.5539246l0.3084106-0.0101929v41.9903564l0.0026703-0.000061v0.000061l0.0509644-0.0010986
	v7.5890503l-0.3551636-0.0136414V318.7946472z M192.1733856,311.0587463l-6.7155609-0.186615v-41.6651917l6.7211609-0.2207031
	l-0.0055389,42.0716248L192.1733856,311.0587463z M185.4040985,311.5583191l6.769165,0.1880798l-0.0009613,7.3448181
	l-6.7680817-0.2604065v-7.2724304L185.4040985,311.5583191z M192.7651215,268.96698l0.6486359-0.0212708l0.006546,50.1922607
	l-0.6618195-0.0255127l0.0066376-50.1455994V268.96698z M194.0066071,319.160553l-0.0066376-50.2348938l0.3618011-0.0119324
	v50.2601929l-0.3551636-0.0137024V319.160553z M201.062973,311.2966919l-6.1150513-0.168335V268.894165l6.120636-0.2010193
	l-0.0055847,42.603302V311.2966919z M194.9479218,311.81604l6.1148987,0.1682739l-0.000946,7.4476929l-6.1139679-0.23526v-7.3806458
	L194.9479218,311.81604z M201.6535034,268.6743774l0.6502686-0.0214233l0.0066223,50.8265381l-0.6635284-0.0254822
	l0.0066376-50.7799072V268.6743774z M202.8953094,319.5022583l-0.0066071-50.8692017l0.3630829-0.0119324v50.8945312
	l-0.3564758-0.0137024V319.5022583z M209.9384766,311.5351257l-6.1018372-0.1616821v-42.7712097l6.1079559-0.2006531
	l-0.0061493,43.1336975L209.9384766,311.5351257z M203.8366394,312.0610657l6.1016846,0.1616821l-0.0010681,7.5502625
	l-6.100647-0.2345886v-7.4773865L203.8366394,312.0610657z M210.5295258,268.3823853l0.6496582-0.0213623l0.0065765,51.4595337
	l-0.6635284-0.0255127l0.0072937-51.4128723V268.3823853z M211.7707367,319.8432007l-0.0066071-51.5007935l0.3630676-0.0119324
	v51.5274658l-0.3564606-0.0137024V319.8432007z M219.4833679,311.7936096l-6.7711639-0.1820374v-43.3015442l6.7767487-0.2225647
	l-0.0055237,43.7053528L219.4833679,311.7936096z M212.712204,312.2991943l6.7710114,0.1820374l-0.0009308,7.6586304
	l-6.7701111-0.2604675v-7.5802917L212.712204,312.2991943z M220.0660248,320.146637l0.0066223-52.0778198l0.6516571-0.0213928
	l0.006546,52.1404419l-1.0732574-0.0412292H220.0660248z M221.3144684,320.2103882l-0.006546-52.1817627l0.3643646-0.0119934
	v52.2084045l-0.3578186-0.0137024V320.2103882z M228.3729553,312.039093l-6.1170197-0.1677856v-43.8746033l6.1224976-0.2010498
	l-0.0055389,44.2436829L228.3729553,312.039093z M222.2559357,312.5589905l6.1168823,0.1677856l-0.0010223,7.7550964
	l-6.1158295-0.2352905v-7.6875305L222.2559357,312.5589905z M228.9620361,267.776947l0.6509552-0.0213318l0.0072327,52.7747498
	l-0.6648102-0.0255737l0.0066223-52.7267761V267.776947z M230.2038574,320.5516968l-0.0072327-52.8160706l0.3650513-0.0119324
	v52.8414001l-0.3578186-0.0137939V320.5516968z M237.2483673,312.2771606l-6.1030426-0.1616821v-44.4102478l6.1086273-0.200592
	l-0.0055237,44.7727051L237.2483673,312.2771606z M231.1453247,312.8031616l6.10289,0.1616821l-0.0009308,7.8578491
	l-6.1019745-0.2347412v-7.7848206L231.1453247,312.8031616z M237.8374329,267.4854431l0.6516418-0.0214233l0.0066376,53.4077148
	l-0.6648254-0.0255737l0.006546-53.3597107V267.4854431z M239.0793304,320.893158l-0.0066223-53.4490356l0.3643799-0.0119324
	v53.4743347l-0.3577576-0.0137939V320.893158z M246.1236877,312.522522l-6.1030426-0.1678162v-44.941925l6.1085052-0.200592
	l-0.0055084,45.3097229L246.1236877,312.522522z M240.0206451,313.0424194l6.10289,0.1677246l-0.0010071,7.9539185
	l-6.1019897-0.2346802v-7.8869019L240.0206451,313.0424194z M246.7127533,267.1929932l0.6516418-0.0214233l0.0065613,54.0406799
	l-0.6648254-0.0255432l0.0066223-53.9927368V267.1929932z M247.9545898,321.2336731l-0.0065613-54.0820007l0.3643799-0.0119934
	v54.1072998l-0.3578186-0.0137939V321.2336731z M255.6752014,312.7805481l-6.7791595-0.1882324v-45.4709778l6.7847748-0.2228394
	l-0.0055847,45.8827209L255.6752014,312.7805481z M248.8960419,313.2799683l6.7790375,0.1882629l-0.000946,8.0485229h0.5822754
	l0.0065918-54.6376648l0.6463318-0.0212097l0.0066223,54.7203064l-8.0199432-0.3085327v-7.9898987L248.8960419,313.2799683z
	 M258.4396057,266.8069153l4.8624878-0.159668l0.0386963,46.4010925l-4.9011841-0.1330872V266.807312V266.8069153z
	 M129.8242798,268.3768005v-8.2945251l0.3617096-0.0184937v8.3016052l-0.3617096,0.011322V268.3768005z M128.5894012,268.4151917
	v-8.2697449l0.6485748-0.0331116v8.2828064l-0.6485748,0.0201721V268.4151917z M75.3070221,262.8670959v7.2082214
	l-0.6712418,0.0208435v-7.1947632L75.3070221,262.8670959L75.3070221,262.8670959z M75.8705902,262.8383179l0.384758-0.0196533
	v7.2271729l-0.384758,0.0119324v-7.2194214V262.8383179z M76.8190002,262.7898254l6.1106339-0.3120728v7.3601379
	l-6.1106339,0.1903687v-7.2383423V262.7898254z M83.5158997,262.4477844l0.6485825-0.0331421v7.3846436l-0.6485825,0.0202637
	v-7.3718872V262.4477844z M84.7507706,262.3847656l0.3617172-0.0184937v7.4035645l-0.3617172,0.011261v-7.3963928V262.3847656z
	 M85.698761,262.3362732l6.1133041-0.3121948v7.5371094l-6.1133041,0.1904297v-7.4152832V262.3362732z M92.3983231,261.9940796
	l0.6415482-0.0328064v7.561615l-0.6415482,0.0199585v-7.5488281V261.9940796z M93.6261749,261.9313354l0.3621063-0.0184631
	v7.5804138l-0.3621063,0.011261V261.9313354L93.6261749,261.9313354z M94.574585,261.8829346l6.8020935-0.3474426v7.7276306
	l-6.8020935,0.2119751v-7.5921326V261.8829346z M101.9629364,261.5055542l0.6485672-0.0331421v7.7521973l-0.6485672,0.0201721
	V261.5055542z M103.1978149,261.4425049l0.3617859-0.0184937v7.7710876l-0.3617859,0.011261v-7.763916V261.4425049z
	 M104.1458206,261.3940735l6.1132965-0.3122864v7.9046326l-6.1132965,0.1904297v-7.7828369V261.3940735z M110.8320541,261.0524902
	l0.6485672-0.0330811v7.928894l-0.6485672,0.0202332v-7.9160767V261.0524902z M112.0802155,260.988739l0.3617706-0.0184937
	v7.9480591l-0.3617706,0.011261v-7.9408569V260.988739z M113.0149155,260.9410095l6.1182327-0.3124695v8.0814514
	l-6.1182327,0.1905823V260.94104V260.9410095z M119.7087479,260.5991516l0.6526031-0.0333557v8.105835l-0.6526031,0.0204163
	v-8.092926V260.5991516z M120.9369354,260.5363464l0.3724213-0.0190125v8.1248779l-0.3724213,0.0115967v-8.1174316V260.5363464z
	 M121.8850021,260.487915l6.1184921-0.312439v8.2579956l-6.1184921,0.1906433v-8.1362305V260.487915z M130.7726898,260.0339966
	l1.9281158-0.0985413v8.3516846l-1.9281158,0.0600891v-8.313324V260.0339966z M133.3889465,259.9003296l1.3557129-0.0692444
	v8.3924866l-1.3557129,0.0421753V259.9003296z M135.4382629,259.7956848l2.1365204-0.1091614v8.4488525l-2.1365204,0.0665588
	v-8.4062195V259.7956848z M138.1610565,259.6566162l0.6351318-0.0324707l0.006424,8.4729309l-0.6415558,0.019989V259.6566162
	L138.1610565,259.6566162z M139.3888092,268.0787964l-0.0064087-8.4847107l0.3686066-0.0187988v8.492157l-0.3621826,0.011322
	L139.3888092,268.0787964z M140.3372345,259.5454712l6.1130371-0.3122864l-0.006485,8.625946l-6.1065063,0.190155v-8.5037537
	L140.3372345,259.5454712z M147.0365295,259.2032471l0.6351471-0.0324402v8.6499023l-0.6416321,0.02005l0.006485-8.6375427
	V259.2032471z M148.2579651,259.1408691l0.3617706-0.0184937v8.6688538l-0.3617706,0.011261v-8.6616516V259.1408691z
	 M149.2059631,259.0924072l6.1130371-0.3122253l-0.006485,8.8026428l-6.1065063,0.1902161v-8.6805725L149.2059631,259.0924072z
	 M155.9052582,258.7502441l0.6353455-0.0324402l0.0062866,8.8264771l-0.6481018,0.0201721l0.0064697-8.8142395V258.7502441z
	 M157.1331024,267.5259705l-0.0061951-8.8382263l0.3615723-0.0184937v8.8457031L157.1331024,267.5259705L157.1331024,267.5259705z
	 M158.0746918,258.6394043l6.8088989-0.3478699l-0.0066223,8.9931641l-6.8023682,0.2119141v-8.8572693L158.0746918,258.6394043z
	 M165.469986,258.2615967l0.6350708-0.0324402v9.0173035l-0.6416779,0.02005L165.469986,258.2615967z M166.6913605,258.1992798
	l0.3617706-0.0184937v9.0361023l-0.3617706,0.011261v-9.0289001V258.1992798z M167.6394196,258.1507874l6.1059723-0.3119202
	l-0.0062866,9.1697693l-6.0997009,0.1900024v-9.047821L167.6394196,258.1507874z M174.3316498,257.8089905l0.6353455-0.0324402
	l0.0066071,9.1936035l-0.6482239,0.0201721L174.3316498,257.8089905L174.3316498,257.8089905z M175.559906,266.9518433
	l-0.0066071-9.2053528l0.3685303-0.0188293v9.2129211L175.559906,266.9518433z M176.5081024,257.6977234l6.1334381-0.3132935
	l-0.0064392,9.3469849l-6.1268921,0.190918v-9.2245178L176.5081024,257.6977234z M183.2276764,257.3545227l0.6353302-0.0324707
	l0.006424,9.3708496l-0.6480408,0.0201721l0.0062866-9.3585815V257.3545227z M184.455658,266.6747131l-0.0063477-9.3825684
	l0.3148956-0.0161133v9.3889771l-0.308548,0.009613V266.6747131z M185.4577484,257.2405701l6.7279663-0.3436279
	l-0.0067596,9.5371399l-6.7211456,0.2093811v-9.402832L185.4577484,257.2405701z M192.7719727,256.8670349l0.6353607-0.0325012
	l0.0064087,9.5610046l-0.6484528,0.0202026l0.0066833-9.5487366V256.8670349z M193.9999542,266.3773804l-0.0064087-9.5727234
	l0.3682709-0.0187378v9.5801697l-0.3618622,0.011261V266.3773804z M194.9480286,256.7558899l6.1243591-0.3128357
	l-0.006958,9.7140808l-6.1174469,0.1906433v-9.5918884H194.9480286z M201.6640015,256.4128418l0.6292725-0.0321655
	l0.006958,9.7380676l-0.6431885,0.02005l0.006958-9.7258301V256.4128418z M202.8918304,266.1001892l-0.006958-9.7498474
	l0.3635712-0.0185852v9.7572632l-0.3566132,0.0110474V266.1001892z M203.8400574,256.3016052l6.106369-0.3118896
	l-0.0062714,9.8909302l-6.1000977,0.190094V256.3016052L203.8400574,256.3016052z M210.5406799,255.9593048l0.6273193-0.0320435
	l0.0062561,9.9149323l-0.6398468,0.0199585l0.0062714-9.9027863V255.9593048z M211.7685394,265.8237305l-0.0062866-9.9267883
	l0.360199-0.0184021v9.9341125l-0.3539124,0.0110168V265.8237305z M212.7167358,255.8481598l6.7733002-0.3459625
	l-0.006958,10.0810852l-6.7663574,0.2108459v-9.9459839L212.7167358,255.8481598z M220.0856323,255.4717865l0.6253052-0.0319824
	l0.0070343,10.1049347l-0.6392975,0.019928l0.006958-10.0929565V255.4717865z M221.3135376,265.5262146l-0.006958-10.1167908
	l0.3595276-0.0183411v10.1241455L221.3135376,265.5262146L221.3135376,265.5262146z M222.2616882,255.3606567l6.1143646-0.3123474
	l-0.0062103,10.2580566l-6.1082306,0.1903076v-10.1361389L222.2616882,255.3606567z M228.9771271,255.0176239l0.6206055-0.0317688
	l0.0061951,10.2821503l-0.6330872,0.0197144l0.0062866-10.27005V255.0176239z M230.2048187,265.249176l-0.0062103-10.2940521
	l0.3542786-0.0181427v10.301239l-0.3480682,0.0108337V265.249176z M231.1537933,254.9063721l6.0991669-0.3115387
	l-0.0063477,10.4350128l-6.0927582,0.1898193v-10.3132172L231.1537933,254.9063721z M237.8512268,254.5643005l0.6232605-0.0318451
	l0.0070496,10.4588776l-0.6366577,0.0198364l0.0063477-10.4468842V254.5643005z M239.0796967,264.9726868l-0.006958-10.4707489
	l0.3569336-0.01828v10.4781952l-0.3499756,0.0109253V264.9726868z M240.0278931,254.4530334l6.1003723-0.3115997
	l-0.006958,10.6118317l-6.0934448,0.1897583v-10.4900513L240.0278931,254.4530334z M246.7279816,254.1108246l0.6219788-0.0318451
	l0.0062866,10.6358337l-0.6352997,0.0198364l0.0070343-10.623703V254.1108246z M247.9558258,264.6960144l-0.0063324-10.6476898
	l0.35495-0.0180664v10.654892L247.9558258,264.6960144L247.9558258,264.6960144z M248.9040375,253.9996796l6.7654266-0.3455963
	v10.8016052l-6.7654266,0.2108154v-10.6669006V253.9996796z M256.2744141,253.6231995l0.6164551-0.0315247l0.0068665,10.8258667
	l-0.6233215,0.0194092v-10.813736V253.6231995z M257.5027161,264.3986816l-0.006958-10.8378448l0.3502502-0.0179443v10.845047
	l-0.3432922,0.0107117V264.3986816z M258.4509277,253.5119324l4.8399658-0.2472076l0.0091553,10.9532318l-4.8491821,0.1510925
	v-10.8571625L258.4509277,253.5119324z M184.7886658,191.2093811l-50.0223999,6.2122498v57.6439209l-1.4006653,0.0715942
	v-58.1116638l51.4224091-6.4763947v0.660202L184.7886658,191.2093811z M135.4155884,197.9942474l49.3717346-6.1313782v60.6461792
	l-49.3717346,2.5230713v-57.0375977V197.9942474z M185.432663,191.129425v-1.3100586l-52.7104034,6.6388245v58.7126312
	l-20.6425552,1.0549164v-44.3143311l0.044342,0.0112457v-14.9619904l-0.044342-0.0132751V181.749527
	c1.3871918-0.7537537,4.7033081-2.0470734,8.2084961,0.3190918l0.1858978,0.1165314h0.0156174
	c0.8864822,0.5759125,7.6882172,4.5806732,14.9812622-2.4739075l0.0536194-0.0655823
	c0.5563507-0.8805695,2.3670502-2.4725647,4.8591766-2.9949188c2.0573273-0.4318085,4.0202484-0.0299377,5.8810272,1.2261658
	l0.1778412,0.1024933c0.9750214,0.6252136,7.7382355,4.5233765,14.9612579-2.4908295l0.0506134-0.0626068
	c0.5583344-0.8809052,2.3741302-2.4725647,4.8697052-2.9920044c2.0586548-0.4284363,4.0233154-0.0235901,5.8357086,1.2038879
	l0.1865234,0.1135254h0.0109863c0.8870697,0.5762939,7.6944885,4.5879974,14.9812622-2.4802856l0.0613098-0.0795746
	c0.5752411-0.8879395,2.4140015-2.4805603,4.9079742-2.9842682c2.0486603-0.4154358,3.9979858-0.0023193,5.7961121,1.2231903
	l0.088623,0.0565796c0.0826263,0.0502625,8.2798309,4.9398041,16.0425873-2.5825043l0.0500031-0.0615692
	c0.1145477-0.178833,0.2404785-0.3412476,0.3897247-0.5013885c1.8041382-2.0148468,6.2245026-4.1325378,10.4016876-1.2354736
	l0.1779175,0.1065063l0.002655-0.001297c0.0479584,0.0306091,0.1058807,0.0659332,0.1725311,0.1045227
	c1.2411346,0.7457733,7.7827454,4.1208191,14.7359161-2.6320648l0.0532684-0.0662842
	c0.098587-0.1598053,0.2278595-0.3252869,0.3997192-0.5097351c1.8041229-2.006424,6.2205048-4.113205,10.3891449-1.2221527
	l0.1085358,0.0609436h0.0020599c0.0592804,0.0389404,0.1458435,0.0949249,0.2571106,0.1634369
	c1.7056122,1.0131836,7.7692871,3.8228455,14.4039307-2.3443756l-0.0092163,20.8199463l-68.0049744,8.5696869v54.8682098
	l65.5143127-3.6728058l0.0076599,9.1481628l-77.8515778,3.9786377v-61.3471222l-0.0023193,0.000351L185.432663,191.129425z
	 M69.8012772,191.7992401c2.6027832,0.9187012,7.3427582,1.5241852,12.3980637-3.0954132l29.2358475,8.7681122v13.5654907
	L69.8007431,200.451828v-8.6521912L69.8012772,191.7992401z M92.9838181,186.1748962
	c0.1695175,0.0975647,0.3320999,0.2014008,0.5166397,0.3289185c0.0819321,0.050293,8.265152,4.9412689,16.0332489-2.5801086
	l0.0536194-0.0652466c0.2935638-0.4643097,0.9325104-1.1390533,1.8930588-1.7567139v14.6421814l-28.7238464-8.6091461
	c1.1802216-1.7118225,5.7327652-4.6504974,10.2275467-1.9601898L92.9838181,186.1748962z M291.4494324,153.8642883
	c-7.3131409,6.9814148-13.8186035,2.4429779-14.0946045,2.2459106l-0.1112671-0.0649261h-0.0046387
	c-0.027832-0.0188141-0.0551758-0.0357971-0.0825806-0.0539246v-24.2619476l14.2905884-2.6629791l-0.011322,23.610321
	l0.0126343,1.1881256L291.4494324,153.8642883z M276.4695129,155.5906219
	c-0.434021-0.2385712-0.8717346-0.4493256-1.3111572-0.5974121c-1.3357239-0.460434-2.7261047-0.5529633-4.1331787-0.278656
	c-2.1972961,0.4158478-4.0758362,1.6766205-5.0566406,2.8045044v-23.7049408l10.5010071-1.9568634v23.7342529
	L276.4695129,155.5906219z M265.2810364,158.2879944c-6.0795593,5.622345-11.5952759,3.3376617-13.3865967,2.3275757v-24.1793213
	l13.3865967-2.4945526v24.3458862V158.2879944z M251.2064362,160.1964874
	c-4.0691681-2.6797791-8.3130188-1.0627594-10.5008698,0.8678131v-22.5429382l10.5008698-1.9568634v23.6316376V160.1964874z
	 M240.0178375,161.7501221c-0.1409912,0.1603546-0.2642212,0.3157501-0.3616943,0.4681396
	c-6.2119598,6.0063782-11.8651276,3.6546783-13.7065887,2.6050262v-23.5516815l14.0679169-2.6215515V161.75L240.0178375,161.7501221
	z M225.2619171,164.4047241c-4.0753174-2.6761932-8.3156891-1.0457153-10.500351,0.8906555v-21.9392853l10.500351-1.9567413
	v23.0053406V164.4047241z M214.0739594,165.9944611c-0.1227417,0.1419678-0.2426605,0.2841797-0.3464203,0.4425812
	c-7.0914459,6.8443146-14.3052673,2.9701385-15.0865936,2.5178833v-22.5949097l15.4332428-2.875946v22.5109558
	L214.0739594,165.9944611z M197.9540558,168.5304565c-1.7945251-1.0525818-3.7785034-1.4026489-5.7825012-0.9981689
	c-2.1227875,0.4291229-3.7759857,1.5646973-4.7189026,2.529068v-21.616806l10.5014038-1.9568634v22.0418854V168.5304565z
	 M186.7658386,170.8656311c-7.1370239,6.8353729-13.5119324,2.6733856-14.0692596,2.2862854v-21.956604l14.0692596-2.6218262
	v22.2924194V170.8656311z M172.0099182,172.7397614c-1.8093262-1.0550537-3.8093109-1.3994598-5.8254395-0.97966
	c-2.1118469,0.4397888-3.7450409,1.5680237-4.676239,2.5267944v-21.0065002l10.5016785-1.9569855v21.4169159V172.7397614z
	 M160.8213043,175.0917206c-7.169281,6.8598938-13.5719299,2.6170197-14.0692596,2.2685394v-21.330307l14.0692596-2.6216736
	v21.6834259V175.0917206z M146.0653839,176.9487762c-1.8089142-1.0523834-3.8079834-1.3941193-5.8227692-0.9715729
	c-2.1322479,0.4469757-3.7738495,1.5957336-4.6785126,2.5374603v-20.400177l10.5014038-1.9568634v20.7906342
	L146.0653839,176.9487762z M134.877182,158.2422943v21.0824432c-7.2383652,6.8996124-13.6839294,2.5205383-14.0692596,2.2465668
	v-20.706665l14.0692596-2.6216736V158.2422943z M275.3431091,181.526123l17.9252319-2.1776733v54.293869l-17.9212341,1.0606537
	l-0.004425-53.1758575L275.3431091,181.526123z M120.1172714,160.9913483v20.1683044
	c-3.7166443-2.1659393-7.1602325-0.7030182-8.5090179,0.0606842c-0.7787399,0.4357605-1.477066,0.9722748-1.9923935,1.5065918
	v-19.7778778l10.5012817-1.9568634L120.1172714,160.9913483z M108.9290695,183.5436096
	c-7.3251572,6.9826355-14.7585907,2.5662384-15.0559235,2.3843689c-0.1287384-0.0891876-0.2528305-0.1636353-0.377739-0.2402039
	v-19.7352295l15.4345856-2.8760681v20.4668121L108.9290695,183.5436096z M92.8078232,185.3099213
	c-4.8312988-2.4845581-9.4618149,0.6557617-10.674202,2.5134735l-0.0643387,0.0605621
	c-0.017128,0.0162201-0.034584,0.0314331-0.0516434,0.0474548l-0.0016403-0.0004883l-0.1267548,0.1179504l-0.2649689,0.2259674
	v-20.1110229l11.1835403-2.0839844v19.2288513L92.8078232,185.3099213z M80.937355,188.877594
	c-4.5843735,3.7109222-8.7716904,3.0612946-11.0539398,2.2196503v-20.7453156l11.0539398-2.0598755v20.5854034V188.877594z
	 M65.873436,242.5584869l-0.0194473-52.7534332c0.5775604,0.2288818,1.1442108,0.5304565,1.6877289,0.9079895l0.1605225,0.0908661
	l0.0036774-0.0012817c0.2457352,0.1578217,0.7964249,0.480072,1.5759888,0.7988739v51.6473999l-3.3535843-0.6112671
	l0.0000763-0.085556l-0.054985,0.0055084L65.873436,242.5584869z M69.7968826,201.1611481l41.6784439,10.5970459v44.4968719
	l-39.4811172,2.0177917l-0.2741241,0.0152588v-14.5942078l-1.9234543-0.3505249v-42.1835632L69.7968826,201.1611481z
	 M184.781601,253.1150513v0.0059357h0.6482239v-0.0390778l77.8529205-3.9827728l0.0029297,3.5655518l-159.145813,8.1283722
	v-0.0755005h-0.5862198v0.1054077l-0.3617859,0.0184937v-0.0692749h-0.5862885v0.0992126l-0.6485672,0.0331421v-0.0710449
	h-0.5862198v0.1010437l-6.8021011,0.3473816v-0.0735779h-0.5862961v0.1035156l-0.362114,0.0185242v-0.0740967h-0.5862961v0.1040344
	l-0.6415482,0.0328064v-0.0756226h-0.5862961v0.1055603l-6.1132965,0.3121948v-0.0701599h-0.5862885v0.1000977l-0.3617172,0.0184631
	v-0.0706482h-0.5862961v0.1005859l-0.6485748,0.0331421v-0.0724792h-0.5862961v0.102478l-12.5565948,0.6413269l-0.4946823-0.174469
	c-0.8088226-0.31427-1.1512299-0.7271118-1.2219086-1.4727478c-0.0665817-0.7065125,0.2292252-1.4082336,0.7755432-1.8544006
	l115.3553848-5.9012451L184.781601,253.1150513z M74.066185,262.9304199v7.1837158l-2.3467865,0.0730896v-7.1369324
	L74.066185,262.9304199z M127.9979095,268.9606628v0.0033264h0.5862885v-0.0216064l0.8237915-0.0256958h0.411087v-0.0128174
	l0.9138947-0.0284424h0.0341034v-0.0010986l132.5286407-4.1291809l0.0011597,1.3758545l-193.2656403,6.3472595
	c-0.4260406-0.3761597-0.6375961-0.740387-0.6122894-1.0567017c0.026329-0.3276062,0.2977829-0.5566101,0.410759-0.6385193
	l58.1703568-1.8124084L127.9979095,268.9606628z M74.0528564,272.8626709l-0.006073,38.2791443l-2.3273163,0.1352844v-38.3377991
	l2.3333206-0.0766907L74.0528564,272.8626709z M71.7195358,311.965332l2.3271866-0.1352844l-0.000473,2.7132263
	l-2.3267899-0.0895081v-2.4884338H71.7195358z M203.2455139,320.0469055v0.0126038h0.3281403l59.7689972,2.2997437
	l0.001709,2.0654602l-194.3723145-6.7768555l-0.5499954-0.1538391c-0.8034363-0.2563477-1.1195602-0.5626221-1.1658249-1.1305847
	c-0.043663-0.548645,0.2714462-1.0812988,0.8453903-1.4348755l0.8018112-0.0506287l134.3326111,5.1690063L203.2455139,320.0469055z
	 M71.7195511,318.2704773l191.6256714,6.6885376l0.0018311,2.1879272l-191.6256561-8.4332275v-0.4432068L71.7195511,318.2704773z
	 M258.4385376,321.6367798v-8.1215515l4.9017029,0.1330261l0.0068054,8.1773987l-4.9084778-0.1888733H258.4385376z
	 M263.4455566,235.0123444l-61.7676697,4.0440521v-48.5851746l64.090332-7.7813568l-0.0229492,52.1191254l-2.2989197,0.2030182
	L263.4455566,235.0123444z M266.3711548,158.0982513c0.8106689-1.0032349,2.458374-2.15448,4.4211731-2.6216888v78.8876038
	l-4.454895,0.3934174l0.0336914-76.6582336L266.3711548,158.0982513z M293.9190063,234.2527618v-55.6357574l-18.574585,2.2566833
	l-0.0001831-1.8488007l21.5985413-2.7236176v60.5195923l-17.8052368,0.9967499v-1.4962006l-2.7425232-1.0317841
	l17.5239258-1.0369263L293.9190063,234.2527618z M382.7185059,300.9741211l15.5039062,0.165741l-66.9396362,28.9898682
	l-52.14505-2.2941284v-13.7320557l45.6717529,1.2386475l0.0003967-0.0149841l0.008667,0.0001831l0.0002136,0.018158h0.0426331
	l0.0615234-0.0152893l0.0717163,0.0019226l0.3078003,0.0080566v-0.104248l57.4157104-14.2624207L382.7185059,300.9741211z
	 M381.5032654,209.0660248v91.3084259l-56.1783752,13.8786011V189.4280853l0.022644,0.0236664v-20.3362122l-0.022644-0.0277557
	v-71.908989l56.1783752,111.8858109V209.0660248z M285.1237793,121.3835144l2.6596069,3.4886398l-145.065918,27.2868423
	l-3.6166382-1.8017426l146.0258789-28.9738846L285.1237793,121.3835144z M286.071167,65.3253326l2.2557068,3.7230453v54.4977417
	l-2.2557068-2.7949142V65.3246613V65.3253326z M137.7252808,102.5810776l147.0658875-38.7482071v56.5285721L137.725296,149.3486328
	C137.725296,149.3486328,137.725296,102.5810776,137.7252808,102.5810776z M137.0810699,136.8692017v12.8714752l0.0339661,0.3845367
	l0.04953-0.0098114l5.4514313,2.716156l146.3059082-27.5187225l0.0461731,0.0572815v-21.4302521l35.711792-7.7421722v72.1035461
	l-32.5424805-39.8795624l0.0011597-0.1840973l-0.1313782,0.0244904l-0.1091614-0.1337128v0.1540375l-179.8256989,33.509903
	v-19.5020294l25.009201-5.4217987L137.0810699,136.8692017z M42.0095749,194.358551l-1.9686584-1.2612152v-17.1833801
	l14.9492569-2.7857208v19.9750977c-1.4699936,1.1871796-3.0031853,2.0204468-4.5753098,2.4727173l-0.0639954,0.0184174
	c-4.7142448,1.3130493-8.2900887-1.2001495-8.3410225-1.2362213L42.0095749,194.358551z M51.7127228,195.8580933
	c1.7309227-0.688858,3.40345-1.8108215,4.9859695-3.3452759L56.75,192.4496307
	c0.5066757-0.8015594,1.8013268-1.9071655,3.5034485-2.5725098l-0.005188,8.1530151l-8.535553-2.1722107L51.7127228,195.8580933z
	 M60.7685432,189.6902008c1.5319901-0.500061,3.1038475-0.5228882,4.5679741-0.0660095l0.0194397,52.9866333l-4.6209068,0.465744
	l0.0335579-53.3863983L60.7685432,189.6902008z M57.8193588,312.8001709l0.0120811,5.300415l-50.8943977-2.2393799
	l50.8823929-3.0608826L57.8193588,312.8001709z M0.676999,319.3314819v-3.0582275l57.157032,2.5145264l0.0085335,3.4285583
	L0.677533,319.3314819H0.676999z M65.2486572,318.7841797l-0.006691,5.1242371l-6.7724953-0.5492859L58.2858849,243.95047
	l7.0170326-0.7077179l-0.054306,75.5415497L65.2486572,318.7841797z M65.8653717,323.9146729l0.060585-80.6425934
	l3.353981,0.6113129v0.0098877h0.0545731l1.760788,0.3209381v14.1091461l-1.8923874,0.1057739l-0.0709457,0.0532532
	c-0.7555618,0.5659485-1.1695862,1.5028687-1.0809708,2.443634c0.1178894,1.2464294,0.918396,1.7112732,1.6111908,1.9795227
	l0.6155548,0.2177124l0.8174973-0.0417175v7.1245422l-1.3621292,0.0423889l-0.1238861,0.0353088
	c-0.0270233,0.0159607-0.6605911,0.3921814-0.7191849,1.0793457c-0.044693,0.5206909,0.2494888,1.0499878,0.8737106,1.5726929
	l0.0772934,0.0646362l1.2541809-0.0412292v41.4706116l-2.1951904-0.0844421l-0.8937073,0.0545959l-0.1179504,0.0360107
	c-0.7771759,0.451416-1.2225266,1.2064514-1.1618729,1.9708557c0.0819397,1.0007629,0.8221436,1.3682556,1.5449295,1.5986633
	l0.6219635,0.1664734l2.2018585,0.0768738v5.1166687l-5.2301025,0.5487976L65.8653717,323.9146729z M71.7184067,322.9159851
	v-3.51474l191.6256409,8.4332275l0.0039673,4.7583008l-191.6256409-9.6767883H71.7184067z M264.0107422,334.5387268
	l-0.083313-98.9106598l8.8154297-0.7783508l0.1047668,92.7155914l-0.0014954-0.000061v-0.0033569v0.0033569l-0.0080566,0.6864319
	l0.0080566,0.0003662v0.0036621h0.0022278l0.0077209,6.8175354l-8.8453979-0.5333252L264.0107422,334.5387268z
	 M278.4813232,333.460022l-4.9580994,1.4808655V234.9095306l4.9580994,1.866394v96.6839447V333.460022z M279.1355591,333.3921814
	v-4.8675842l52.3170776,2.3026733v5.2081909l-52.3170776-2.6434021V333.3921814z"/>
<path class="st3" d="M349.1730042,205.3930511c0.0137939,1.3786774,0.0085754,2.7574768,0.0379944,4.1361237l0.0022583,0.1057587
	l0.0646057,0.0677185l3.2394409,3.3965607c1.0762329,1.0930939,2.1223755,2.1839447,3.124115,3.249588
	c-1.0555725-1.2075195-2.0666199-2.3899536-3.047699-3.569931l-2.8645325-3.3436737
	c0.0272217-1.3473358,0.023407-2.6947021,0.0368347-4.042038l0.0216064-3.2470703
	c1.8715515,2.2415009,3.7182312,4.5032501,5.629303,6.7123871c0.0275574,1.2010193,0.0545654,2.3934021,0.1088257,3.6233673
	c0.0551147,1.2625275,0.0924377,2.5454559,0.1156311,3.8670807c0.0231934-1.2036285,0.0605164-2.4457855,0.1155701-3.7085266
	c0.055542-1.2662201,0.0825806-2.5717163,0.1109009-3.8670807l0.0016479-0.0754852l-0.0530701-0.0682526
	c-1.9916077-2.5593109-4.0670471-5.0497437-6.0963745-7.5781555l-0.5808411-0.723526l0.0062256,0.9290466l0.0274658,4.1361237
	L349.1730042,205.3930511z"/>
<path class="st3" d="M352.7996521,214.4944458l-0.5682373-0.6231079l0.0064392,0.8431396l0.0301514,3.9503632
	c0.012085,1.3167725,0.0119629,2.6335449,0.052002,3.9503632l0.0033264,0.109787l0.0704041,0.0639954l2.7531738,2.5032196
	c0.9119568,0.7982025,1.7965698,1.5990601,2.6407776,2.3767548c-0.897644-0.9068909-1.7550659-1.7905731-2.5848999-2.6768646
	l-2.3973083-2.472702c0.0372314-1.2848969,0.0384521-2.5697174,0.0502014-3.8545532l0.0240173-3.1400452l2.0794373,2.2100372
	c0.8599548,0.9101868,1.7102966,1.8292084,2.5878296,2.7228241l0.111908,3.4697418
	c0.0610352,1.2200317,0.1004639,2.4577789,0.1287842,3.7414093c0.0283203-1.1538391,0.067749-2.3535614,0.1288147-3.5709839
	l0.1152039-3.7415619l0.0026855-0.088028l-0.0676575-0.077713c-0.8421021-0.9670868-1.7146912-1.9059601-2.576416-2.8548737
	l-2.5907593-2.8414001L352.7996521,214.4944458z"/>
<path class="st3" d="M364.0795898,208.6445007l0.0310364,1.0990295l0.1595154,5.648468l0.001709,0.0608368l0.032959,0.0402222
	c1.2721252,1.55336,2.5448914,3.0276947,3.7090454,4.5079193c-1.2086182-1.5752106-2.3109131-3.1557617-3.4127808-4.6602173
	l0.132019-4.6754303l3.1319885,4.0869598c0.0479736,1.6943512,0.1383057,3.4433441,0.1488037,5.2488251
	c0.0106506-1.7107391,0.1030273-3.4779816,0.1506348-5.302002l0.0011292-0.0445862l-0.0296631-0.0436401l-3.4381409-5.0569305
	l-0.6182251-0.9093475L364.0795898,208.6445007z"/>
<path class="st3" d="M358.8396301,199.0367279l0.0013428,0.0653992l0.033905,0.046814
	c1.9525146,2.6944427,3.912384,5.2924042,5.7379761,7.8922272c-1.879303-2.7176208-3.6263733-5.4365997-5.3794556-8.0615997
	l0.1062012-5.2777405l5.1567993,7.5760193c0.0371094,1.8768921,0.1095886,3.7978058,0.1165466,5.7633209
	c0.006958-1.8887787,0.0804749-3.8221893,0.1173706-5.8007812l0.0006104-0.0325775l-0.0195923-0.0316315l-5.403595-8.673233
	l-0.6196594-0.9945831l0.0236206,1.1713715L358.8396301,199.0367279z"/>
<path class="st3" d="M357.9462585,250.2337189l-0.4971313-0.3154144l0.0045166,0.5904694l0.0262451,3.4519958
	c0.0143127,1.1506348,0.0083313,2.3013458,0.0393066,3.4520111l0.004425,0.1650391l0.1362305,0.0643921l3.4503784,1.6291809
	l3.3206787,1.5305786c-1.1480713-0.6300049-2.2513428-1.2390747-3.3334656-1.8585205l-3.0608826-1.681427
	c0.0266418-1.1003723,0.0233154-2.2008362,0.0370178-3.3011322l0.0219727-2.8816681
	c2.0350647,1.2226868,4.052002,2.4749603,6.1123657,3.6565399c0.0272522,0.9585114,0.0513611,1.9139557,0.1004639,2.8988495
	c0.0519104,1.0331116,0.0887146,2.0805359,0.1225891,3.1673889l0.1226196-3.0302429
	c0.0513611-1.0361023,0.0754089-2.1041107,0.1042175-3.1673889l0.0032654-0.1196594l-0.111145-0.0735016
	c-2.1739807-1.4367676-4.4042358-2.7819977-6.6035767-4.1774445L357.9462585,250.2337189z"/>
<path class="st3" d="M353.3063049,258.0958557l-0.4622498-0.2211304l0.0039062,0.5140991l0.0246582,3.2647705
	c0.0116577,1.0883179,0.0125732,2.1766052,0.0331421,3.2649231l0.0036316,0.191803l0.1699524,0.0568542l3.699585,1.2372742
	l3.565155,1.1528625l-3.6080933-1.4859619l-3.2983704-1.3306885c0.0175476-1.0290222,0.0202637-2.0580139,0.0313721-3.0871582
	l0.0209045-2.76651c2.2104187,0.9911499,4.4055786,2.0152283,6.6377258,2.9592285
	c0.0264893,0.8991699,0.0464478,1.7949524,0.096344,2.7200012l0.1200867,2.9909668l0.1200562-2.8656921
	c0.0525818-0.9773254,0.0718994-1.9868469,0.100647-2.9909363l0.0037842-0.1338501l-0.132019-0.0664673
	c-2.3535767-1.1850891-4.754364-2.2680054-7.1302185-3.4045715V258.0958557z"/>
<path class="st3" d="M289.2266541,253.0187683l0.0012207,0.3269958l0.0388184,10.0033875l0.0012207,0.3109436l0.3097534-0.0098267
	c3.6469116-0.1152344,7.2851562-0.2971497,10.9021912-0.4562073l10.7484741-0.5239868l-10.9116821,0.1551819
	c-3.4983826,0.0653076-6.9763489,0.1112671-10.4460754,0.2154541l0.036377-9.370575l10.5040894-0.4900818
	c3.5430298-0.1524658,7.0834351-0.3695374,10.6251221-0.5575256c0.0392456,3.3027649,0.1324463,6.6344299,0.1921387,10.0475159
	c0.0609741-3.3522034,0.1579895-6.7879486,0.1957092-10.2539368l0.0022583-0.2023773l-0.2064514,0.0068359
	c-3.6115723,0.1195221-7.2244873,0.2064972-10.8344727,0.3610229l-10.8317871,0.4242859l-0.3269348,0.0127563
	L289.2266541,253.0187683z"/>
<path class="st3" d="M292.0799561,266.3710327c-3.5125122,0.0964355-7.0230408,0.2659302-10.5346069,0.3957214l-0.1884155,0.006958
	l0.0016174,0.1849976c0.0140686,1.6293335,0.055603,3.252655,0.0908813,4.859314l0.1011047,4.7747192l0.1011047-4.8593445
	c0.033844-1.5409851,0.0723267-3.0659485,0.0878906-4.5856018c3.45224-0.0605469,6.9055481-0.0852966,10.3568726-0.1800537
	l10.1897888-0.2387695l0.0368347,9.2272949c-3.3757019,0.0594788-6.7565002,0.177124-10.1598206,0.277832l-10.6127319,0.3587036
	l10.4624634,0.016449c3.5218506-0.010498,7.0671692-0.0006104,10.6175537-0.0572815l0.2955933-0.0046997l0.0012207-0.2967834
	l0.0393677-9.8702698l0.0013733-0.3518372l-0.3518372,0.0110474l-10.5363464,0.3316956L292.0799561,266.3710327z"/>
</svg>
