<?xml version="1.0" encoding="UTF-8"?>
<svg enable-background="new 0 0 200 200" version="1.1" viewBox="0 0 200 200" width="200px" height="200px" xml:space="preserve" xmlns="http://www.w3.org/2000/svg">
	<style type="text/css">
		.dark-shade{fill:#bbbfc3;}
		.shade{fill:#dfe1e3;}
		.clear{fill:#fff;}
		svg{fill:#253746;}
	</style>
	<polygon class="dark-shade" points="187.79 99.96 199.68 118.83 199.68 116.47 187.92 93.095"/>
	<polygon class="dark-shade" points="187.92 89.985 187.94 92.555 199.68 116.47 199.68 115.64"/>
	<polygon class="dark-shade" points="153.89 109.13 154.18 159 156.3 157.69 155.86 111.07"/>
	<polygon class="dark-shade" points="81.878 113.35 81.878 153.84 83.178 153.23 83.083 114.53"/>
	<polygon class="dark-shade" points="28.025 116.45 28.025 138.34 28.97 138.44 29.082 117.47"/>
	<polygon class="dark-shade" points="70.763 152.42 70.763 140.7 62.919 141.09 62.919 154.34"/>
	<path class="dark-shade" d="m153.89 55.08-78.978 17.231 1.3182 0.48098 5.6509-1.1395-0.12978 29.343 1.2037-0.086723 0.12989-28.559 0.028206 0.018227 61.039-12.74-0.035416-1.4558 9.7653-2.0646 0.29173 37.171 2.0115-0.20523-0.32178-34.153-1.882-2.8799-6.104e-4 -0.0068359 1.8815 2.7698 0.046158 4.8969 12.902 17.045 1.6129-0.18031 0.076111 10.892 1.1108-0.082161-0.098663-9.395 0.45642-0.1603-18.076-26.74-0.002533-1.64e-4 5.799e-4 1.486e-4zm16.707 25.466 0.4874 0.7698-0.58754-0.75855 0.10016-0.011208v-3.81e-5h-1.52e-5z"/>
	<polygon class="dark-shade" points="170.69 119.1 170.47 119.22 170.5 151.05 170.75 151.09 171.61 150.61 171.4 120.35"/>
	<polygon class="dark-shade" points="153.84 48.313 171.81 78.115 171.78 77.42 155.44 46.481"/>
	<path class="dark-shade" d="m153.89 48.236s0.51338-0.56205 1.5471-1.8587l-82.783 20.367 2.0502 0.86445 79.183-19.373 0.0026093 1.335e-4 4.57e-5 1.144e-4z"/>
	<polygon class="dark-shade" points="21.448 90.365 76.213 79.1 76.213 77.925 19.606 89.69"/>
	<path class="dark-shade" d="m22.874 94.425 5.1519-0.79686v13.222l0.94478 0.002327 0.112-12.702 7.706e-4 4.654e-4 47.126-8.204v-1.8841l-54.489 9.9425 1.1522 0.42008-5.093e-4 -4.044e-4 0.0011883-1.53e-5zm6.2019-0.27884-1.0375-0.51996 0.1182-0.018288 0.91933 0.53821h-7.6e-6l3.8e-6 3.82e-5z"/>
	<polygon class="dark-shade" points="70.763 139.47 62.919 139.5 18.676 138.11 18.676 139.4 62.919 141.09 70.763 140.7"/>
	<polygon class="dark-shade" points="95.058 153.75 129.15 155.74 129.15 122.07 95.058 122.97"/>
	<polygon class="dark-shade" points="136.04 68.415 136.04 90.365 137.9 90.74 137.86 69.44"/>
	<path class="dark-shade" d="m95.953 117.72c-0.0024872-0.02684-0.067566-0.050148-0.1789-0.07032l-0.52649-0.93805c-0.012405-0.13377-1.743-0.17172-3.8653-0.084724-2.1224 0.08699-3.8328 0.266-3.8204 0.3998l-0.08725 0.11958-0.44302 0.85215c-0.13525 0.033081-0.20782 0.065338-0.20501 0.095657 0.014702 0.1589 2.0696 0.20393 4.5898 0.10064 2.5202-0.10332 4.5513-0.31586 4.5366-0.47475l-3.05e-5 7.6e-6h-1.51e-5z"/>
	<path class="dark-shade" d="m111.85 117.36c2.5201-0.10331 4.5513-0.31587 4.5366-0.47475-0.0024796-0.026825-0.067574-0.050148-0.17894-0.070335l-0.52649-0.938c-0.012375-0.13381-1.7429-0.17174-3.8652-0.084732-2.1224 0.086998-3.8328 0.26597-3.8204 0.39978l-0.08725 0.11958-0.44304 0.8522c-0.13519 0.033089-0.20776 0.065346-0.20496 0.095642 0.014694 0.15887 2.0696 0.20393 4.5898 0.10062l-2.29e-5 -3.81e-5 -1.52e-5 2.28e-5z"/>
	<path class="dark-shade" d="m136.64 115.74-0.52643-0.93805c-0.012405-0.1338-1.743-0.17173-3.8653-0.084724-2.1224 0.086998-3.8328 0.26601-3.8204 0.39981l-0.087234 0.11959-0.44302 0.85215c-0.13521 0.033089-0.20782 0.065338-0.20501 0.095657 0.014732 0.1589 2.0697 0.20393 4.5898 0.10064 2.5202-0.10331 4.5513-0.31585 4.5366-0.47475-0.0024872-0.026863-0.067596-0.050156-0.17894-0.070343l-1.53e-5 1.53e-5h-6.1e-5z"/>
	<polygon class="shade" points="42.549 119.45 32.404 119.9 32.404 130.78 70.594 130.78 70.594 118.23 42.728 119.44"/>
	<polygon class="shade" points="0.4135 115.02 187.79 99.96 187.79 92.64 0.4135 111.35"/>
	<polygon class="shade" points="170.75 91.35 170.69 80.42 168.73 80.665 168.82 91.555 154.17 93.15 153.88 55.885 143.85 58.025 143.85 94.275 27.688 106.89 28.025 106.85 28.056 93.525 22.875 94.425 22.863 107.41 0 109.9 0 111.35 187.79 92.64 187.8 89.495"/>
	<polygon class="shade" points="143.85 109.62 143.85 158.38 154.18 159 153.89 109.13"/>
	<polygon class="shade" points="76.083 79.025 21.448 90.3 21.427 92.435 76.083 81.865 76.083 101.63 81.878 101 81.978 71.305 76.083 72.58 76.083 74.125 19.47 86.735 19.454 88.345 76.083 76.48"/>
	<polygon class="shade" points="76.083 153.49 81.878 153.84 81.878 113.35 76.083 113.77"/>
	<polygon class="shade" points="18.676 150.84 62.919 154.34 62.919 141.09 18.676 139.5"/>
	<polygon class="shade" points="168.86 119.12 168.82 150.79 170.75 151.09 170.69 119.1"/>
	<polygon class="shade" points="153.88 51.265 153.89 52.01 171.93 79.83 171.81 78.115 153.89 48.681 153.89 48.236 74.703 67.525 74.703 70.205 153.88 51.945"/>
	<polygon class="shade" points="172.48 77.165 172.48 75.225 155.56 41.002 155.44 41.237 155.44 41.179 72.473 63.08 72.473 65.1 155.39 44.453"/>
	<polygon class="shade" points="22.863 116.71 22.863 138.27 28.025 138.34 27.888 116.29"/>
	<polygon class="shade" points="96.298 153.84 127.91 155.67 127.91 123.3 96.298 124.13"/>
	<polygon class="shade" points="136.04 90.365 136.04 68.415 88.953 76.885 88.953 95.79"/>
	<path class="clear" d="m47.959 119.85c-0.78498 0.9011-1.5918 1.7813-2.4018 2.6582-0.80959 0.87745-1.6371 1.7375-2.4548 2.6072-0.83373 0.8541-1.659 1.7165-2.5006 2.5628l-1.2667 1.2657c-0.42949 0.41489-0.85218 0.8363-1.2876 1.2454 0.39045-0.45255 0.79379-0.8927 1.1902-1.3394l1.2112-1.3192c0.81013-0.8769 1.6369-1.7377 2.455-2.6068 0.83424-0.85366 1.6588-1.7166 2.501-2.5625 0.84183-0.84625 1.687-1.6893 2.5539-2.5114l6.1e-5 6.1e-5 -7.5e-6 3.07e-5z"/>
	<path class="clear" d="m57.879 119.32c-0.63699 0.9064-1.2978 1.794-1.9622 2.6788-0.66388 0.8852-1.3472 1.755-2.0199 2.6332-0.69019 0.86446-1.371 1.7363-2.07 2.5938l-1.0528 1.2829c-0.35888 0.42139-0.71024 0.8486-1.0757 1.2648 0.31627-0.45494 0.64658-0.89885 0.96943-1.3486l0.99233-1.3306c0.66444-0.8847 1.347-1.7551 2.0203-2.633 0.69078-0.864 1.3708-1.7364 2.0704-2.5935 0.69904-0.85745 1.4017-1.7121 2.1282-2.548v-7.63e-5 3.82e-5z"/>
	<path class="clear" d="m120.7 123.46c-1.9922 2.1604-4.006 4.2997-6.0234 6.436l-6.0759 6.385-6.1219 6.3405-3.0773 3.1544-3.0983 3.1342 3.0009-3.2282 3.0219-3.208 6.0764-6.3845 6.1224-6.34c2.049-2.1055 4.1013-4.2078 6.1754-6.289v1.221e-4l-2.442e-4 -5.798e-4z"/>
	<path class="clear" d="m127.5 123.76c-1.9079 2.5304-3.8396 5.042-5.7749 7.551l-5.8324 7.5055-5.8829 7.466-2.9591 3.7189-2.982 3.7008 2.8758-3.7846 2.8986-3.7666 5.8329-7.5055 5.8829-7.465c1.97-2.4814 3.9435-4.9601 5.9409-7.4195l-6.87e-5 -3.357e-4 3.206e-4 -6.715e-4z"/>
	<path class="clear" d="m127.5 135.1c-1.2709 1.6699-2.5653 3.3208-3.8633 4.9688l-3.9204 4.9225-3.97 4.8822-2.0026 2.4269-2.0253 2.4085 1.9202-2.4937 1.9428-2.4753 3.9208-4.9222 3.9704-4.8819c1.3323-1.6201 2.6681-3.2374 4.0276-4.8356v-6.1e-5l-4.58e-5 -9.16e-5z"/>
	<path class="clear" d="m127.5 139.23c-0.82623 1.2921-1.6774 2.5669-2.5322 3.8391-0.85429 1.2726-1.729 2.5309-2.5924 3.797-0.88178 1.2534-1.7538 2.5135-2.6448 3.7604l-1.341 1.8673c-0.45525 0.61667-0.90269 1.2388-1.3648 1.8506 0.41081-0.64764 0.83623-1.2852 1.254-1.928l1.2778-1.9113c0.85493-1.2721 1.7288-2.5311 2.5928-3.7967 0.88239-1.2529 1.7536-2.5137 2.6451-3.7601 0.89104-1.2469 1.7858-2.4911 2.7054-3.7182h1.54e-5z"/>
	<path class="clear" d="m66.844 119.15c-0.69583 0.9554-1.4152 1.8918-2.1382 2.8252-0.72244 0.9339-1.4642 1.8522-2.1953 2.7791-0.74853 0.91276-1.4878 1.833-2.2449 2.7388l-1.14 1.3551c-0.38786 0.44536-0.76838 0.8967-1.1627 1.3367 0.34574-0.47951 0.70533-0.94775 1.0576-1.422l1.0802-1.4036c0.72298-0.93345 1.464-1.8523 2.1957-2.7787 0.74903-0.9123 1.4876-1.8332 2.2453-2.7385 0.75722-0.9057 1.5181-1.8084 2.3024-2.6922v6.1e-5l5.34e-5 5.35e-5z"/>
	<path class="clear" d="m70.174 118.75c-0.60219 0.96875-1.2292 1.9202-1.8599 2.8691-0.63023 0.9492-1.2808 1.8842-1.9202 2.827-0.65774 0.93001-1.3057 1.8669-1.9726 2.7905l-1.0048 1.3823c-0.34322 0.455-0.67863 0.91545-1.0288 1.3656 0.29876-0.48601 0.61214-0.96181 0.91778-1.443l0.94173-1.4264c0.63079-0.9488 1.2806-1.8844 1.9206-2.8268 0.65829-0.9296 1.3054-1.867 1.973-2.7902 0.66689-0.9235 1.3376-1.8445 2.0332-2.7481h7.63e-5l-8.37e-5 -7.7e-6z"/>
	<path d="m200 117.11v-1.0087l-12.2-26.6-0.0075073 2.9761v0.032028l-7.63e-5 3.05e-5 0.0075836-3.0081-16.187 1.7585-0.095856-9.1285 0.65378-0.22977 0.0023193 0.0033798-7.63e-5 -0.0041809 0.013306-0.0046768-0.013779-0.020386-0.033249-1.7764-0.058426-0.090096-0.13219-1.892-0.023392-0.6659 0.0050659 0.0095139 0.55563-0.28605v-1.9452l-16.904-34.191v-0.03405l-0.014908 0.0039253-5.798e-4 -0.0012169-8.392e-4 0.0015793-83.123 21.941-0.10269 0.027138v2.3056l0.30392-0.075653v1.5798l0.067642-0.016563 1.862 0.7851v2.8252l0.34457-0.079445v2.0446l0.050858-0.011009 1.1207 0.40888v1.2422l-56.644 12.617-0.10687 0.02391-0.018993 1.8944 0.15426-0.032341v1.3799l0.38446-0.079941 1.4572 0.53175-0.023073 2.286 0.31138-0.060226-0.016621 1.6303 0.39717-0.071976 0.75763 0.27624-0.011772 13.054-22.725 2.4688v1.4523l0.27566-0.027458v3.8427l1.4931-0.12001 20.956 2.8543v20.203l-4.0445-0.12643-0.14213-0.0043182v12.995l44.244 3.504v0.048431l0.14907-0.036621 0.12658 0.010132v-0.041184l7.8458-1.9255v-0.0466l5.0414 0.29362v0.84352l5.7984 0.34558v0.086655l0.16451-0.076843 0.11114 0.0066223v-0.058578l1.2994-0.60706-1.907e-4 -0.087799 60.534 3.5255v1.623l10.327 0.6266 2.1263-1.3167-0.0088348-0.93974 0.059723 0.12451 12.553-6.067 1.5918 0.25153 0.25116 0.039658 0.85822-0.48296-0.21498-30.257-0.70653-1.2536-1.8324 0.022858-9.46e-4 0.8226-12.979-7.811-0.0099792-1.0592-1.9721-1.9398-10.042 0.48408v2.0792l-0.0078735-0.15564-60.619 3.0574-3.281e-4 -0.12733-1.2036-1.1775v-0.090332l-0.086014 0.0061722-0.18964-0.18553v0.19908l-5.7984 0.41495v1.326l-46.809 2.3611-1.2484-1.2102v0.16803l-0.011713-0.13776-5.1509 0.44167v1.0335l-18.872-2.5704 183.86-14.947 11.602 18.601-27.931 1.5101 0.015045 0.27608 28.164-1.5226 0.20155-0.010757 0.019714 0.031258v-0.03228l0.012085-6.638e-4 -0.012085-0.019424v-2.2508l0.20862 0.42097-0.0013275-4.883e-4 -0.0029144-1.297e-4zm-28.877 3.3204 0.21336 30.022-0.55719 0.31352-0.029984-30.999 0.37381 0.6633v-3.204e-4zm-1.9892-0.26321 0.023224-0.038979-0.023193-0.013969 8.24e-4 -0.71515 1.2819-0.015976 0.062103 31.39-1.3792-0.21786 0.034286-30.388 3.05e-5 -1.831e-4 1.52e-5 1.297e-4zm-0.27582 0.10346-0.034119 30.271-12.526 6.054-0.41582-44.134 12.976 7.809-6.1e-5 -4.807e-4v-1.51e-5zm-13.264-9.0755 0.43655 46.339-1.5763 0.9761-0.27832-48.71 1.4181 1.3949-3.05e-5 -1.373e-4 -1.54e-5 1.296e-4zm-11.464-1.3094 9.4923-0.45757 0.28163 49.282-9.7743-0.59305v-48.232l3.662e-4 2.899e-4 1.52e-5 3.205e-4zm-32.896 44.692-14.794-0.8616v-29.449l14.794-0.39014v30.701-2.594e-4zm0.34566-0.0078278h-0.07v-30.675h0.07v30.675zm16.195 0.97121-15.92-0.9272v-30.753l15.92-0.41984v32.101-4.578e-4zm1.2405 0.07225-0.96483-0.056198v-32.401l-31.886 0.841v29.702l-0.96484-0.056198v-30.537l33.816-0.89175v33.398l-2.747e-4 -7.63e-5 -3.05e-5 7.171e-4zm14.84-43.791v44.656l-14.564-0.84825v-33.698l-34.367 0.90635v30.79l-11.601-0.67564-0.093933-38.073 60.629-3.0577-6.1e-5 5.569e-4 -0.001999-3.74e-4zm-61.829 1.8623 0.92823 0.90795 0.095024 38.548-1.0232 0.47818v-39.935l-3.05e-5 2.29e-5v3.433e-4zm-5.7984 0.21583 5.5229-0.39523v40.185l-5.5229-0.32904v-39.461 2.593e-4zm-13.438 27.337v12.96l-43.968-3.4822v-11.071l43.968 1.5806v0.011902-1.831e-4 3.662e-4zm7.8458 11.076-7.5698 1.8581v-12.948l7.5703-0.37225-1.373e-4 11.462-5.341e-4 3.05e-5 1.679e-4 1.679e-4zm0-11.738-7.5698 0.37224v-1.3076l7.5703-0.027268-1.373e-4 0.96251-5.341e-4 3.05e-5 1.679e-4 6.1e-5zm-41.408-22.973 46.726-2.3569v37.255l-5.0414-0.29361 1.373e-4 -11.646h-1.068e-4l1.068e-4 -1.2267-7.9833 0.028946-33.812-1.0571 0.11057-20.704 2.289e-4 -2.441e-4 6.49e-5 -3.433e-4zm-1.056-0.83115 0.78078 0.75695-0.11098 20.77-0.66983-0.020935v-21.505l5.34e-5 -1.297e-4 -1.91e-5 -3.967e-4zm-5.1629 0.074272 4.8872-0.41907v21.842l-4.8872-0.15279v-21.27 3.587e-4zm39.782 22.79v1.3129l-43.968-1.6839v-1.0036l43.968 1.3745v7.63e-5 -1.53e-5zm108.78-57.815-0.87878-1.388-3.05e-5 -0.0065613-0.0038147 5.035e-4 -0.013565-0.021462-1.7972 0.20085-12.827-16.946-0.044601-4.7344-2.747e-4 -0.040524-3.357e-4 -5.531e-4 -7.477e-4 -0.075901-2.441e-4 -0.041855-1.981-2.9165 0.005127-0.32443 17.73 26.229-0.18709 0.065781 1.221e-4 -4.272e-4 -3.815e-4 -2.28e-5zm-0.23444 9.304-0.55873 0.041351-0.069122-9.8885 0.53168 0.68645 0.096207 9.1605v6.1e-5l-3.05e-5 1.45e-4zm-0.85843 0.06356-1.3787 0.13633-0.088043-10.408 1.4069-0.1777 0.059784 10.449 6.1e-5 -1.144e-4 -1.52e-5 -7.7e-6zm-1.6523 0.3755-12.5 1.3579-0.27118-28.799 12.68 16.752 0.090424 10.689 9.16e-5 1.297e-4 1.677e-4 -3.05e-5zm-24.704-33.385 9.6278-2.0355 0.14627 18.637 0.1442 18.381-10.046 1.0898v-34.582l0.16403-0.034244-0.035416-1.4558-4.272e-4 -3.8e-6 -1.681e-4 2.479e-4zm9.9053-1.8179 1.7038 2.6076 0.030502 3.214 0.29005 30.769-0.54233 0.058922-1.1934 0.12174-0.2886-36.772-1.53e-5 5.684e-4 -1.52e-5 2.137e-4zm-0.0020904-5.0855 0.0073547-2.1003 17.645 28.994 0.079681 1.1404-17.722-27.336-0.010162-0.69775-1.831e-4 -6.1e-5 3.053e-4 -2.403e-4zm0.14819 3.7239-0.0088959-2.1113 17.702 27.297 0.01503 0.80125-17.708-25.987-1.373e-4 1.335e-4v-1.297e-4zm17.874 22.092-16.326-30.675v-1.0453l16.394 31.685-0.067947 0.034958-4.58e-5 1.602e-4 -1.52e-5 1.831e-4zm-16.398-35.295 16.562 33.499v0.7566l-16.562-31.709v-2.5469l-1.53e-5 6.87e-5 1.53e-5 2.327e-4zm16.001 35.664 0.0051117 0.13737-17.621-29.237 1.526e-4 -0.047131 1.3816-1.5859 16.234 30.733-2.136e-4 -1.373e-4 -1.526e-4 -1.603e-4zm-99.013-12.549v0.0098267l-0.028259 0.0070572v-1.7388l82.693-21.827v2.7671l-82.558 20.755-0.10431 0.02623-7.629e-4 2.441e-4 -0.0016633 2.899e-4zm0.27567 0.22617 82.393-20.516v1.6509l-82.393 20.161v-1.2964zm0.61759 1.6799 81.178-19.972c-0.52138 0.6387-0.84453 1.0088-0.96638 1.1461l-79.018 19.331-1.1972-0.5048 0.0036774 2.594e-4 -3.06e-5 -6.11e-5zm1.312 3.2149v-2.3916l78.858-19.212 0.041184 2.841-0.0020752 0.5687-78.898 18.194 8.85e-4 1.526e-4 7.6e-6 2.441e-4zm0.34457 0.28028 78.558-18.191 0.01181 2.8503-78.563 17.03v-1.6895l-0.0051575-1.297e-4 -0.0016555 2.823e-4zm0.71478 2.0697 77.743-16.962 0.034241 0.37088-9.9683 2.1245v1.5262l-60.544 12.637-1.0422-0.674-0.093994-0.060776-0.055466 0.011208 1.373e-4 -0.042938-3.0601 0.66005-2.6639 0.5372-0.34934-0.12747-4.959e-4 1.221e-4 -1.679e-4 3.05e-5zm67.814-12.657v34.565l-60.699 6.5945 0.073639-28.53 0.02784 0.018013 60.599-12.648-1.526e-4 -8.01e-5 -0.0013275 6.87e-5zm-60.904 12.605-0.073685 28.553-0.57829 0.053917v-29.001l0.65199 0.39333v2.899e-4l-1.53e-5 -3.81e-5zm-1.1105-0.63625-0.092018 29.297-5.2479 0.5431v-28.727l2.6122-0.5634 2.7276-0.5501-5.34e-5 3.967e-4h1.679e-4zm-62.094 15.155 56.464-12.577v1.9443l-56.479 11.956 0.013262-1.323 7.44e-5 1.984e-4 0.001667 4.58e-5zm0.13742 2.6797v-1.0977l56.329-11.806v1.1885l-56.329 11.715v2.899e-4zm0.86913 0.24297 55.319-11.505v0.61205l-54.464 11.206-0.85523-0.31208-7.06e-5 -2.747e-4 3.204e-4 -1.983e-4zm0.98873 2.4384-0.016979-1.7909 54.499-11.245v2.5539l-54.479 10.481-3.929e-4 3.662e-4 -0.0026264 1.297e-4zm6.6934 1.1646-0.084383-0.049416-0.096538 0.014954-5.2129 0.80626-0.12804-0.046669 53.159-9.7005v1.3199l-46.799 8.147-0.83978-0.49165h-1.602e-4l0.0014304 1.22e-4zm0.64839 0.86546-0.11043 12.531-0.66983 0.072777 0.030434-12.98 0.74983 0.37563-1.9e-6 4.73e-4 3.7e-6 -3.814e-4zm-0.91813 12.615 0.032364 6.1e-5 -5.0574 0.5494 0.011524-12.857 4.8756-0.85096v13.159h0.13783l1.53e-5 -2.289e-4 6.48e-5 -2.822e-4zm1.1948-12.724 46.862-8.1585v15.665l-46.973 5.103 0.1112-12.609h1.259e-4l1.717e-4 7.5e-6zm-7.3593-0.28753 0.01359-1.352 54.194-10.479-0.045898 2.0191-54.159 9.812-3.605e-4 -1.45e-4 -0.0023347 3.82e-5zm-21.586 16.307 155.26-16.867 0.78864-0.080521-6.1e-5 -0.0051498 31.195-3.3889-0.0065155 2.5883-187.24 18.652v-0.8985l0.0018895-4.58e-5 4.26e-5 -1.45e-4zm187.38-10.317-187.1 15.036v-3.3901l187.1-18.679v7.033-4.044e-4zm0.41814-9.0775 10.24 22.326-10.244-20.671 0.0041504-1.6556-1.373e-4 5.951e-4 -1.53e-5 5.34e-5zm11.443 27.281-11.448-18.156 3.662e-4 -6.229 11.448 23.059v1.3254l-3.662e-4 -6.87e-5v1.221e-4z"/>
	<path d="m88.933 118.25c0.71754 0 1.5723-0.017952 2.4884-0.055489 2.5202-0.10333 4.5513-0.31586 4.5366-0.47475-0.0013428-0.014572-0.021767-0.028084-0.056236-0.040718l0.039566-0.022324-0.55939-0.9966c-0.0494-0.12267-0.43679-0.31715-4.0002-0.17181-0.61243 0.025108-3.6793 0.16396-3.9123 0.4314l-0.045235 0.060257 6.638e-4 0.0078354-0.067436 0.094299-0.49519 0.95225 0.024612 0.012886c-0.034042 0.015877-0.056564 0.031532-0.055191 0.046616 0.0093536 0.10114 0.84502 0.15612 2.1014 0.15612l3.05e-5 3.81e-5h-2.28e-5zm2.4772-0.3319c-0.45256 0.018555-0.89844 0.032616-1.325 0.041908 0.39609-0.023537 0.82777-0.045372 1.2943-0.064476 0.45255-0.01857 0.89843-0.032616 1.325-0.041939-0.3961 0.02356-0.82777 0.045402-1.2943 0.064506h5.35e-5zm-3.8192-0.6904 0.088158-0.12102c0.20838-0.087799 1.4834-0.25044 3.7139-0.34172 2.1433-0.088348 3.5206-0.036743 3.7518 0.036461l0.46213 0.8231c-0.35941-0.039894-0.97423-0.060944-1.7503-0.060944-0.71754 0-1.5724 0.017921-2.4885 0.055489-1.8646 0.076439-3.459 0.21267-4.1576 0.34272l0.38036-0.73415 7.6e-6 3.81e-5 2.29e-5 3.06e-5z"/>
	<path d="m90.573 96.16 47.354-5.238-0.04184-21.579-1.9237-1.091-47.034 8.5135v19.198l1.6454 0.19654 9.16e-5 -9.16e-5zm45.501-27.527 1.5369 0.87141 0.040726 21.078-1.5776-0.32108v-21.629l-4.58e-5 2.747e-4 -3.05e-5 -9.93e-5zm-46.872 8.363 46.598-8.435v21.69l-46.598 5.4005v-18.655 6.1e-5 -6.1e-5z"/>
	<path d="m109.36 117.42c0.71744 0 1.5722-0.01796 2.4882-0.055504 2.5201-0.10331 4.5513-0.31586 4.5366-0.47475-0.0013504-0.014549-0.02169-0.028023-0.056061-0.040634l0.03933-0.022217-0.55939-0.99685c-0.048981-0.12263-0.43529-0.31713-4.0003-0.17179-0.61243 0.025124-3.6792 0.16396-3.912 0.4314l-0.045235 0.060249 8.24e-4 0.0078278-0.067566 0.094269-0.49533 0.95255 0.024452 0.012802c-0.033913 0.015854-0.056404 0.031486-0.055 0.046509 0.009346 0.10113 0.84513 0.15614 2.1016 0.15614l-4.58e-5 -2.29e-5 -4.58e-5 1.53e-5zm2.477-0.3319c-0.45261 0.018562-0.89857 0.032638-1.3252 0.041908 0.39611-0.023544 0.82793-0.045364 1.2944-0.064484 0.45274-0.018593 0.89874-0.032638 1.3255-0.041939-0.39619 0.023544-0.82812 0.045395-1.2948 0.064514h5.34e-5zm-3.8193-0.69045 0.088318-0.12103c0.20835-0.087807 1.4833-0.25044 3.7136-0.34172 2.1432-0.088356 3.5206-0.036766 3.7522 0.036453l0.46189 0.8232c-0.35941-0.039864-0.97417-0.060936-1.7503-0.060936-0.71748 0-1.5723 0.01796-2.4884 0.055519-1.8646 0.076424-3.4589 0.21268-4.1576 0.34271l0.38027-0.7342-6.1e-5 3.05e-5 -7.7e-6 -3.04e-5z"/>
	<path d="m129.8 116.35c0.71753 0 1.5723-0.017944 2.4885-0.055489 2.5202-0.10332 4.5513-0.31586 4.5366-0.47475-0.001358-0.014572-0.021728-0.028046-0.056107-0.040649l0.039536-0.022331-0.55969-0.9971c-0.049545-0.12238-0.43774-0.31688-4-0.17126-0.61244 0.025116-3.6794 0.16396-3.9123 0.4314l-0.045242 0.060242 5.493e-4 0.0078354-0.067291 0.094025-0.49506 0.9525 0.024483 0.012825c-0.03402 0.015907-0.056572 0.031548-0.055199 0.046616 0.0093842 0.10114 0.84512 0.15613 2.1014 0.15613l-4.58e-5 3.05e-5 -1.51e-5 -2.3e-5zm2.4772-0.3319c-0.45261 0.01857-0.89859 0.032608-1.3252 0.041916 0.3961-0.023544 0.82794-0.045372 1.2944-0.064514 0.45262-0.018532 0.89853-0.032585 1.3252-0.041908-0.39609 0.023544-0.82794 0.045403-1.2944 0.064507zm-3.8194-0.69035 0.088333-0.12102c0.20836-0.087807 1.4836-0.25043 3.7139-0.34173 2.1426-0.087799 3.5206-0.036476 3.7519 0.036186l0.46222 0.8233c-0.35938-0.039879-0.97421-0.060944-1.7504-0.060944-0.71753 0-1.5723 0.017929-2.4885 0.055496-1.8645 0.076439-3.4588 0.21265-4.1575 0.34272l0.3801-0.7341-9.16e-5 4.58e-5 1.53e-5 3.82e-5z"/>
	<path d="m70.748 118-38.499 1.7025v11.298h38.499v-13l-1.526e-4 -5.188e-4 1.526e-4 6.1e-5zm-28.346 12.72h-9.8778v-10.749l9.8778-0.43669v11.186l3.8e-6 -3.052e-4zm0.34488 0h-0.06897v-11.198l0.06897-0.0019073v11.2-1.373e-4 4.57e-5zm13.174 0h-12.898v-11.213l12.898-0.57025v11.784-4.425e-4l3.8e-6 1.984e-4zm0.34488 0h-0.068977v-11.763h0.068977v11.763zm14.206 0h-13.93v-11.811l13.93-0.61591v12.427-2.136e-4 1.069e-4z"/>
	<path d="m114.02 147.06h0.03849c0.22799 0 0.41349-0.18613 0.41349-0.41495v-9.428c0-0.22881-0.1855-0.41493-0.41349-0.41493h-0.03849c-0.22802 0-0.4135 0.18613-0.4135 0.41493v9.428c0 0.22882 0.18548 0.41495 0.4135 0.41495zm-0.13783-9.8435c0-0.076187 0.061912-0.13834 0.13783-0.13834h0.03849c0.075905 0 0.13782 0.062149 0.13782 0.13834v9.428c0 0.076172-0.06192 0.13829-0.13782 0.13829h-0.03849c-0.07592 0-0.13783-0.062118-0.13783-0.13829v-9.428z"/>
	<path d="m108.78 146.78h0.038475c0.228 0 0.41349-0.18611 0.41349-0.41493v-9.1515c0-0.22879-0.18549-0.41495-0.41349-0.41495h-0.038475c-0.22804 0-0.4135 0.18616-0.4135 0.41495v9.1515c0 0.22882 0.18546 0.41495 0.4135 0.41495v-1.52e-5zm-0.13784-9.5665c0-0.076172 0.06192-0.13831 0.13784-0.13831h0.038475c0.075912 0 0.13783 0.062134 0.13783 0.13831v9.1515c0 0.076187-0.06192 0.13832-0.13783 0.13832h-0.038475c-0.07592 0-0.13784-0.062134-0.13784-0.13832v-9.1515z"/>
</svg>
