<?xml version="1.0" encoding="UTF-8"?>
<svg enable-background="new 0 0 200 200" version="1.1" viewBox="0 0 200 200" width="200px" height="200px" xml:space="preserve" xmlns="http://www.w3.org/2000/svg">
	<style type="text/css">
		.clear{fill:#fff;}
		.shade{fill:#dfe1e3;}
		.dark-shade{fill:#bbbfc3;}
		svg{fill:#253746;}
	</style>
	<polygon class="clear" points="179.52 66.42 179.68 66.275 180.57 68.75 200 112.55 200 114.44 199.58 114.8 199.67 155.77 173.96 170.45 109.31 167 105.69 167.78 73.114 165.89 51.834 168.62 0 164.88 0 117.21 18.234 115.16 18.234 90.28 15.109 89.31 15.109 85.46 73.154 72.985 73.264 55.625 105.51 47.166 108.55 49.931 108.55 65.825 147.06 57.585 147.06 55.23 147.48 55.14 147.48 52.72 147.06 52.815 147.06 48.295 147.48 48.196 147.48 45.492 147.06 45.595 147.06 42.474 147.48 42.369 147.48 36.698 173.99 29.644 178.72 43.033"/>
	<polygon class="shade" points="86.004 96.04 90.909 95.32 90.928 165.02 86.289 164.8"/>
	<polygon class="shade" points="176.15 81.365 173.83 77.56 115.25 86.53 115.25 127.37 116.91 127.29 116.91 127.23 125.22 126.87 123.77 126.95 125.48 126.87 129.45 126.69 129.45 126.67 170.78 124.63 170.78 124.58 170.78 124.58 170.77 111.96 170.78 111.96 170.78 110.64 170.77 110.64 170.77 95.535 170.78 95.535 170.78 94.215 170.77 94.215 170.76 79.265 170.78 79.265 173.81 78.805 175.87 82.03 175.87 125.56 181.58 128.62 181.58 128.62 181.2 128.41 185.46 130.74 182.24 128.98 182.24 128.97 186.59 131.31 186.59 131.36 189.81 133.11 187.26 131.72 187.26 131.67 189.91 133.09 189.91 133.16 190.61 133.55 190.57 133.52 190.57 133.44 193.15 134.83 193.15 134.94 194.15 135.47 194.15 111"/>
	<polygon class="shade" points="73.304 145.17 51.909 144.94 0.16283 145.23 0.1627 163.57 51.909 166.78 73.144 164.22"/>
	<polygon class="dark-shade" points="18.366 88.565 73.404 77.445 73.304 72.955 15.247 85.445 15.247 89.285 18.366 90.25"/>
	<polygon class="dark-shade" points="179.47 66.48 179.47 70.975 179.77 71.55 199.87 114.51 199.87 112.41"/>
	<polygon class="dark-shade" points="181.98 161.75 181.98 165.63 190.57 160.81 190.23 157.99"/>
	<polygon class="dark-shade" points="115.25 167.03 116.13 167.22 116.13 133.18 115.25 133.21"/>
	<polygon class="dark-shade" points="124.46 146.16 124.46 167.66 125.57 167.77 152.05 169.05 152.05 164.51 125.57 163.4 125.57 147.08 173.97 147.16 190.57 146.98 190.57 146.36 173.97 146.09"/>
	<polygon class="dark-shade" points="193.46 138.57 193.46 159.05 194.25 158.59 194.15 138.85"/>
	<path class="shade" d="m100.41 69.87c0 7.525-5.4514 14.558-11.958 15.672-1.6506 0.28078-3.2053 0.15195-4.6047-0.31713-0.0033035 0-0.0033035-0.0032959-0.0066147-0.0032959-2.825-1.7376-4.6477-5.15-4.6477-9.3685 0-6.7985 4.7369-13.452 10.76-14.905 3.6784-0.8853 7.0024 0.35346 9.1098 3.0061v0.0033035c0.86003 1.6617 1.3463 3.6635 1.3463 5.9135l8.39e-5 -6.409e-4 1.831e-4 -4.58e-5v2.595e-4z"/>
	<path class="dark-shade" d="m83.849 85.215c-0.0033035 0-0.0033035-0.0033112-0.0066147-0.0033112-2.825-1.7376-4.6477-5.15-4.6477-9.3685 0-6.7985 4.7369-13.452 10.76-14.905 3.3181-0.79865 6.3484 0.13118 8.4564 2.268l0.40838 0.28988c-2.0801-3.5956-5.9839-5.408-10.366-4.335-6.2819 1.536-11.214 8.46-11.214 15.513 0 5.1995 2.6794 9.2165 6.6024 10.538 0.0033112 0 0.0033112 0.0033112 0.0066223 0.0033112"/>
	<polygon class="shade" points="179.63 74.8 178.42 42.637 173.89 29.685 173.89 36.319 173.87 29.711 147.39 36.753 147.39 70.21 173.99 65.43"/>
	<polygon class="shade" points="49.339 118.14 4.2079 122.64 4.2079 133.75 49.339 131.41"/>
	<polygon class="shade" points="68.964 94.08 22.963 101.48 22.963 109.78 68.909 104.12"/>
	<path class="dark-shade" d="m146.98 59.015v-1.4074l-38.439 8.225v-15.82l-2.9733-2.615v118.24l-14.646-0.82555v0.053268l-4.4999-0.17978v-4.0876l4.4999 0.1731v-0.53925l-4.4999-0.1731v-4.8266l4.4999 0.099838v-5.439l-0.08667 4.8866-4.4132-0.099884v-4.8533l4.4999 0.066559v-0.55925l-4.4999-0.033279v-4.8267l4.4999-0.033279v-0.57249l-4.4333 0.033279-0.06665-4.7934 4.4333-0.046616 0.066696 4.8067v-5.439l-4.4999 0.099838v-4.8466l4.4999-0.16643v-33.234l-4.4999 0.5792v-4.5803l4.4999-0.719v-0.6591l-5.1534 0.73895v68.88l-12.613-0.70564v1.9373l32.479 1.884 2.8933-0.6458 0.013344-96.305 38.439-7.733 0.0098419-1.2928 0.4035-0.1119v-2.6576l-0.41335 0.12516-6.1e-5 1.64e-4 1.526e-4 -1.831e-4v-0.0010986zm-60.559 42.501l4.3999-0.60585v4.7867l-4.3999 0.49931v-4.6802 2.29e-5 -2.29e-5zm0.08667 5.319l4.3133-0.49931v4.7999l-4.3999 0.43271 0.08667-4.7334v1.53e-5l-1.53e-5 2.29e-5v7.6e-6zm-0.08667 5.366l4.4466-0.43941-0.046669 4.8599-4.3999 0.37281v-4.7934l7.6e-6 1.53e-5 1.53e-5 2.29e-5v7.4e-6zm0 5.4125l4.4466-0.36615v4.7999l-4.4466 0.30626v-4.7401 3.81e-5zm0 5.3525l4.4466-0.30621-0.013344 4.8399-4.4333 0.23303v-4.7667l7.6e-6 -5.34e-5 3.81e-5 3.81e-5zm0 5.439l4.4333-0.30621v4.8266l-4.4333 0.1731v-4.6935z"/>
	<polygon class="shade" points="125.57 147.08 125.57 163.4 152.05 164.51 152.05 169.05 173.83 170.3 181.98 165.63 181.98 161.75 190.23 157.99 190.23 146.98 173.97 147.16"/>
	<path class="clear" d="m68.424 95.06c-0.75354 0.82285-1.513 1.64-2.2805 2.4495l-2.3122 2.419-2.3397 2.3924c-0.78333 0.79415-1.5744 1.5808-2.3718 2.3615 0.75334-0.8231 1.5129-1.6401 2.2802-2.4498l2.3124-2.4188 2.3399-2.3922c0.78323-0.79425 1.5744-1.5808 2.3716-2.3617l6.1e-5 6.87e-5 3.82e-5 -1.51e-5z"/>
	<path class="clear" d="m37.793 99.19c-0.82084 0.8238-1.6474 1.6415-2.4815 2.4513l-2.5119 2.4195-2.5383 2.3919c-0.84938 0.79385-1.7062 1.5798-2.5691 2.3596 0.82059-0.824 1.6472-1.6416 2.4813-2.4516l2.5121-2.4193 2.5385-2.3916c0.84933-0.7939 1.7062-1.5798 2.5689-2.3598l-3.8e-6 6.1e-5v-6.12e-5z"/>
	<path class="clear" d="m66.354 94.905c-0.84814 0.85665-1.702 1.7075-2.5636 2.5502l-2.5941 2.5185-2.6206 2.4911c-0.87683 0.8269-1.7612 1.646-2.6516 2.459 0.84794-0.85695 1.7019-1.7076 2.5634-2.5505l2.5943-2.5183 2.6208-2.4908c0.87678-0.827 1.7612-1.646 2.6514-2.4592v-1.068e-4 1.52e-5z"/>
	<path class="clear" d="m54.174 97.1c-0.75354 0.82285-1.513 1.64-2.2805 2.4495l-2.3122 2.419-2.3397 2.3924c-0.78334 0.79415-1.5744 1.5808-2.3718 2.3615 0.75334-0.8231 1.5129-1.6401 2.2802-2.4498l2.3124-2.4188 2.3399-2.3923c0.78324-0.79425 1.5744-1.5808 2.3716-2.3616h9.54e-5v7.8e-6z"/>
	<path class="clear" d="m48.445 97.93c-0.76314 0.77505-1.532 1.5441-2.3085 2.3053l-2.339 2.2736-2.3656 2.246c-0.79184 0.7452-1.5912 1.4827-2.3965 2.214 0.76294-0.7753 1.5318-1.5443 2.3083-2.3055l2.3392-2.2734 2.3658-2.2458c0.79179-0.7453 1.5911-1.4827 2.3963-2.2141 0 0 0-7.6e-6 3.8e-6 -7.6e-6v-4.58e-5z"/>
	<path class="clear" d="m34.195 99.87c-0.84574 0.7681-1.6968 1.5299-2.5552 2.2833l-2.5839 2.25-2.6089 2.2211c-0.87279 0.7367-1.7526 1.4653-2.638 2.1873 0.84554-0.76835 1.6967-1.53 2.555-2.2835l2.5841-2.2498 2.6091-2.2208c0.87274-0.7368 1.7525-1.4653 2.6378-2.1876l-3.8e-6 -6.1e-5 3.8e-6 1.51e-5z"/>
	<path class="clear" d="m49.484 145.89c-1.1541 1.6081-2.3148 3.2112-3.4844 4.8077l-3.5199 4.7816-3.5506 4.7587c-1.1874 1.5834-2.3834 3.1604-3.5865 4.7323 1.1538-1.6082 2.3147-3.2112 3.4842-4.8078l3.5201-4.7814 3.5508-4.7586c1.1873-1.5835 2.3834-3.1604 3.5863-4.7325l7.5e-6 -7.62e-5z"/>
	<path class="clear" d="m46.093 145.71c-1.2826 1.5089-2.5714 3.0123-3.8685 4.5086l-3.9016 4.4796-3.9304 4.4543c-1.3137 1.4816-2.6356 2.9563-3.964 4.425 1.2824-1.5091 2.5712-3.0125 3.8683-4.5087l3.9019-4.4794 3.9306-4.4542c1.3136-1.4817 2.6356-2.9563 3.9638-4.4252l-6.87e-5 6.1e-5 -3.06e-5 3.06e-5z"/>
	<path class="clear" d="m31.455 145.89c-1.1868 1.3793-2.3798 2.7531-3.5811 4.1197l-3.6139 4.0903-3.6426 4.065c-1.2178 1.3518-2.4436 2.6965-3.6759 4.0354 1.1866-1.3795 2.3797-2.7532 3.5808-4.1198l3.6141-4.0901 3.6428-4.0648c1.2176-1.3519 2.4436-2.6965 3.6757-4.0356l1.373e-4 -1.53e-5 1.34e-5 1.53e-5v-4.57e-5z"/>
	<polygon class="clear" points="29.798 146.34 27.57 148.55 25.325 150.73 20.833 155.1 16.302 159.43 14.037 161.59 11.753 163.74 13.981 161.53 16.226 159.35 20.718 154.98 25.248 150.65 27.514 148.49"/>
	<path class="clear" d="m15.788 145.71c-1.2035 1.1042-2.4125 2.2023-3.6287 3.2922l-3.6579 3.2592-3.6833 3.2305c-1.231 1.0733-2.4691 2.1385-3.7129 3.1973 1.2033-1.1044 2.4124-2.2024 3.6285-3.2923l3.6581-3.2589 3.6835-3.2303c1.2309-1.0733 2.469-2.1385 3.7127-3.1974l-6.68e-5 -1.53e-5 1.62e-5 -1.068e-4v-3.04e-5z"/>
	<path class="clear" d="m13.258 145.71c-1.0034 0.80125-2.0118 1.5959-3.0269 2.3817l-3.0536 2.3468-3.0768 2.3163c-1.0285 0.76836-2.0636 1.528-3.1039 2.2809 1.0032-0.80145 2.0118-1.596 3.0267-2.3819l3.0538-2.3465 3.077-2.316c1.0284-0.7684 2.0635-1.5281 3.1037-2.2811l-1e-6 -4.58e-5v-3.05e-5z"/>
	<path class="clear" d="m164.33 161.84c-0.39963 0.57845-0.80588 1.1519-1.221 1.7188l-1.2561 1.6922-1.2866 1.6691c-0.43271 0.55354-0.87404 1.1005-1.3222 1.6423 0.39941-0.57864 0.80579-1.152 1.2207-1.7189l1.2564-1.692 1.2868-1.6691c0.43262-0.55354 0.87404-1.1006 1.322-1.6425v1.067e-4z"/>
	<path class="clear" d="m173.25 150.06c-0.64598 0.90401-1.2985 1.8031-1.9598 2.6954l-1.995 2.6689-2.0256 2.6458c-0.679 0.87915-1.3666 1.7517-2.0612 2.619 0.64569-0.90421 1.2984-1.8031 1.9596-2.6956l1.9952-2.6687 2.0258-2.6457c0.67896-0.8791 1.3666-1.7516 2.0609-2.6192l6.1e-5 -7.63e-5v9.16e-5z"/>
	<path class="clear" d="m172.79 156.17c-0.69595 1.1047-1.3986 2.2049-2.1106 3.299l-2.1473 3.2746-2.1793 3.2535c-0.73039 1.0819-1.4698 2.1578-2.2164 3.2289 0.69559-1.1048 1.3985-2.205 2.1104-3.2991l2.1476-3.2744 2.1795-3.2534c0.73033-1.082 1.4699-2.1579 2.2163-3.2292l-9.16e-5 6.1e-5 -4.58e-5 4.58e-5v1.53e-5z"/>
	<path class="clear" d="m159.49 147.31c-0.98668 1.3976-1.9801 2.7903-2.9824 4.1765l-3.0179 4.1506-3.0487 4.1279c-1.0201 1.3731-2.0489 2.7399-3.0847 4.1017 0.98648-1.3977 1.9799-2.7904 2.9821-4.1767l3.0182-4.1503 3.0489-4.1278c1.0201-1.3732 2.049-2.74 3.0845-4.1018l-1.53e-5 -7.63e-5 1.53e-5 -7.63e-5v-6.1e-5z"/>
	<path class="clear" d="m184.55 147.54c-0.80893 1.4432-1.625 2.8823-2.4506 4.3158l-2.4886 4.2936-2.5217 4.2743c-0.84464 1.4223-1.6986 2.8392-2.5602 4.2518 0.80864-1.4434 1.6248-2.8824 2.4503-4.3159l2.4889-4.2935 2.522-4.2742c0.84459-1.4224 1.6987-2.8394 2.56-4.2521l-6.1e-5 7.63e-5 -4.58e-5 1.53e-5v1.5e-5z"/>
	<path class="clear" d="m189.99 147.31c-0.48306 1.1272-0.97368 2.251-1.4743 3.3702l-1.5144 3.3519-1.5491 3.336c-0.52075 1.11-1.0512 2.2155-1.5897 3.3174 0.48279-1.1273 0.97353-2.2511 1.474-3.3703l1.5146-3.3517 1.5494-3.3358c0.52069-1.11 1.0512-2.2155 1.5894-3.3176l1.53e-5 -6.1e-5 4.57e-5 -3.05e-5z"/>
	<path class="clear" d="m189.99 148.9c-0.34064 0.91655-0.68889 1.8301-1.0474 2.7395l-1.0882 2.7229-1.1236 2.7085c-0.379 0.901-0.76799 1.798-1.165 2.6917 0.34035-0.91675 0.68878-1.8302 1.0471-2.7396l1.0885-2.7228 1.1239-2.7085c0.37892-0.90109 0.76799-1.798 1.1648-2.6918l1.53e-5 6.1e-5 -3.05e-5 3.06e-5z"/>
	<path class="clear" d="m185.38 147.84c-0.76329 1.6977-1.5342 3.3918-2.315 5.0815l-2.3549 5.0625-2.3896 5.0465c-0.80086 1.6801-1.6114 3.3556-2.43 5.0275 0.76303-1.6978 1.534-3.3918 2.3148-5.0815l2.3551-5.0625 2.3898-5.046c0.8008-1.6801 1.6115-3.3557 2.4297-5.0275v-5.035e-4 1.52e-5z"/>
	<path class="clear" d="m155.37 147.45c-1.0678 1.3759-2.1422 2.7465-3.225 4.1103l-3.2594 4.0827-3.2891 4.0587c-1.1001 1.3499-2.2087 2.6931-3.3239 4.0308 1.0676-1.3759 2.142-2.7466 3.2247-4.1103l3.2596-4.0824 3.2893-4.0585c1.1001-1.35 2.2086-2.6931 3.3237-4.031h7.63e-5l-1.53e-5 -6.1e-5v-3.06e-5z"/>
	<path class="clear" d="m142.27 147.33c-1.0009 1.3492-2.0084 2.6933-3.0246 4.0308l-3.0594 4.004-3.0898 3.9807c-1.0338 1.3239-2.076 2.6414-3.1252 3.9534 1.0006-1.3494 2.0082-2.6934 3.0244-4.0309l3.0597-4.0037 3.0901-3.9805c1.0337-1.324 2.0761-2.6414 3.1251-3.9537h-7.63e-5l-1.068e-4 -7.63e-5v1.53e-5z"/>
	<path class="clear" d="m129.23 119.72c-0.52374 0.58535-1.0534 1.1649-1.591 1.737l-1.6227 1.7063-1.6502 1.6798c-0.55354 0.55655-1.1148 1.1057-1.6824 1.6488 0.52349-0.58555 1.0533-1.165 1.5908-1.7372l1.6229-1.7061 1.6505-1.6796c0.55344-0.55665 1.1148-1.1057 1.6822-1.649h-9.16e-5z"/>
	<path class="clear" d="m133.77 115.02c-0.5282 0.63815-1.0919 1.2421-1.664 1.8379-0.57655 0.59145-1.1618 1.1746-1.7828 1.7232 0.52788-0.63845 1.0916-1.2423 1.664-1.8379 0.57683-0.59121 1.1621-1.1744 1.7828-1.7232v7.6e-6 -7.6e-6z"/>
	<path class="clear" d="m150.35 97.88c-0.48183 0.54185-0.96964 1.0779-1.4654 1.6064l-1.497 1.5759-1.5246 1.5494c-0.5116 0.5131-1.031 1.0188-1.5566 1.5183 0.48164-0.54205 0.96953-1.078 1.4651-1.6066l1.4972-1.5756 1.5248-1.5492c0.51158-0.5132 1.031-1.0188 1.5564-1.5185l7.63e-5 -6.1e-5 -3.05e-5 1.53e-5v-7.5e-6z"/>
	<path class="clear" d="m167.98 79.645l-0.051605 0.057342-0.001358 5.951e-4 -0.0032501 6.87e-5 0.001297-5.341e-4c-0.78099 0.85175-1.5693 1.6964-2.3642 2.5347l-2.3957 2.5043-2.4228 2.4782c-0.811 0.82285-1.6298 1.6382-2.4546 2.4476 0.78119-0.85155 1.5684-1.6973 2.3634-2.5355l2.3952-2.5049 2.4223-2.4788c0.81105-0.8227 1.6287-1.6391 2.4538-2.4484l0.0013733-5.951e-4 0.0032501 6.87e-5 -0.0012207 5.264e-4 0.054184-0.054901-1.53e-5 -4.58e-5v1.297e-4z"/>
	<path class="clear" d="m157.19 90.805c-0.85118 0.9784-1.7483 1.9126-2.6415 2.8503-0.90718 0.92435-1.8105 1.8525-2.7603 2.7357 0.85078-0.9788 1.7481-1.9127 2.6415-2.8503 0.90738-0.92415 1.8108-1.8521 2.7604-2.7356h-6.1e-5z"/>
	<path class="clear" d="m143.21 105.26c-0.64861 0.71475-1.3032 1.4237-1.9657 2.1251l-1.9973 2.0945-2.0249 2.0679c-0.67844 0.686-1.3646 1.3645-2.057 2.037 0.64841-0.71495 1.303-1.4238 1.9654-2.1253l1.9976-2.0943 2.0251-2.0677c0.67833-0.68605 1.3646-1.3645 2.0568-2.0372h4.58e-5v4.57e-5z"/>
	<path class="clear" d="m143.21 88.165c-0.81374 0.88515-1.6334 1.7645-2.461 2.6363l-2.4927 2.6057-2.5202 2.5792c-0.84354 0.8564-1.6948 1.7053-2.5524 2.5482 0.81355-0.8853 1.6333-1.7646 2.4608-2.6365l2.493-2.6055 2.5204-2.5789c0.84343-0.8564 1.6948-1.7053 2.5522-2.5484l-6.1e-5 6.1e-5 1.53e-5 3.05e-5v-4.57e-5z"/>
	<path class="clear" d="m148.51 82.68c-0.65048 0.7714-1.3468 1.4985-2.0394 2.2292-0.70653 0.71735-1.4091 1.4385-2.1583 2.1147 0.65005-0.7717 1.3467-1.4986 2.0394-2.2292 0.70663-0.7172 1.4095-1.438 2.1583-2.1146v-6.87e-5 1.53e-5z"/>
	<path class="clear" d="m131.75 100.01c-0.1902 0.28912-0.41595 0.54395-0.65009 0.7907-0.23863 0.2424-0.48589 0.47651-0.76898 0.676 0.1899-0.2894 0.4157-0.5442 0.65009-0.7907 0.23892-0.24215 0.48616-0.47622 0.76898-0.676z"/>
	<path class="clear" d="m116.91 115.36c1.005-1.0831 2.016-2.1603 3.035-3.23l3.0666-3.1995 3.0941-3.173c1.0348-1.0544 2.0774-2.1012 3.1263-3.142-1.0048 1.0833-2.0159 2.1604-3.0348 3.2302l-3.0669 3.1993-3.0943 3.1728c-1.0348 1.0544-2.0774 2.1011-3.126 3.1422v-6.1e-5l-7.6e-6 7.6e-6v7.4e-6z"/>
	<path class="clear" d="m128.34 100.4c-0.93118 0.9834-1.8682 1.961-2.813 2.9308l-2.8443 2.8999-2.8716 2.873c-0.96063 0.9543-1.9288 1.9011-2.9033 2.8417 0.93093-0.9836 1.868-1.9611 2.8128-2.9309l2.8445-2.8997 2.8718-2.8728c0.96053-0.9543 1.9288-1.901 2.9031-2.8419v7.6e-6 -6.85e-5z"/>
	<path class="clear" d="m145.42 83.155c-0.14 0.23292-0.31517 0.43115-0.4986 0.62125-0.1879 0.18569-0.38429 0.36298-0.61615 0.50525 0.13968-0.23322 0.31488-0.43142 0.4986-0.62125 0.18816-0.18542 0.38457-0.36267 0.61618-0.5052l-3.05e-5 -5.34e-5v7.6e-6z"/>
	<path class="clear" d="m143.21 85.39c-1.0519 1.1053-2.1097 2.2049-3.1752 3.2966l-3.2065 3.2657-3.2337 3.2389c-1.0813 1.0762-2.1703 2.145-3.2655 3.2076 1.0516-1.1055 2.1095-2.205 3.175-3.2968l3.2068-3.2655 3.234-3.2386c1.0812-1.0763 2.1703-2.145 3.2653-3.2077l-6.1e-5 7.6e-6 4.58e-5 -7.6e-6v-7.5e-6z"/>
	<path class="clear" d="m147.73 113.87c-0.51636 0.76615-1.0829 1.493-1.6452 2.223-0.57761 0.71806-1.151 1.4396-1.7751 2.121 0.51595-0.7665 1.0827-1.493 1.6452-2.223 0.57773-0.71795 1.1514-1.4392 1.7752-2.121h-6.1e-5v-7.6e-6z"/>
	<path class="clear" d="m143.21 119.61c-0.727 1.0337-1.5041 2.0281-2.2771 3.0256-0.78818 0.98565-1.5722 1.9746-2.407 2.9238 0.72653-1.034 1.504-2.0282 2.277-3.0256 0.78839-0.9855 1.5726-1.9743 2.407-2.9237l6.1e-5 -6.1e-5 3.05e-5 1.53e-5v-7.7e-6z"/>
	<path class="clear" d="m170.78 84.59c-0.67026 0.9004-1.3471 1.7957-2.0326 2.6842l-2.0672 2.6571-2.0972 2.6335c-0.70284 0.87485-1.4142 1.7431-2.1324 2.606 0.67003-0.9006 1.347-1.7959 2.0323-2.6845l2.0674-2.6569 2.0975-2.6333c0.70279-0.87495 1.4142-1.743 2.1321-2.6061v-7.6e-6h-1.53e-5v-3.81e-5z"/>
	<path class="clear" d="m157.19 101.85c-0.67194 0.90235-1.3504 1.7996-2.0375 2.69l-2.0722 2.6628-2.1022 2.6393c-0.70453 0.8768-1.4175 1.7469-2.1373 2.6117 0.67174-0.90255 1.3503-1.7997 2.0373-2.6902l2.0724-2.6627 2.1024-2.6391c0.70444-0.87685 1.4175-1.7469 2.1371-2.6118v-5.34e-5z"/>
	<path class="clear" d="m169.38 112.91c-0.67194 0.90235-1.3504 1.7996-2.0375 2.69l-2.0722 2.6629-2.1022 2.6393c-0.70453 0.8768-1.4175 1.7469-2.1373 2.6117 0.67171-0.90255 1.3502-1.7997 2.0373-2.6902l2.0724-2.6627 2.1024-2.6391c0.70444-0.87685 1.4175-1.7469 2.1371-2.6119v-7.6e-6l6.1e-5 7.6e-6v4.58e-5z"/>
	<path class="clear" d="m127.66 88.115c-0.83154 0.7583-1.6685 1.5102-2.5127 2.254l-2.5415 2.2207-2.5665 2.1918c-0.85864 0.727-1.7243 1.4458-2.5957 2.1581 0.83138-0.7585 1.6684-1.5105 2.5125-2.2541l2.5417-2.2205 2.5667-2.1916c0.85858-0.72705 1.7244-1.4458 2.5956-2.1582l-6.1e-5 -6.1e-5 1.53e-5 -3.81e-5v-7.6e-6z"/>
	<path class="clear" d="m161.31 96.62c-0.45277 0.6789-0.94434 1.3273-1.4451 1.9686-0.50571 0.6374-1.0208 1.2674-1.575 1.8666 0.45244-0.6792 0.94409-1.3276 1.4451-1.9686 0.50598-0.63715 1.0211-1.2672 1.575-1.8666z"/>
	<path class="clear" d="m193.09 110.55c-0.29579 0.6495-0.63455 1.2747-0.98338 1.894-0.35431 0.6163-0.71899 1.2266-1.1271 1.8124 0.29541-0.6497 0.63419-1.2748 0.98338-1.894 0.35461-0.6161 0.71939-1.2264 1.1271-1.8124z"/>
	<path class="clear" d="m188.63 113.01c-0.17532 0.3874-0.39215 0.7479-0.61873 1.1021-0.23184 0.35075-0.47366 0.695-0.75728 1.012 0.17502-0.38762 0.39185-0.7481 0.61873-1.1021 0.23216-0.35056 0.47404-0.6948 0.75728-1.012z"/>
	<path class="clear" d="m186.55 122.02c-0.61545 1.2175-1.2864 2.4034-1.9526 3.5919-0.68311 1.1789-1.3616 2.3606-2.0962 3.5103 0.61499-1.2177 1.2862-2.4035 1.9526-3.5919 0.68333-1.1789 1.362-2.3604 2.0962-3.5103v-7.6e-6z"/>
	<path class="clear" d="m189.91 116.14c-0.38168 0.80786-0.81879 1.5842-1.2514 2.3631-0.44937 0.76935-0.89403 1.5414-1.395 2.2815 0.3812-0.80805 0.81863-1.5843 1.2514-2.3631 0.44957-0.7693 0.89453-1.5411 1.395-2.2815z"/>
	<path class="clear" d="m191.72 108.27c-0.13788 0.32961-0.31722 0.6323-0.50629 0.92865-0.19434 0.29298-0.3987 0.5794-0.64485 0.8387 0.13753-0.32985 0.31689-0.6325 0.5063-0.92865 0.19463-0.29275 0.39899-0.5792 0.64484-0.83865v-6.1e-5 1.53e-5z"/>
	<path class="clear" d="m184.15 119.9c-0.26358 0.52285-0.56863 1.0188-0.88339 1.5083-0.32004 0.48619-0.65009 0.96585-1.022 1.4184 0.26321-0.5231 0.56834-1.019 0.88339-1.5083 0.32036-0.48601 0.65045-0.96565 1.022-1.4184z"/>
	<path class="clear" d="m184.83 118.86l-3.967e-4 -0.003273 6.1e-5 -2.594e-4c0.24062-0.48698 0.5226-0.94705 0.81425-1.4008 0.29695-0.45034 0.60379-0.8942 0.95253-1.311-0.24014 0.48725-0.52209 0.94736-0.81395 1.4011-0.29713 0.45021-0.60393 0.8942-0.95218 1.3112l3.05e-5 -1.602e-4 -3.815e-4 0.0032654 1.53e-5 2.29e-5 1.53e-5 7.6e-6v-5.35e-5z"/>
	<path class="clear" d="m181.58 123.84c-0.32921 0.62305-0.69978 1.2193-1.0802 1.8091-0.38562 0.5864-0.78134 1.1662-1.2188 1.719 0.32884-0.62335 0.69949-1.2195 1.0802-1.8091 0.38596-0.5862 0.78163-1.166 1.2188-1.719v7.6e-6 -7.6e-6z"/>
	<path class="clear" d="m189.91 111.05c-0.058441 0.20838-0.15837 0.38993-0.26805 0.56515-0.11494 0.17184-0.23991 0.33718-0.40677 0.47543 0.05809-0.20861 0.15802-0.39014 0.26804-0.56515 0.11523-0.17162 0.24025-0.33695 0.40678-0.47543v7.6e-6z"/>
	<path class="clear" d="m181.45 104.11c-0.35802 0.65475-0.72308 1.3053-1.0977 1.9501l-1.1354 1.9275-1.1682 1.9078c-0.39352 0.63345-0.79623 1.2615-1.2065 1.8849 0.35774-0.65495 0.72299-1.3054 1.0974-1.9503l1.1357-1.9274 1.1684-1.9077c0.39349-0.6335 0.79636-1.2615 1.2063-1.885v-7.6e-6l-1.53e-5 1.52e-5z"/>
	<path class="clear" d="m185.33 97.655c-0.45636 0.8912-0.96744 1.7497-1.474 2.6108-0.52315 0.85115-1.0416 1.7052-1.6156 2.5259 0.45593-0.89155 0.96733-1.7498 1.474-2.6108 0.52333-0.85105 1.0421-1.7049 1.6156-2.5259z"/>
	<path class="clear" d="m179.88 102.79c-0.6013 0.85535-1.2523 1.6709-1.8993 2.4896-0.66199 0.8066-1.3198 1.6166-2.028 2.3863 0.60089-0.85575 1.2521-1.6709 1.8992-2.4896 0.66214-0.80655 1.3202-1.6163 2.028-2.3863h6.1e-5z"/>
	<path class="clear" d="m181.32 101c-0.030319 0.091904-0.085281 0.16395-0.13835 0.23755-0.060547 0.067589-0.11908 0.1368-0.20265 0.18584 0.03006-0.092049 0.085175-0.164 0.13832-0.23754 0.060547-0.067558 0.11929-0.13659 0.20268-0.18585z"/>
	<path class="clear" d="m184.53 97.02c-0.28728 0.45921-0.61305 0.8874-0.94789 1.3084-0.33972 0.41708-0.68874 0.82665-1.0766 1.2049 0.28693-0.45947 0.61269-0.8877 0.94789-1.3084 0.33998-0.41685 0.68904-0.8264 1.0766-1.205v5.34e-5z"/>
	<path class="clear" d="m51.409 160.29c-0.62694 0.98875-1.3057 1.9402-1.9802 2.8948-0.69024 0.94334-1.376 1.8898-2.1144 2.7986 0.62649-0.98904 1.3055-1.9404 1.9802-2.8949 0.69039-0.94325 1.3764-1.8896 2.1144-2.7986v1.831e-4z"/>
	<path class="clear" d="m60.769 145.31c-0.66699 1.1808-1.341 2.3573-2.0246 3.5282l-2.0625 3.5058-2.0954 3.4862c-0.70259 1.1597-1.4144 2.3138-2.1338 3.4634 0.66674-1.1809 1.3409-2.3573 2.0244-3.5283l2.0627-3.5056 2.0956-3.4861c0.70253-1.1597 1.4144-2.3138 2.1335-3.4636h6.87e-5l-1.53e-5 1.53e-5v-1.54e-5z"/>
	<path class="clear" d="m61.979 145.71c-0.73504 1.6969-1.4777 3.3903-2.2303 5.079l-2.2704 5.061-2.3053 5.0455c-0.77279 1.6798-1.5554 3.3551-2.346 5.027 0.73479-1.697 1.4775-3.3903 2.23-5.0795l2.2707-5.061 2.3056-5.045c0.77274-1.6799 1.5554-3.3552 2.3457-5.027h7.5e-6z"/>
	<path class="clear" d="m24.636 130.19c-0.26172 0.33626-0.55744 0.63664-0.86119 0.92865-0.30804 0.28746-0.62429 0.56619-0.97483 0.80881 0.26143-0.33655 0.55719-0.6369 0.86119-0.92865 0.3083-0.28716 0.62459-0.56599 0.97483-0.80885v4.57e-5z"/>
	<path class="clear" d="m34.962 120.43c-0.68664 0.69145-1.379 1.3769-2.0789 2.0544l-2.1092 2.0225-2.1355 1.9947c-0.71514 0.6615-1.4376 1.3151-2.1662 1.9624 0.68644-0.69165 1.3788-1.3771 2.0787-2.0546l2.1094-2.0222 2.1357-1.9945c0.71504-0.6615 1.4376-1.3151 2.166-1.9626 0 0 0-7.6e-6 -3.8e-6 -7.6e-6v1.52e-5z"/>
	<path class="clear" d="m24.636 126.83c-0.51814 0.48606-1.0417 0.96585-1.5725 1.4373l-1.6012 1.404-1.6262 1.3751c-0.54519 0.4547-1.0974 0.90131-1.6554 1.3414 0.51794-0.4863 1.0416-0.966 1.5723-1.4375l1.6014-1.4038 1.6264-1.3748c0.54509-0.45482 1.0974-0.90135 1.6552-1.3416l-1.9e-6 -6.87e-5v-5.35e-5z"/>
	<path class="clear" d="m31.952 120.53c-0.86874 0.83805-1.779 1.6277-2.686 2.4214-0.91958 0.77905-1.8356 1.5622-2.7938 2.2964 0.86834-0.83845 1.7789-1.6279 2.686-2.4214 0.91973-0.7789 1.8359-1.5619 2.7938-2.2964z"/>
	<path class="clear" d="m37.478 129.86c-0.25885 0.36522-0.55354 0.69646-0.85664 1.0196-0.30764 0.31889-0.62394 0.62955-0.97644 0.9059 0.25855-0.36552 0.55324-0.6967 0.85664-1.0197 0.3079-0.3186 0.62429-0.62926 0.97643-0.9059v7.63e-5 -3.05e-5z"/>
	<path class="clear" d="m47.505 119.33c-0.66394 0.7413-1.3338 1.4769-2.0118 2.2049l-2.0437 2.1746-2.0714 2.1484c-0.69394 0.7128-1.3957 1.4182-2.1038 2.1176 0.66369-0.7415 1.3337-1.477 2.0116-2.2051l2.0438-2.1745 2.0716-2.1481c0.69384-0.71285 1.3957-1.4182 2.1036-2.1178l6.87e-5 7.6e-6 3.05e-5 -7.6e-6v4.58e-5z"/>
	<path class="clear" d="m37.498 126.03c-0.96119 0.9631-1.9653 1.879-2.9658 2.7988-1.0136 0.9055-2.0235 1.815-3.0769 2.6767 0.96083-0.9635 1.9652-1.8792 2.9658-2.7988 1.0136-0.90535 2.0238-1.8146 3.0768-2.6767h6.48e-5l3.43e-5 -1.53e-5v1.53e-5z"/>
	<path class="clear" d="m44.109 120.04c-0.76319 0.78365-1.5693 1.5201-2.3718 2.2605-0.81554 0.72605-1.6274 1.4561-2.4828 2.1384 0.76278-0.7841 1.5691-1.5203 2.3718-2.2605 0.81564-0.72585 1.6278-1.4557 2.4828-2.1384z"/>
	<path class="clear" d="m13.592 129.02c-0.71804 0.7023-1.4776 1.3562-2.2336 2.0141-0.76864 0.64314-1.5338 1.2905-2.3409 1.8887 0.71764-0.70274 1.4774-1.3564 2.2336-2.0141 0.76879-0.64305 1.5342-1.2901 2.341-1.8887h-6.58e-5 1.52e-5z"/>
	<path class="clear" d="m22.287 121.6c-0.56574 0.52245-1.1368 1.0386-1.7152 1.5464l-1.7437 1.513-1.7686 1.4839c-0.59264 0.49102-1.1923 0.97385-1.7976 1.4501 0.56554-0.52265 1.1368-1.0387 1.715-1.5467l1.7439-1.5127 1.7688-1.4837c0.59259-0.49107 1.1922-0.97385 1.7974-1.4503v-2.29e-5 1.53e-5 -3.08e-5z"/>
	<path class="clear" d="m13.545 125.57c-0.69464 0.5544-1.3943 1.1021-2.1004 1.6411l-2.1268 1.6057-2.1496 1.5751c-0.71939 0.52119-1.4452 1.0338-2.1763 1.5394 0.69454-0.55466 1.3942-1.1023 2.1003-1.6413l2.1269-1.6055 2.1498-1.5749c0.71939-0.5213 1.4452-1.0338 2.1761-1.5396l6.68e-5 -6.1e-5 -6.58e-5 -2.29e-5v3.06e-5z"/>
	<path class="clear" d="m18.886 121.6c-0.56544 0.50075-1.1604 0.96185-1.7624 1.4137-0.60569 0.44678-1.2184 0.88395-1.8611 1.2812 0.56519-0.50105 1.1602-0.9621 1.7624-1.4137 0.60589-0.44648 1.2187-0.8836 1.8611-1.2812z"/>
	<polygon class="dark-shade" points="179.05 47.546 179.05 47.543 179.01 47.452"/>
	<path class="clear" d="m71.894 145.89c-0.67459 1.642-1.3568 3.2809-2.0491 4.9153l-2.0896 4.8979-2.1247 4.8828c-0.71264 1.6257-1.4352 3.2471-2.1657 4.8651 0.67434-1.6422 1.3566-3.2809 2.0488-4.9153l2.0898-4.8978 2.125-4.8826c0.71259-1.6257 1.4352-3.2472 2.1655-4.8653l-6.1e-5 -6.1e-5 5.34e-5 -3.05e-5v3.06e-5z"/>
	<path class="clear" d="m72.729 147.58c-0.57195 1.4872-1.1516 2.9713-1.7414 4.4512l-1.7822 4.4346-1.8176 4.4202c-0.61034 1.4716-1.2306 2.9391-1.859 4.4035 0.57169-1.4872 1.1514-2.9713 1.7411-4.4512l1.7825-4.4345 1.8179-4.4201c0.61024-1.4717 1.2306-2.9391 1.8588-4.4036h6.1e-5l-1.144e-4 -1.068e-4v4.59e-5z"/>
	<polygon class="dark-shade" points="4.0873 122.46 13.763 121.54 13.763 133.22 14.771 133.17 14.771 121.48 24.861 120.56 24.833 132.67 25.934 132.6 25.934 120.41 37.617 119.26 37.637 132.04 38.731 131.99 38.731 119.21 49.218 118.35 49.218 117.09 2.7228 121.54 2.7228 133.72 4.0873 133.72"/>
	<polygon class="dark-shade" points="58.984 105.17 58.984 95.63 69.039 94.06 69.039 93.265 21.621 100.75 21.621 109.93 22.866 109.72 22.866 101.31 29.83 100.2 29.83 108.76 30.735 108.64 30.735 100.05 38.839 98.795 38.839 107.65 39.708 107.54 39.708 98.615 48.146 97.385 48.146 106.59 49.015 106.47 49.015 97.12 58.044 95.685 58.044 105.34"/>
	<path class="dark-shade" d="m173.83 77.56l-58.579 8.974v40.837l1.6533-0.081184v-10.864l12.32-1.0186v11.271l-5.4524 0.27403 47.007-2.308v-0.063263l-0.001297 4.58e-5 -12.493 0.63245v-12.21l12.493-1.0386v-1.3182l-12.493 1.0319v-14.706l12.493-1.438v-1.3182l-12.493 1.4314v-14.46l12.493-1.9174 3.0266-0.45932 2.2066 3.4418-3.204e-4 0.23746 5.5669 9.1095v10.939l-5.5854-6.8265-0.0023956 1.7347 5.5874 6.829v11.703l-5.6064-4.9023-0.0021973 1.5894 5.6084 4.9639v10.998l-0.37968-0.20349 4.2577 2.3199-3.218-1.7569v-10.771l4.3533 3.8547v9.2925l3.2198 1.7544-2.5532-1.3936-0.08667-9.061 2.7333 2.3367v8.1685l0.70743 0.38545-0.047455-0.025879v-7.9425l2.5866 2.2036v7.148l0.99338 0.54124v-24.473l-20.313-33.447-1.53e-5 4.12e-4 3.052e-4 -5.569e-4v7.781e-4zm-44.606 36.523l-12.32 1.0186v-13.242l12.32-1.5512v13.774-3.967e-4zm0-15.099l-12.32 1.418v-12.876l12.32-1.8907v13.348-7.6e-6 3.586e-4 -1.526e-4zm13.98 26.989l-12.88 0.6458v-11.305l12.88-1.0651v11.724-4.58e-5 3.892e-4zm0-13.049l-12.88 1.0719v-13.814l12.88-1.478v14.221zm0-15.545l-12.88 1.4846v-13.395l12.88-1.9706v13.881zm13.98 27.888l-12.88 0.64575v-11.757l12.88-1.0651v12.177-9.92e-5zm0-13.495l-12.88 1.0651v-14.26l12.88-1.478v14.673-1.908e-4zm0-15.997l-12.88 1.478v-13.927l12.88-1.9706v14.42-3.51e-4zm29.406 24.646l-4.3532-3.8547v-11.331l4.3532 5.259v9.9262zm0-11.578l-4.3532-5.399v-10.919l4.3799 7.2835-0.026642 9.034h-6.1e-5zm3.3133 14.593l-2.6466-2.4233v-9.7l2.6466 3.2755v8.848-1.526e-4zm0-10.499l-2.6466-3.2755v-8.6545l2.6466 4.2607v7.6695-2.441e-4zm3.2466 13.295l-2.5866-2.2968v-8.6145l2.5866 3.2954v7.616-9.92e-5zm0-9.267l-2.5866-3.149v-7.35l2.5866 4.2075v6.2915-7.6e-6 7.6e-6 -5.33e-5z"/>
	<path d="m88.454 85.535c0.81338-0.13917 1.6103-0.37086 2.3821-0.68445 5.0214-2.0398 8.9803-7.547 9.5138-13.601l0.031578 0.14835 0.046349-0.0098343-0.06881-0.32323-8.545e-4 1.602e-4c0.030556-0.39906 0.053795-0.79935 0.053795-1.2021 0-2.2496-0.48628-4.2514-1.3463-5.9135v-0.0032921c-1.6356-3.1698-4.6203-5.0905-8.1364-5.09l7.63e-5 3.281e-4c-0.80045 3.81e-5 -1.6292 0.099628-2.475 0.30666-6.2819 1.536-11.214 8.46-11.214 15.513 0 5.199 2.6786 9.215 6.6004 10.537 5.341e-4 3.204e-4 0.0010605 7.324e-4 0.0015869 0.0010529 0.0032959 0 0.0032959 0.0032883 0.0066376 0.0032883 0.90494 0.30338 1.8747 0.4644 2.8936 0.4644 0.55654 0 1.1279-0.048065 1.711-0.14729l3.128e-4 -3.51e-4 -7.63e-5 3.51e-4v1.51e-5zm-10.882-10.858c0-3.3538 1.1326-6.7745 3.1891-9.6325 2.0606-2.8633 4.8209-4.8377 7.7724-5.56 0.80538-0.19715 1.6116-0.29715 2.3964-0.29723l5.722e-4 -0.3303v0.33015h1.602e-4c2.8835 0 5.3884 1.3108 7.0619 3.6401-1.549-1.3809-3.5183-2.1701-5.7089-2.17l2.441e-4 6.065e-4c-0.7534 4.2e-5 -1.5324 0.092159-2.3276 0.28355-6.0239 1.4535-10.76 8.1065-10.76 14.905 0 3.5996 1.3302 6.6085 3.4749 8.494-3.1354-1.6852-5.0984-5.3225-5.0984-9.664l-1.831e-4 3.204e-4 -1.907e-4 2.441e-4v1.55e-5zm6.4084 10.207h-0.043213c-2.7639-1.7441-4.4111-5.1145-4.4111-9.038 0-3.2297 1.0865-6.52 3.0594-9.2635 1.9756-2.7482 4.6208-4.6374 7.4479-5.3195 0.75623-0.18204 1.5134-0.27432 2.2504-0.27436l-3.81e-5 -3.662e-4c2.5722 0 4.8784 1.1124 6.4984 3.1336 0.86224 1.674 1.2994 3.6059 1.2994 5.742 0 3.555-1.2326 7.12-3.4709 10.04-1.9039 2.4829-4.321 4.215-6.9094 4.9922-0.43009 0.12909-0.86353 0.23897-1.3016 0.31394-0.55624 0.094589-1.1132 0.14254-1.6555 0.14254-0.93983 0-1.8543-0.14271-2.7192-0.42438l-0.04419-0.04332-2.823e-4 2.747e-4 2.29e-5 -5.417e-4v-9.18e-5z"/>
	<path d="m128.32 100.23h3.204e-4l-11.578 1.3283v13.709l1.221e-4 -3.204e-4 0.17972-0.01487 1.602e-4 0.0018692 12.473-1.0319v-14.114l-5.646e-4 8.39e-5v-0.0019073l-1.0744 0.12352 3.05e-5 2.29e-5 -3.51e-4 1.602e-4v3.81e-5zm0.74379 13.685l-11.991 0.99325v-13.052l11.991-1.3744v13.434-3.967e-4z"/>
	<path d="m157.35 96.91l-13.212 1.5181v14.587l13.212-1.0942v-15.011l1.53e-5 2.747e-4 -1.53e-5 -1.755e-4v5.34e-5zm-0.33121 14.706l-12.55 1.0397v-13.934l12.55-1.4418v14.336z"/>
	<path d="m143.37 98.515l-11.646 1.3394-1.5658 0.17842v14.139l13.212-1.0945v-14.562h-2.136e-4v3.05e-5 -4.044e-4zm-0.33095 14.257l-12.55 1.0396v-13.484l12.55-1.442v13.887-3.281e-4 3.281e-4 -5.34e-5z"/>
	<polygon points="30.517 83.695 44.502 80.705 58.469 77.64 65.449 76.08 72.414 74.485 65.414 75.92 58.414 77.39 44.432 80.38 30.464 83.45 23.486 85.01 16.515 86.595 23.52 85.165"/>
	<path d="m127.68 63.095l-9.2263 2.0197c-3.0725 0.6865-6.1439 1.3784-9.2078 2.1057l1.221e-4 8.39e-5c3.0925-0.5941 6.1774-1.2236 9.2613-1.8584l9.2423-1.9444 9.2263-2.0191 4.6076-1.0361 4.6003-1.0701-4.6343 0.9119-4.627 0.94595-9.2423 1.945 1.53e-5 -1.91e-5 -1.297e-4 3.43e-5v-5.72e-5z"/>
	<path d="m69.314 104.15l-0.077606-11.005-47.922 7.573v9.4035l47.999-5.9715h1.069e-4zm-39.718 4.5882l-6.6209 0.83935v-8.15l6.6209-1.0258v8.337-4.959e-4zm0.87149-0.11049l-0.53834 0.068253v-8.264l0.53834-0.086151v8.282-9.16e-5 7.6e-6 -1.53e-5zm8.1219-1.0296l-7.7889 0.98735v-8.371l7.7889-1.2067v8.5904zm0.87148-0.1105l-0.53834 0.06826v-8.561l0.53834-0.086021v8.579-2.442e-4zm0.33306-0.042229v-8.6235l8.1234-1.2586 0.048718 8.846-8.1719 1.0359-3.853e-4 1.297e-4 1.678e-4 -2.289e-4v1.984e-4zm8.9939-1.1402l-0.48906 0.062035-0.04847-8.793 0.53754-0.07972v8.8105l7.6e-6 -3.052e-4 -1.91e-5 7.6e-6v4.807e-4zm9.1214-1.1563l-8.7884 1.1142v-8.886l8.7884-1.3615v9.134-3.433e-4 9.92e-5 -3.586e-4zm0.87148-0.11049l-0.53834 0.068253v-9.1055l0.53834-0.080849v9.118-5.34e-5 1.602e-4 -7.6e-6zm10.099-1.2299l-9.7658 1.1877v-9.1675l9.7843-1.5158-0.018707 9.496 2.136e-4 -3.586e-4zm0.02253-10.276l-0.0025787 0.44513-46.257 7.1665v0.0047607l-0.63374-0.20639 46.894-7.41-9.16e-5 2.747e-4 -8.39e-5 -1.221e-4 1.15e-5 -1.525e-4zm-47.253 16.213v-8.5725l0.99313 0.32339v8.1225l-0.99313 0.1259v7.171e-4z"/>
	<path d="m161.41 162.9c0.005127 0 0.01033 3.204e-4 0.015823 3.204e-4v-4.58e-5c0.10239 0 0.19931-0.037384 0.26779-0.10321 0.061706-0.059311 0.095596-0.13708 0.095596-0.21935v-5.863c0-0.18295-0.16212-0.32971-0.3692-0.33455-0.10661-0.001297-0.21033 0.036453-0.28203 0.10582-0.061035 0.059677-0.094635 0.13774-0.094635 0.21938v5.857c0 0.18163 0.16116 0.32967 0.36665 0.33742v-1.53e-5 2.443e-4zm0.0022735-6.1895c0.029022 6.866e-4 0.046509 0.013245 0.046188 0.0042267l0.0058136 5.8445c-0.0022736 0.002243-0.019409 0.0084076-0.042023 0.010361v-4.58e-5c-0.029388-9.766e-4 -0.048462-0.015488-0.048142-0.0070648l-0.0048065-5.84c0.00354-0.0039062 0.020676-0.011993 0.042969-0.011993v-1.53e-5 6.1e-5 -3.05e-5z"/>
	<path d="m177.85 160.27h0.010986v-3.05e-5c0.072678 0 0.14116-0.026123 0.18994-0.072891 0.044281-0.042587 0.068481-0.098419 0.068481-0.15742v-3.9727c0-0.13036-0.11499-0.23552-0.26228-0.23909-0.080765 6.409e-4 -0.14925 0.026123-0.19966 0.075485-0.043579 0.042648-0.067505 0.098419-0.067505 0.15681v3.9692c0 0.12938 0.11404 0.23518 0.26004 0.24066v-3.05e-5 1.52e-5zm0.021332-4.203v4.58e-5l0.0077667 3.9514c-0.001297 9.766e-4 -0.0029297 0.0051727-0.020065 0.0039062l-0.0044708 0.12386-0.016525-0.11679-0.0070801-3.9489 0.040375-0.013519v-1.53e-5 4.58e-5 -3.05e-5z"/>
	<path d="m179.51 159.94h0.010986c0.072678 0 0.14116-0.026108 0.18994-0.072922 0.044235-0.042542 0.068451-0.098373 0.068451-0.15742v-3.9727c0-0.13037-0.11496-0.23552-0.2623-0.23911-0.077179-0.0038452-0.14888 0.026138-0.19962 0.0755-0.043625 0.042633-0.067535 0.098434-0.067535 0.15681v3.9692c0 0.12938 0.11404 0.23518 0.26007 0.24066v-3.05e-5 1.52e-5zm0.021286-4.203v3.05e-5l0.0077667 3.9514c-0.0012512 9.308e-4 -0.0045166 0.0028839-0.02002 0.0038605l-0.0045166 0.12386-0.01651-0.11679-0.0070801-3.9489 0.04036-0.013519v3.05e-5 -1.52e-5z"/>
	<path d="m164.72 163.1h3.204e-4c0.0051727 0 0.01033 3.662e-4 0.015503 3.662e-4v-4.58e-5c0.10242 0 0.1993-0.037415 0.26811-0.10324 0.061722-0.059326 0.095657-0.13739 0.095657-0.21971v-5.8625c0-0.18004-0.16573-0.33035-0.36926-0.33485-0.10559-0.0019531-0.21028 0.036438-0.28197 0.1058-0.061081 0.059692-0.094681 0.13774-0.094681 0.21938v5.857c0 0.1813 0.16087 0.32938 0.36632 0.33774v7.65e-5zm0.002594-6.19c0.027466 3.204e-4 0.045868 0.014496 0.046188 0.0045319l0.0054932 5.8445c-0.002243 0.0025635-0.0087433 0.021622-0.041336 0.010651-0.030029-9.766e-4 -0.048462-0.015518-0.048462-0.007431l-0.0048523-5.84c0.00354-0.0038452 0.021332-0.012863 0.042969-0.011932v-3.205e-4z"/>
	<path d="m187.09 121.08l2.9772 2.6349v-9.189l-2.9772-3.6867v10.241-2.518e-4 7.7e-6zm0.33076-9.305l2.3156 2.8674v8.336l-2.3156-2.0493v-9.154 7.63e-5 -3.281e-4 1.526e-4z"/>
	<path d="m182.07 116.63l4.6873 4.1478v-10.355l-4.6873-5.804v12.012-1.45e-4 9.16e-5 -2.364e-4zm0.33072-0.14903v-10.927l4.0257 4.9846v9.505l-4.0257-3.5622v-3.434e-4z"/>
	<polygon class="dark-shade" points="179.16 66.525 174.85 57.035 174.92 61.145 174.92 61.145 179.23 70.335"/>
	<path d="m179.46 65.685l-0.08284-2.1971 0.068481-0.015072-0.040039-3.1204-0.16136-0.39106-0.085739-2.2742 0.24274-0.051121-0.10596-3.9107-9.766e-4 -0.028194-0.31737-0.82605-0.070953-1.8828 0.25052-0.045265v-3.0994l-0.41187-1.1349-0.15372-4.0778-4.5381-13.001-0.013626 0.0023174-4.119e-4 -0.13222-26.802 7.13v5.6595l-0.2886 0.073425-0.12471 0.031654v3.4546l4.58e-5 3.81e-5 0.41327-0.10199v2.358l-0.41331 0.099312v4.8533l0.41331-0.094753v2.0723l-0.41331 0.090774v2.3569l-38.126 8.14v-15.672l-3.1965-2.883-1.678e-4 -0.0016251v0.001461l-9.766e-4 -8.888e-4v0.0016212l-32.195 8.476v17.432l-0.04036-0.17957-58.179 12.516v4.0943l3.1163 0.9619v24.584l-18.054 2.0298-0.14697 0.013321v47.894h0.18965l51.734 3.6887 21.215-2.7008 32.353 1.9279 0.17334 0.013275v-0.054535l3.0335-0.602v-0.16489l64.909 3.5025 26.05-14.711v-41.18l0.34001-0.016212v-2.1304l-20.536-46.778-7.63e-5 3.81e-5 6.714e-4 -4.654e-4 -0.0029144 1.526e-4zm-163.72 23.578l2.4614-0.49731v1.2614l-2.4614-0.764v-6.1e-5l1e-6 -3.81e-5v7.5e-6zm-6.5534 74.66v-18.577l9.1898-0.05249v19.241l-17.872-1.1118c-0.0022379-1.678e-4 -0.1713-0.011215-0.1724-0.011261v-18.016l8.5239-0.048676v18.575h0.33076l-3.605e-4 5.798e-4 1e-6 -1.526e-4v3.051e-4zm42.395 4.2731l-51.084-3.6198v-0.8223l51.084 3.3389v1.1033-6.1e-5zm-32.875-3.6402v-19.264l10.415-0.059494v19.972l-10.415-0.6479v-6.256e-4 3.05e-5zm10.746 0.6685v-19.994l10.724-0.061249v20.723l-10.724-0.6671v-6.104e-4l-1.9e-6 -1.53e-5v-3.04e-5zm22.294 1.3869l-11.238-0.69914v-20.745l11.238-0.064148v21.508-2.747e-4 1.678e-4 -9.16e-5zm0-21.838l-51.414 0.29367v-27.775l51.414-5.7785v33.26-7.63e-5 4.119e-4zm21.226 20.566l-20.729 2.8992v-1.1653l20.729-2.6662v0.93225zm-20.729 1.401v-21.636l11.358 0.12787v20.047l-11.358 1.461v-3.815e-4 5.645e-4zm20.73-2.6664l-9.0404 1.1628v-20l9.0404 0.10179v18.736-3.357e-4 1.53e-5 -2.746e-4zm0-19.066l-20.73-0.23364v-33.034l20.73 4.583v28.684-4.58e-5 2.442e-4zm0.33052-28.951l-21.227-4.6929v-0.22353l-33.545 3.7716v-26.218l54.774-11.067-0.0019989 38.43v-1.221e-4zm0.0025253-38.767l-57.889 11.69v-3.4019l57.889-12.455v4.1672-2.975e-4 4.57e-5zm0.33121-21.498l31.534-8.3025 4.044e-4 0.0021935v117.9l-14.073-0.74995-0.0066757-69.94-5.4864 0.79225v68.86l-11.968-0.63734v-107.93l2.67e-4 -0.0056038v0.0059548zm12.622 104.64v3.9611l-0.32254-0.017868 0.0025635-68.585 4.8199-0.6924v0.31986l-4.4999 0.65215 3.662e-4 4.9936 4.4996-0.59005v0.28191l-4.4999 0.5738 3.662e-4 5.056 4.4996-0.5155v0.3095l-4.4999 0.50935v4.8799h0.0028839l-0.0025177 0.18906 0.18586-0.026489 4.12e-4 0.0038528 4.3133-0.42608v0.30118l-4.4999 0.43782v5.1265l4.4999-0.37282v0.24576l-4.4999 0.37338v5.113l4.4532-0.30625v0.28004l-4.4532 0.30581v5.093l4.4333-0.23299v0.27132l-4.4333 0.23466v5.0865l4.4999-0.16643v0.25916l-4.4999 0.17355v5.173l4.4999-0.10651v0.24998l-4.4999 0.10284v5.1195l4.4999-0.033279v0.24084l-4.4999 0.032089v5.1595l4.4999 0.033279v0.22519l-4.4999-0.032104v5.1465l4.4999 0.099869v0.2225l-4.4999-0.10268v5.1595l4.5066 0.17311v0.20686l-4.5066-0.16693-5.34e-5 -0.0021362 1.53e-5 6.1e-5v-8.392e-4zm4.5066 0.49962v3.7001l-4.1732-0.2206v-3.6397l4.1732 0.16006v7.63e-5zm-0.0066681-65.185v4.35l-4.1666 0.5386v-4.2832l4.1666-0.60535v-1.53e-5 1.53e-5zm0 5.336v4.4476l-4.1666 0.4735v-4.3859l4.1666-0.5352v7.6e-6 -1.53e-5 7.7e-6zm0 5.423v4.4651l-4.1666 0.40898v-4.3962l4.1666-0.47789v1.53e-5 -7.6e-6zm0 5.429v4.5304l-4.1666 0.34518v-4.4672l4.1666-0.40841v-7.6e-6 3.05e-5zm0 5.4365v4.5176l-4.1666 0.28074v-4.4538l4.1666-0.34461v3.05e-5 -1.53e-5 7.7e-6zm-0.046677 5.46v4.5076l-4.1199 0.2169v-4.4405l4.1199-0.28395v-7.6e-6zm-0.02002 5.4395v4.493l-4.0999 0.1577v-4.4339l4.0999-0.21681v-1.53e-5 3.05e-5zm0.066696 5.4095v4.5877l-4.1666 0.092438v-4.5204l4.1666-0.15976v1.53e-5 -3.06e-5zm0 5.496v4.5259l-4.1666 0.030823v-4.4671l4.1666-0.0896v3.04e-5zm0 5.424v4.5629l-4.1666-0.030808v-4.4938l4.1666-0.038406v6.11e-5zm0 5.4565v4.5542l-4.1666-0.092438v-4.4937l4.1666 0.031967v1.52e-5 -1.53e-5 1.53e-5zm0 5.4305v4.571l-4.1666-0.16025v-4.5004l4.1666 0.089722v-7.63e-5zm14.742 11.851l-32.032-1.8587v-1.4413l32.032 1.7057v1.5943-4.57e-5zm2.8669-0.45131l-2.5361 0.50325v-119.58l2.5361 2.2873v116.8-0.0055999zm38.787-121.47v-2.7757l0.08252-0.021004v2.7764l-0.08252 0.020359v4.2e-5zm0 7.216v-4.1782l0.08252-0.019829v4.1791s-0.08252 0.018894-0.08252 0.018898v3.06e-5zm0 2.7487l0.08252-0.01812v3.2971l-0.08252 0.017395v-3.2964 2.29e-5zm-38.457 10.57l38.126-8.14v1.2746l0.41331-0.087116v2.4468l-0.41331 0.086304v1.2826l-38.126 7.6575v-4.5205 1.602e-4 -3.051e-4zm38.539-4.1686v4.103l-0.08252 0.016334v-4.1021l0.08252-0.017227v4.21e-5zm-31.273 105.12l-0.53864-0.029877v-33.501l0.53864-0.018967v33.55-4.272e-4 3.357e-4 -6.11e-5zm35.92 1.9677l-8.6833-0.45847-17.466-0.9678v-3.8716l26.149 1.0983v4.1996-9.16e-5 6.12e-5zm-26.149-5.631v-15.988l12.648 0.010147v16.508l-12.648-0.53105-7.6e-6 3.052e-4v5.95e-4zm26.149 1.0979l-13.17-0.55299v-16.522l13.17 0.010605v17.065-6.104e-4zm10.979 5.113l-10.648-0.56226v-21.614l10.648 0.0085754v22.168-2.136e-4 3.968e-4zm10.696 0.56474l-10.365-0.54726v-22.185l10.365 0.008316v22.725-5.645e-4zm0.030685-23.057l-21.706-0.01561v5.646e-4l-26.314-0.02092h-0.16541v16.304l-5.646e-4 -4.58e-5v4.1996l-0.77599-0.04303v-21.053l48.962-0.074844v0.70345l-1.53e-5 3.052e-4h-1.53e-5v-4.272e-4zm0-1.0339l-49.128 0.075302-0.16504 3.204e-4v21.365l-8.0024-0.44337v-33.58l57.294-2.0179v14.601l3.662e-4 -3.815e-4 6.714e-4 -1.526e-4v1.832e-4zm0-21.66l-2.6414 0.13316v-44.99l2.6414-0.40585v45.263zm0-45.597l-43.426 6.6535v13.715l3.0399-0.34616-3.204e-4 -0.003006 10.173-1.1687v-13.891l0.76665-0.11748v13.921l13.213-1.5179v-14.429l0.76663-0.11751v14.46l12.494-1.4301v0.98746l-12.494 1.4346v15.033l12.494-1.0305v0.98985l-12.494 1.0325v12.202l-0.76663 0.038643v-12.181l-13.213 1.0984v11.748l-0.76665 0.038635v-11.727l-13.213 1.0919v11.303l-0.76663 0.038963v-11.276l-6.866e-4 4.58e-5v-0.0027695l-10.202 0.845-2.2972 0.18964 3.81e-5 6.104e-4 -0.15339 0.012718v10.866l-1.32 0.05941v-40.368l1.32 0.7909v12.968l12.652-1.4518v-13.689l-12.451 1.9092-1.2084-0.72405 57.854-8.866v0.9095l1.221e-4 1.984e-4 -9.155e-4 3.128e-4v-1.069e-4zm-2.9722 0.7849v14.606l-12.161 1.3947v-14.138l12.161-1.8636v9.461e-4zm-13.594 2.0833v14.085l-12.546 1.4446v-13.607l12.546-1.9227v1.907e-4 -1.907e-4zm-13.98 2.1423v13.547l-12.546 1.4446v-13.069l12.546-1.9227v1.53e-5 -3.128e-4 3.433e-4zm27.574 12.037v14.771l-12.161 1.006v-14.38l12.161-1.3967v-3.434e-4zm0 16.424v12.276l-12.161 0.6131v-11.879l12.161-1.0104v7.935e-4 -3.82e-5zm-13.594 1.1235v11.838l-12.546 0.6325v-11.432l12.546-1.0386v-9.16e-5 1.907e-4 -4.58e-5zm-13.98 1.1584v11.384l-12.546 0.6325v-10.978l12.546-1.0386v-2.29e-5 1.678e-4 -5.33e-5zm-13.978 1.155v10.935l-11.991 0.6046v-10.544l5.7804-0.48155 6.2109-0.51455v5.34e-5 -5.34e-5zm-11.991-15.366v-12.547l11.991-1.8388v13.01l-11.991 1.3759v2.06e-4 -3.052e-4zm56.514-34.51v11.725l-58.499 8.9615v41.15l1.8266-0.079895-7.63e-5 -0.0024719 10.192-0.51405 1.221e-4 0.0025177 6.0729-0.30865-7.63e-5 -0.0017014 32.687-1.6455 4.7477-0.2371v7.63e-5l2.9722-0.1479v6.392l-58.334 2.0542-0.15958 0.0057983v33.947l-6.3899-0.33839-0.0072021 0.136v-95.985l38.126-7.6575v3.1533l0.41331-0.081795v4.1754l2.899e-4 6.561e-4 26.353-4.7325v0.029747l-4.58e-5 0.0013657-0.0014038-9.92e-5v-0.0014419zm0.14194-0.49528l-0.010864 0.10471-0.13107 0.024216-26.022 4.673v-3.8454l25.43-5.0325v-5.058l-25.43 5.3095v-2.4476l25.298-5.3345 0.1312-0.027752v-4.1973l-25.43 5.584v-2.0756l25.43-5.829v-5.142l-25.43 6.109v-2.3602l25.43-6.2765v-3.6535l-25.43 6.47v-5.3215l-3.662e-4 -3.242e-4 26.142-6.955 0.02214 6.2305v29.052l3.052e-4 -1.297e-4 1.678e-4 -5.264e-4v7.399e-4zm-26.164 0.6197v-4.1067l25.099-5.2405v4.3801l-25.099 4.9671 1.53e-5 6.87e-5 -1.53e-5 1.297e-4v-1.984e-4zm0-7.2295v-3.3l25.099-5.5115v3.5185l-25.099 5.2925h1.53e-5l-1.53e-5 1.526e-4v2.975e-4zm0-6.0525v-4.1827l25.099-6.029v4.4591l-25.099 5.753 1.53e-5 -6.87e-5 -1.53e-5 -2.327e-4v-9.54e-5zm0-7.2235v-2.7789l25.099-6.3855v2.9697l-25.099 6.195 1.53e-5 6.48e-5 -1.53e-5 -1.144e-4v-1.983e-4zm31.593 21.187l0.064407 3.8037-4.3087-9.1915h4.58e-5l-0.063324-4.0879 4.3076 9.4765v-1.373e-4l3.05e-5 -3.052e-4v-4.12e-4zm-0.24426-6.478l0.091629 2.4305-4.09-9.114-4.57e-5 -2.823e-4 -0.059082-3.1511 4.0575 9.8345-4.58e-5 5.493e-4v-1.64e-4zm-0.090286-12.132v0.957l-0.040253-1.068 0.040253 0.11097v7.6e-6 -3.43e-5 7.7e-6zm-0.059662 8.1545l-3.8173-9.3245 4.58e-5 8.01e-5 -0.08847-3.6542 3.788 9.859 0.11763 3.1193 6.1e-5 2.48e-4 3.05e-5 3.204e-4v-2.519e-4zm-0.25943-6.879l-3.5457-9.4685-3.05e-5 1.64e-4 -0.032638-2.5489 3.4877 9.612 0.090652 2.4053 3.05e-5 -3.586e-4v-7.6e-6 3.053e-4zm-4.4443-18.519l4.1989 12.01 0.11395 3.0224-3.4695-9.561-0.32074 0.05835 0.045853 3.5838 3.9155 10.456 0.06369 1.6886-3.7835-9.8485-0.31976 0.063229 0.1127 4.6704 4.1831 10.218 0.077667 2.0605-4.0505-9.8165-0.31818 0.065987 0.076858 4.0958 4.4528 9.922 0.086502 2.2945-4.3019-9.463-0.3159 0.07082 0.076874 4.9517 4.6563 9.934 0.1022 0.2765 0.10376 2.752-5.2824-8.7635-0.10417-29.27v-5.4705l-9.16e-5 -4.272e-4 1.221e-4 -3.109e-4v7.972e-4zm16.339 84.28v9.0715l2.5902 2.2926v1.2076l-2.5889-2.2906v8.0305l-0.33331-0.18155v-8.141l-2.9733-2.6296v9.1515l-0.33334-0.18158v-9.269l-4.6866-4.1476v10.863l-0.33331-0.18156v-10.975l-5.5399-4.9026v-1.2101l5.5399 4.901v-12.123l-5.5399-6.862v-1.1305l5.5399 6.867v-11.078l0.33331 0.55405v10.93l4.6866 5.8055v-8.945l0.33334 0.55405v8.7975l2.9733 3.6882v-7.5435l0.33192 0.55175v7.4015l2.9209 3.6171v-6.803l-17.119-28.457v-0.16269l-2.0666-3.3814v-0.034096l-0.019043 0.0029297-0.027634-0.045181v-0.5427l19.893 33.04v24.153l-0.6604-0.35803v-16.285l-2.9209-3.6171-1.678e-4 3.586e-4 4.58e-5 -4.58e-5v-0.0015259zm2.5904 3.7333v7.1885l-2.2594-1.9997v-7.987l2.2594 2.7981v-6.87e-5 2.669e-4zm-2.746e-4 9.279v6.7085l-2.2556-1.2287v-7.479l2.2556 1.9993v-3.357e-4 2.365e-4zm-3.2489-2.8714v7.8105l-2.32-1.2638v-8.5965l2.32 2.0505v-8.087e-4 1.067e-4zm-3.3066-2.9359v8.945l-4.0266-2.1935v-10.313l4.0266 3.5617v-1.45e-4 3.81e-5 -9.15e-5zm-5.0199-4.4339v10.644l-5.2134-2.8399v-12.419l5.2134 4.6146v3.586e-4 -5.35e-5zm-5.2134-6.7065v-13.123l5.2134 6.455v11.278l-5.2134-4.6096v2.747e-4 -2.213e-4 9.16e-5zm0-15.294v-12.898l5.2134 8.6655v10.682l-5.2134-6.449zm6.2064 7.681v-10.262l4.0266 6.6925v8.5495l-4.0266-4.9797v-3.586e-4 6.11e-5zm5.0134 6.2115v-8.141l2.32 3.8561v7.154l-2.32-2.8694v6.027e-4 -3.052e-4zm3.3097 4.0949v-6.736l2.2594 3.7581v5.776l-2.2594-2.7979v-1.373e-4 9.16e-5 -2.06e-4zm-15.03-31.552v43l-1.455-0.79155v-44.606l1.455 2.398v-2.441e-4 2.441e-4zm2.8733 85.155l-4.1397 2.3727-0.26941-13.963v-8.416l4.4091-0.038132v20.045-4.883e-4l1.53e-5 1.678e-4v2.594e-4zm3.2392-1.8565l-2.9083 1.6669v-19.858l2.9083-0.025116v18.216-6.1e-5 2.747e-4zm8.2584-4.7336l-7.9274 4.5435v-3.3916l7.9274-3.608v2.4561zm0.0010528-2.8195l-7.9294 3.609v-14.275l7.9294-0.06749v10.733zm0.32745-11.067l-16.236 0.13766v-0.69659l16.236 0.27245v0.28654-3.05e-5h1.53e-5v-3.06e-5zm2.8933 12.039l-2.56 1.4672v-14.12l-16.569-0.27374v-14.542l19.129 7.3095v20.159zm0.69215-0.3967l-0.36133 0.20706v-19.842l0.36133 0.13809v19.497-2.747e-4 1.526e-4 -3.05e-5zm5.1679-44.777v41.816l-4.8373 2.7725v-19.535l-20.229-7.7295v-6.177l2.1133 1.1498v-0.095291l9.5973 5.2265 8.5159 4.6417v-24.799l-17.226-28.64-3-4.9525v-11.454l5.4064 8.97v3.662e-4l0.30721-0.091499-0.10754-2.8529 19.529 41.75h-0.068878l-1.068e-4 2.29e-5 -1.678e-4 -9.16e-5v-1.908e-4zm0.50664 0.16643l-0.0066681-0.16643h-0.071167l-19.915-42.588-0.0051727 0.002388-0.10498-2.7851c1.4774 3.4224 2.9776 6.834 4.4848 10.243l4.9816 11.164 5.0514 11.133 2.5505 5.556 2.5824 5.5415-2.4345-5.6075-2.4662-5.593-4.9822-11.165-5.0519-11.133c-1.5603-3.4084-3.1277-6.814-4.7185-10.209l-0.0093079-0.24738-0.0046082-1.311 20.12 45.84 6.1e-5 1.3244v-4.35e-4z"/>
	<polygon class="dark-shade" points="147.15 61.81 147.15 65.91 172.67 60.86 172.67 56.48"/>
	<polygon class="dark-shade" points="147.15 55.39 147.15 58.685 172.67 53.305 172.67 49.788"/>
	<polygon class="dark-shade" points="147.15 48.463 147.15 52.645 172.67 46.793 172.67 42.335"/>
	<polygon class="dark-shade" points="147.15 42.65 147.15 45.425 172.67 39.129 172.67 36.159"/>
	<polygon class="dark-shade" points="174.92 53.35 174.92 53.35 179.04 62.53 179.02 60.26 174.86 50.225"/>
	<polygon class="dark-shade" points="179.07 56.805 179.01 53.715 174.86 43.048 174.94 46.755 174.94 46.755"/>
	<polygon class="dark-shade" points="174.96 39.707 178.82 50.03 178.82 47.9 174.95 37.213 174.93 37.486"/>
	<path d="m2.5788 121.48l1.519e-4 12.359 46.999-2.2807v-14.51l-46.999 4.4317-1.519e-4 4.12e-4zm1.3878 11.949l-0.0026855-3.052e-4 -1.0537 0.054733v-11.479l1.0563 0.82075v10.603l3.55e-5 3.204e-4zm9.7253-0.46973l-9.3933 0.46097v-10.718l9.3933-0.8496v11.107zm1.0127-0.049942v1.831e-4l-0.68059 0.033417v-11.121l0.68059-0.061562v11.15-4.57e-5zm10.13-0.49692l-9.7978 0.4808v-11.163l9.7978-0.8862v11.569-1.067e-4zm1.0863-0.053589v2.747e-4l-0.75419 0.036987v-11.583l0.75419-0.068222v11.613-3.06e-5zm11.753-0.57655l-11.421 0.5605v-11.627l11.421-1.0331v12.1zm1.0864-0.053558v2.441e-4l-0.75419 0.037018v-12.114l0.75419-0.068222v12.144-3.05e-5zm2.136e-4 -12.485v0.0121l-0.96093 0.086906h-0.12558l-1.221e-4 -6.1e-5v0.01133l-33.707 3.049v0.0061722l-0.83879-0.65175 46.118-4.3485v0.8986l-10.351 0.9363h-0.13355zm10.485-0.60745v12.579l-10.153 0.49829v-12.159l10.153-0.91835v1.221e-4 -6.88e-5z"/>
</svg>
