<svg height="361.62466" width="417.20389" xmlns="http://www.w3.org/2000/svg"><g transform="translate(-101.54091 -163.59563)"><path d="m508.74477 226.99015c-49.32288-33.81781-72.65918-63.39452-72.65918-63.39452-91.08575 53.67063-187.81802 244.24156-187.81802 244.24156-45.33303-63.8178-90.91373-81.61787-90.91373-81.61787-20.49148 27.3818-55.81293 63.87384-55.81293 63.87384 82.38309 22.18746 151.53232 103.60699 151.53232 103.60699 149.48387-234.68693 255.67154-266.71 255.67154-266.71z" fill="#97cb6c" fill-rule="evenodd"/><path d="m302.03011 528.36301a64.285713 7.1428571 0 1 1 -.05156-.03483" fill="#999" opacity=".2" transform="translate(8.571429 -11.428571)"/><path d="m518.74479 227.27587c-49.32288-33.81781-72.65918-63.39452-72.65918-63.39452-91.08575 53.67063-187.81802 244.24156-187.81802 244.24156-45.33303-63.8178-90.91373-81.61787-90.91373-81.61787-20.49148 27.3818-55.81293 63.87384-55.81293 63.87384 82.38309 22.18746 151.53232 103.60699 151.53232 103.60699 149.48387-234.68693 255.67154-266.71 255.67154-266.71z" fill="#5fd35f" fill-rule="evenodd" opacity=".277778"/></g></svg>