<?xml version="1.0" encoding="utf-8"?>
<svg enable-background="new 0 0 400 400" version="1.1" viewBox="0 0 400 400" xml:space="preserve" width="400px" height="400px" xmlns="http://www.w3.org/2000/svg">
	<style type="text/css">
		.clear{fill:#fff;}
		.dark-shade{fill:#bbbfc3;}
		.shade{fill:#dfe1e3;}
		svg{fill:#253746;}
	</style>
	<path class="clear" d="m399.6 111c-1.3-0.3-2.7-0.3-4-0.3s-2.7 0.1-4 0.4-2.7 0.5-3.9 1.1c-1.3 0.4-2.5 0.9-3.7 1.9l-3.3-0.4c-1.7-0.3-3.5-0.1-5.2 0.3s-3.3 1.1-4.8 2c-0.3 0-0.4 0-0.7-0.1-2.7-0.3-5.5 0-8.1 0.7-1.3 0.3-2.5 0.5-3.9 0.8l-3.9 0.7-30.8 5.1c-0.5-0.1-0.9-0.1-1.5-0.3-2.3-0.1-4.4 0.4-6.3 1.3s-3.6 2.3-4.9 4l-1.1 1.2c-2.8 0.3-9.6 1.1-17.3 3.9-0.5-0.4-1.1-0.8-1.6-1.1-2.1-1.3-4.4-2.5-6.8-3.5-2.3-1.1-4.7-2-7.1-2.8s-4.8-1.6-7.3-2.3c-4.8-1.2-9.7-2.5-14.5-3.7l-14.5-4c-4.8-1.3-9.7-2.7-14.5-4.1l-1.9-0.5c-0.7-0.1-1.3-0.4-1.9-0.5-1.3-0.3-2.7-0.4-4-0.4-2.7 0-5.2 0.4-7.7 1.2s-4.8 2-7.1 3.3c-1.1 0.7-2.1 1.3-3.2 2.1-0.5 0.4-0.9 0.7-1.6 0.9l-1.6 0.9c-2.1 1.2-4.4 2.4-6.7 3.5l-6.7 3.3c-2.8 0.5-5.6 1.6-7.9 3.5-1.5 1.3-2.7 2.9-3.6 4.7-2.5 1.3-27.6 14.2-32.5 16-6.3 2.1-15.2 2.1-26.4 0-11.6-2.3-17.7-3.5-18.9-3.7l1.1-3.3v-0.1c0.1-0.7 0-1.2-0.5-1.7-0.9-1.2-3.2-2-5.6-2.5l-0.1-0.4c-0.4-1.1-0.8-2.1-1.5-3.1-0.4-0.5-0.8-0.9-1.2-1.3-0.5-0.4-1.1-0.8-1.9-0.8-0.4 0-0.8 0-1.1 0.1h-0.1c-11.5-1.6-23-3.2-34.5-4.8-2.9-0.4-5.9-0.8-8.7-1.3-2.8-0.7-5.9-1.3-8.8-1.2-0.8 0-1.6 0-2.4 0.1-1.5-0.9-3.1-1.5-4.8-1.9s-3.5-0.5-5.2-0.3l-3.3 0.4c-1.2-0.8-2.4-1.3-3.7-1.9s-2.7-0.8-3.9-1.1c-1.3-0.3-2.7-0.4-4-0.4s-2.7 0-4 0.1v0.1h0.1-0.1v137.7l2.5 0.5c9.5 2.7 19 4.4 28.6 6.3 9.9 1.9 19.8 3.6 29.8 5.2 2.5 0.4 4.9 0.8 7.5 1.2 1.3 0.1 2.5 0.4 3.9 0.4 0.8 0 1.6-0.1 2.3-0.5s1.2-0.8 1.7-1.3c0.9-1.1 1.6-2.1 2.1-3.3s1.1-2.4 1.5-3.6c0.8-2.4 1.3-4.9 1.9-7.5 0.9-4.9 1.6-10 2-15 0.4-4.9 0.8-9.8 0.9-14.9 2.9-0.5 5.9-0.5 8.5-0.5-1.3 1.6-3.1 4.1-2.8 7.2 0.4 2.9 2.7 5.6 6.9 7.6 1.3 1.2 2.9 1.9 4.4 2.1l-0.1 0.1c0.9 0.5 1.9 1.1 2.8 1.5s1.9 0.8 2.9 1.1c2 0.7 4.1 0.9 6.3 0.9 2.1 0 4.3-0.5 6.1-1.5 0.1 0 0.1-0.1 0.3-0.1 0.9-0.1 7.7-1.1 10.7-1.6 0.1 2.5 0.4 5.1 1.1 7.5 0.8 3.1 2.1 6 4.4 8.4 0.5 0.5 1.2 1.2 1.7 1.6 0.7 0.5 1.2 0.9 1.9 1.3 1.2 0.9 2.4 1.9 3.7 2.8 1.2 0.9 2.5 1.7 4 2.5 1.5 0.7 3.1 1.3 4.8 1.2 0.9 0 1.7-0.3 2.5-0.7l2-1.1c1.3-0.7 2.7-1.5 4-2.1 2.3-1.2 4.5-2.3 6.9-3.5-0.3 2-0.8 3.9-1.3 5.7v0.1c-0.1 0.5-0.1 0.9-0.1 1.3s0.1 0.9 0.3 1.3 0.3 0.8 0.5 1.2c0.3 0.4 0.4 0.7 0.7 1.1 0.8 1.3 1.7 2.7 2.8 3.9s2.3 2.4 3.7 3.2c0.4 0.3 0.8 0.4 1.2 0.5s0.7 0.3 1.1 0.4c0.7 0.3 1.3 0.5 2.1 0.9 1.5 0.7 3.1 1.2 4.8 1.1 1.7 0 3.3-0.5 4.8-1.1 0.8-0.3 1.5-0.7 2.1-0.9s1.5-0.7 2.1-1.1 1.3-0.7 2.1-1.1c0.3-0.1 0.5-0.4 0.9-0.5 0 1.9 0 4 1.2 5.9 1.1 1.7 2.7 3.1 4.3 4.1 1.7 1.1 3.5 1.7 5.3 2.3 1.9 0.5 3.7 0.8 5.7 1.1h2.5c0.1-0.1 0.4-0.1 0.5-0.3 0.8-0.3 1.7-0.4 2.5-0.5 0.9 0.1 1.7-0.1 2.5-0.3l2.4-0.8c1.5-0.7 2.9-1.5 4.3-2.3 2.8-1.6 5.3-3.5 7.9-5.5v-0.1l1.5 1.1 0.1 0.1h0.1c0.1 0 0.4 0.1 0.5 0.1 2.8 1.7 10.7 4.4 15.9 4.4h0.5c5.2-0.1 9.3-2.9 11.9-7.6 1.7-3.3-0.1-10.1-1.3-13.7 1.3 1.3 2.8 2.5 6 4 2.5 0.9 4.8 1.3 6.8 1.3 8.3 0 11.5-6.8 11.9-7.9 2.7-3.2 1.7-7.2 0.1-10.2 3.1 1.7 6.4 2.9 9.9 3.3 0.4 0 0.9 0.1 1.3 0.1 7.6 0 12-8 12.5-10.4 2.3-9.2-2.5-17.3-4-19.4 0.9-0.9 2.5-2.4 4-2.9 0.9 2 2.1 4.1 4.8 6.1 0.7 1.9 1.2 3.7 1.9 5.6 0.7 2 1.5 3.9 2.3 5.9 1.6 3.9 3.3 7.6 5.5 11.3 1.1 1.9 2.1 3.6 3.5 5.2 1.3 1.7 2.7 3.2 4.1 4.7s3.1 2.9 4.9 4c0.9 0.5 1.9 1.1 2.9 1.5 0.5 0.1 1.1 0.4 1.6 0.4h1.4c0.1 0 0.3 0 0.5-0.1h-0.1l26.2-6.9c4.4-1.2 8.8-2.4 13.1-3.6s8.5-2.5 12.5-4.4l2.5-0.8-0.3-140.5z"/>
	<path class="dark-shade" d="m351.9 247.2c-6.6-0.1-11.4-1.7-13.9-6.1-4-7.2-5.2-13.5-5.2-13.5l-0.2 0.3c-2.5 4.2-6.3 5.6-12.9 2.3 0 0 13.3 33.7 24.5 35.1 0.6-0.1 4.8-6.9 8.8-18.3l-1.1 0.2z"/>
	<path class="dark-shade" d="m78.1 231.7l-0.3 0.1v1.3c-0.1 1.8-2.9 5.9-7.7 6.8l-1 0.2c2 16.5 4.8 26.8 5.2 26.9 4.8-1.3 7.3-38.4 7.3-38.4l-0.3 0.2c-1.6 1.5-3.2 2.9-3.2 2.9z"/>
	<path class="shade" d="m354.3 158.4c-5-9.6-19.6-34.4-43.2-29.9l-0.2 1.3 1.4 0.7s22.6 13.8 28.6 81.1l0.1 1.3c-3.4 0.1-8.2 1.5-8.2 1.5l-0.4 0.1c-0.1 0.8-0.1 1.4-0.2 1.9 0 0 2 7.4 0.3 10.4 0 0 1.2 6.3 5.2 13.5 2.6 4.7 7.8 6.2 14.9 6.1l0.4-1.1c6.8-19.4 12.9-51.7 1.3-86.9z"/>
	<path class="shade" d="m83.4 137.8l-0.1 0.1c-7.2 3.7-11.7 20.7-13.5 28.2-4.3 28.7-3 55.3-0.7 74l0.8-0.1c4.9-0.8 7.8-5 7.8-6.8 0-1 0-1 0.1-1.9 1.2 0.6 5.5-3.8 5.5-5.9-2.4 0-3.4 0.4-5.2 0.5 2.9-45.2 16.5-83.9 16.5-83.9 0.4-2.4-5.9-3.9-11.2-4.2z"/>
	<path d="m180.3 156.1c0.9-0.6 1.9-1 3.1-1.3 1.2-0.2 2.4-0.3 3.7-0.4-1.2-0.5-2.5-0.8-3.8-0.8s-2.7 0.4-3.9 1.2-2 2-2.4 3.3-0.6 2.6-0.4 3.9c0.5-1.2 0.9-2.3 1.5-3.4 0.6-1 1.3-1.8 2.2-2.5z"/>
	<path d="m179.2 170.5c0.8-0.7 1.7-1.3 2.7-1.9 2-1.1 4.1-1.9 6.2-2.8l0.8-0.3c0.1-0.1 0.3-0.1 0.4-0.2 0 0 0.1 0 0.2-0.1l0.1-0.1h0.1c0.2-0.1 0.5-0.1 0.9-0.3s0.7-0.7 0.8-1.1c0.2-0.7 0.1-1.3 0-2l-0.3-1.8c-0.3-1.2-0.7-2.3-1.4-3.3s-1.6-1.8-2.7-2.2c1 0.6 1.7 1.5 2.3 2.5 0.5 1 0.8 2.1 1 3.2 0.1 0.6 0.1 1.1 0.2 1.7 0 0.5 0 1.1-0.1 1.5-0.1 0.2-0.1 0.3-0.2 0.3-0.1 0.1-0.4 0.1-0.7 0.2-0.1 0-0.2 0.1-0.3 0.1l-0.1 0.1c-0.1 0-0.2 0.1-0.4 0.1l-0.8 0.3c-2.2 0.7-4.5 1.6-6.5 2.8-1 0.6-2 1.3-3 2.1-0.4 0.4-0.7 0.7-1 1.1-0.1-1.1-0.1-2.1-0.2-3.2-0.1-0.9-0.1-1.8-0.2-2.7s-0.2-1.8-0.2-2.7c-0.1 0.4-0.2 0.9-0.2 1.3 0 0.5 0 0.9-0.1 1.3-0.1 0.9-0.1 1.8-0.2 2.7-0.1 1.8-0.2 3.6-0.2 5.3l-0.1 3 1.4-2.7c0.3-0.7 1-1.5 1.8-2.2z"/>
	<path d="m268.2 233.2c3.8 2 7.5 4.1 11.3 6l2.8 1.5c0.9 0.4 1.7 1.1 2.3 1.9 1.3 1.6 2.2 3.6 3 5.6-0.2-1.1-0.5-2.1-0.9-3.1s-0.9-2-1.5-2.9-1.5-1.8-2.4-2.3c-0.9-0.6-1.8-1.1-2.7-1.7-3.7-2.2-7.4-4.3-11.2-6.4-3.8-2-7.6-4-11.4-5.9s-7.7-3.7-11.7-5.3c7.5 4.4 14.9 8.5 22.4 12.6z"/>
	<path d="m220.4 239.3c0.5-0.5 1-1.1 1.6-1.6 2 0.5 3.9 1.2 5.5 2.2 0.9 0.6 1.6 1.3 2.2 2.1 0.3 0.4 0.5 0.8 0.7 1.3 0.2 0.4 0.3 0.9 0.3 1.3-0.6 1.2-1.3 2.5-2 3.7-0.8 1.3-1.6 2.5-2.5 3.6 1.2-0.9 2.2-2 3.2-3.2 0.9-1.2 1.8-2.4 2.6-3.7l0.1-0.1v-0.2c0-0.7-0.1-1.3-0.3-1.9s-0.5-1.1-0.8-1.6c-0.7-1-1.6-1.9-2.6-2.5-1-0.7-2-1.2-3.1-1.6s-2.2-0.7-3.3-0.9l-0.4-0.1-0.3 0.3c-0.7 0.7-1.3 1.3-1.8 2.1-0.6 0.7-1.1 1.5-1.6 2.2-1 1.5-1.8 3.2-2.3 4.9 0.9-1.5 2-3 3.1-4.3 0.5-0.7 1.1-1.3 1.7-2z"/>
	<path d="m223.9 253c0.6-0.1 1.1-0.3 1.5-0.7-1.1 0.3-2 0-3-0.3-0.9-0.4-1.9-0.8-2.7-1.3-0.9-0.5-1.7-1.1-2.6-1.7-0.4-0.3-0.8-0.6-1.1-1-0.4-0.4-0.7-0.8-0.8-1.3-0.2 0.6 0.1 1.1 0.3 1.6 0.3 0.5 0.6 0.9 1 1.4 0.7 0.8 1.6 1.5 2.6 2.1 1 0.5 2 1 3.1 1.2 0.6 0.1 1.2 0.1 1.7 0z"/>
	<path d="m158.2 233.6c-1.2-0.6-2.5-1.3-3.6-2-1.2-0.7-2.3-1.5-3.4-2.4s-2.1-1.8-3-2.8c-0.5-0.5-0.9-1-1.3-1.5s-0.8-1.1-1.1-1.6l-0.7-1.2-0.6 1.1c-0.1 0.2-0.3 0.4-0.4 0.7l-0.5 0.7c-0.3 0.5-0.6 1-0.9 1.6-0.6 1.1-1.1 2.2-1.5 3.3-0.8 2.3-1.1 4.8-0.6 7.1-0.1-2.4 0.5-4.7 1.5-6.8 0.5-1.1 1-2.1 1.7-3 0.3-0.5 0.7-1 1-1.4l0.4-0.5c0.6 1 1.3 1.8 2 2.6 1 1.1 2.1 2.1 3.2 2.9 2.1 1.6 4.4 2.9 6.8 4-0.3 0.5-0.7 1-1.1 1.6-0.5 0.7-1.1 1.4-1.7 2-1.2 1.3-2.5 2.5-4 3.5 1.7-0.6 3.2-1.7 4.6-2.9s2.6-2.6 3.6-4.1l0.4-0.6-0.8-0.3z"/>
	<path d="m141.9 239.2c0.6 0.7 1.4 1.3 2.3 1.8 0.8 0.5 1.8 0.8 2.8 1 1 0.1 2 0.1 2.9-0.3-1-0.1-1.8-0.3-2.7-0.6-0.8-0.3-1.6-0.7-2.4-1.1s-1.5-0.9-2.2-1.5c-0.4-0.3-0.7-0.6-1.1-0.9-0.3-0.3-0.7-0.6-1-1 0 0.5 0.3 0.9 0.5 1.4s0.5 0.9 0.9 1.2z"/>
	<path d="m312.6 190.2c-0.4-1.2-0.9-2.4-1.5-3.5 0.3 1.2 0.6 2.5 0.9 3.7s0.5 2.5 0.6 3.7 0.2 2.5 0 3.7-0.6 2.4-1.5 3.3c1.1-0.7 1.8-1.9 2.1-3.2s0.3-2.6 0.2-3.9c-0.1-1.4-0.4-2.6-0.8-3.8z"/>
	<path d="m299.5 194.6c-0.1 1.2-0.2 2.5 0.2 3.6-0.1-1.2 0.2-2.4 0.4-3.5 0.2-1.2 0.5-2.3 0.8-3.5 0.6-2.3 1.2-4.6 1.8-7-1.1 2.2-1.9 4.4-2.5 6.8-0.3 1.2-0.6 2.4-0.7 3.6z"/>
	<path d="m304.9 162.1c0.2 1.7 0.2 3.4 0 5.1s-0.7 3.2-1.5 4.6l-0.5 0.9 1 0.3c2.8 0.7 5.5 1.4 8.2 2.4 1.3 0.5 2.6 1.1 3.8 1.8s2.3 1.7 3.3 2.7c-0.8-1.2-1.8-2.3-2.9-3.2s-2.4-1.7-3.7-2.3-2.7-1.1-4.1-1.6c-1.1-0.4-2.1-0.7-3.2-0.9 0.7-1.4 1-2.9 1.2-4.4 0.2-1.8 0.1-3.6-0.2-5.4s-0.7-3.5-1.3-5.1c-0.6-1.7-1.3-3.3-2.1-4.8 0.5 1.7 1 3.3 1.4 5 0.1 1.5 0.4 3.2 0.6 4.9z"/>
	<path d="m395.6 110.7c-1.3 0-2.7 0.2-4 0.4-1.3 0.3-2.7 0.6-3.9 1-1.3 0.5-2.5 1-3.7 1.8l-3.3-0.4c-1.7-0.2-3.5-0.1-5.2 0.3s-3.3 1-4.8 1.9c-0.2 0-0.4-0.1-0.6-0.1-2.7-0.2-5.5 0.1-8.1 0.6-1.3 0.3-2.6 0.6-3.9 0.8l-3.9 0.7-30.8 5.1c-0.5-0.1-1-0.2-1.5-0.2-2.2-0.2-4.4 0.4-6.3 1.3-1.9 1-3.6 2.3-4.9 3.9l-1.1 1.1c-2.8 0.3-9.6 1.1-17.4 3.9-0.5-0.4-1.1-0.7-1.6-1.1-2.2-1.4-4.5-2.5-6.8-3.5s-4.7-1.9-7.1-2.8c-2.4-0.8-4.8-1.6-7.3-2.2-4.8-1.2-9.7-2.5-14.6-3.8l-14.6-4c-4.8-1.3-9.7-2.7-14.5-4.1l-1.8-0.6c-0.6-0.2-1.3-0.4-1.9-0.5-1.3-0.3-2.6-0.4-3.9-0.4-2.6 0-5.3 0.4-7.7 1.2-2.5 0.8-4.8 1.9-7 3.3-1.1 0.7-2.2 1.4-3.2 2.1-0.5 0.4-1 0.6-1.5 1l-1.6 0.9c-2.2 1.2-4.4 2.3-6.7 3.4l-6.7 3.3c-2.8 0.5-5.6 1.6-7.9 3.5-1.5 1.3-2.7 2.9-3.6 4.7-2.5 1.3-27.5 14.2-32.5 15.9-6.3 2.1-15.1 2.1-26.4 0-11.6-2.2-17.7-3.4-19-3.7 0.7-2.1 1.1-3.3 1.1-3.4v-0.1c0.1-0.6-0.1-1.2-0.5-1.7-0.9-1.2-3.2-2-5.6-2.6l-0.2-0.4c-0.4-1.1-0.8-2.1-1.5-3-0.3-0.5-0.7-0.9-1.2-1.3s-1.1-0.7-1.9-0.8c-0.4 0-0.8 0-1.1 0.1h-0.1c-11.5-1.6-23-3.1-34.5-4.8-2.9-0.4-5.8-0.8-8.6-1.3-2.8-0.6-5.8-1.3-8.8-1.2-0.8 0-1.6 0.1-2.4 0.1-1.5-0.9-3.1-1.5-4.8-1.9s-3.5-0.5-5.2-0.3l-3.3 0.4c-1.2-0.8-2.4-1.3-3.7-1.8s-2.6-0.8-3.9-1-2.7-0.4-4-0.4-2.7 0-4 0.2v0.2c1.3 0.2 2.6 0.4 3.9 0.6s2.6 0.5 3.8 0.8c1.3 0.3 2.5 0.7 3.7 1.2l1.5 0.6c-1.3 0.1-2.5 0.3-3.8 0.5 1.7 0.2 3.3 0.3 5 0.4h0.6s0.1 0 0.1 0.1v-0.1c1.4 0 2.8-0.1 4.2-0.2 1.6-0.1 3.1 0.1 4.7 0.5 0.8 0.2 1.6 0.5 2.4 0.8-1.3 0.3-2.5 0.6-3.7 1-0.7 0.2-1.4 0.5-2.1 0.8l-2 0.9c-1.3 0.6-2.7 1.2-4 1.9l0.1 0.4c2.8-0.7 5.6-1.8 8.3-2.6 2.8-0.8 5.6-1.2 8.4-1.3 1.4 0 2.8 0.1 4.2 0.3s2.8 0.5 4.3 0.8c2.9 0.5 5.8 0.9 8.7 1.3 10.8 1.6 21.7 3 32.5 4.5-0.9 0.7-1.7 1.5-2.3 2.4l0.2 0.3c0.9-0.5 1.9-1.1 2.8-1.5 0.5-0.2 0.9-0.5 1.4-0.6l0.3-0.1c0.1-0.1 0.2-0.1 0.3-0.1h0.5c0.7 0.1 1.4 0.8 2 1.5 0.3 0.4 0.6 0.8 0.8 1.2-1.1-0.2-2.4-0.1-3.4 0.4-0.1 0-0.1 0.1-0.2 0.1h-0.1c-1.5 0.6-2.7 1.7-3.7 2.8-2.1 2.4-3.6 5.3-4.9 8.2s-2.3 5.8-3.3 8.8c-0.9 3-1.7 6-2.5 9.1-2.5 16.8-3.3 33.8-2.6 50.8 0.3 8 1 16 2 23.9v0.1c0.1 0.4 0.1 0.9 0.2 1.3 0.6 4.2 1.2 8.4 2 12.6 0.4 2.1 0.8 4.2 1.3 6.2 0.2 1 0.5 2.1 0.7 3.1 0.1 0.5 0.3 1 0.4 1.6l0.2 0.8 0.1 0.4 0.1 0.2 0.1 0.1 0.1 0.1 0.1 0.1c0 0.1 0.2 0.2 0.4 0.2h0.2 0.1c0.7-0.2 1-0.6 1.3-1s0.5-0.8 0.7-1.2c0.4-0.8 0.7-1.6 0.9-2.4 0.5-1.6 0.9-3.2 1.2-4.9 0.7-3.3 1.2-6.5 1.6-9.8 0.9-6.5 1.5-13 1.9-19.5 0.3-0.3 0.6-0.6 0.8-1-0.2 4.2-0.4 8.3-0.8 12.5-0.5 5-1.1 10-2 14.9-0.5 2.4-1.1 4.9-1.8 7.2-0.4 1.2-0.8 2.3-1.3 3.4s-1.1 2.1-1.9 3c-0.8 0.8-1.7 1.4-2.7 1.3-1.2-0.1-2.5-0.3-3.7-0.5-2.5-0.4-5-0.8-7.4-1.2-9.9-1.7-19.8-3.6-29.8-5.4-9.9-1.7-19.8-3.7-29.9-4.7 9.7 2.8 19.7 4.6 29.6 6.5s19.9 3.6 29.8 5.2l7.5 1.2c1.3 0.2 2.5 0.3 3.8 0.5 0.8 0.1 1.6-0.1 2.2-0.5 0.7-0.3 1.2-0.8 1.7-1.3 0.9-1 1.6-2.2 2.2-3.4s1-2.4 1.4-3.6c0.8-2.4 1.4-4.9 1.9-7.4 1-5 1.6-10 2-15s0.8-9.9 0.9-14.9c3-0.2 5.9-0.3 8.6-0.2-1.3 1.5-3.1 4.2-2.8 7.2s2.7 5.5 6.9 7.6c1.3 1.2 2.9 1.8 4.3 2.1l-0.1 0.1c0.9 0.6 1.8 1.1 2.8 1.5 0.9 0.4 1.9 0.8 2.9 1.1 2 0.6 4.1 1 6.2 0.9 2.1 0 4.3-0.5 6.2-1.5 0.1 0 0.2-0.1 0.2-0.1v0.1c0.9-0.1 7.7-1.1 10.6-1.6 0.1 2.5 0.4 5 1 7.5 0.8 3 2.2 6.1 4.4 8.4 0.5 0.6 1.1 1.2 1.8 1.7s1.2 0.9 1.8 1.4c1.2 0.9 2.4 1.8 3.7 2.7s2.5 1.8 4 2.5c1.4 0.7 3.1 1.4 4.9 1.2 0.9-0.1 1.8-0.3 2.5-0.7l2-1.1c1.3-0.7 2.7-1.4 4-2.1 2.3-1.2 4.6-2.3 6.9-3.4-0.3 2-0.8 3.9-1.4 5.7v0.1c-0.1 0.5-0.1 0.9-0.1 1.4 0 0.4 0.1 0.9 0.2 1.3s0.3 0.8 0.5 1.2 0.4 0.7 0.6 1c0.8 1.3 1.7 2.6 2.8 3.9 1 1.2 2.2 2.3 3.7 3.2 0.4 0.2 0.8 0.4 1.2 0.5 0.4 0.2 0.7 0.2 1.1 0.4l2.1 0.9c1.4 0.6 3.1 1.1 4.8 1.1s3.3-0.5 4.8-1.1c0.8-0.3 1.5-0.6 2.2-1 0.7-0.3 1.4-0.7 2.1-1 0.7-0.4 1.4-0.7 2.1-1.1 0.3-0.2 0.6-0.4 0.9-0.5-0.1 1.9 0.1 4 1.1 5.9 1.1 1.8 2.6 3.1 4.3 4.1s3.5 1.7 5.4 2.2 3.8 0.8 5.7 1c0.5 0 1 0.1 1.5 0.1h0.4 0.2 0.1 0.1 0.1 0.1c0.2-0.1 0.4-0.1 0.6-0.2 0.8-0.3 1.7-0.5 2.5-0.5 0.9 0.1 1.7-0.1 2.5-0.3s1.6-0.5 2.3-0.8c1.5-0.6 2.9-1.4 4.3-2.2 2.7-1.6 5.3-3.4 7.9-5.4l-0.1-0.1 1.5 1.1 0.1 0.1h0.1c0.2 0.1 0.4 0.1 0.6 0.1 2.8 1.8 10.6 4.4 15.8 4.4h0.5c5.2-0.2 9.4-2.9 11.8-7.6 1.8-3.3-0.1-10.1-1.3-13.7 1.3 1.4 2.7 2.5 5.9 3.9 2.5 0.9 4.8 1.3 6.7 1.3 8.3 0 11.4-6.8 11.9-7.9 2.7-3.2 1.7-7.2 0.1-10.3 3.1 1.8 6.4 2.9 9.9 3.3 0.5 0.1 0.9 0.1 1.3 0.1 7.6 0 12-7.9 12.6-10.4 2.3-9.2-2.6-17.2-4-19.4 0.9-0.9 2.6-2.4 4-3 0.9 1.9 2.1 4.1 4.8 6.1 0.6 1.8 1.2 3.8 1.9 5.6 0.7 2 1.4 3.9 2.2 5.8 1.6 3.9 3.3 7.6 5.4 11.3 1.1 1.8 2.2 3.6 3.5 5.3s2.7 3.2 4.2 4.7 3.1 2.9 4.9 4c0.9 0.6 1.9 1.1 2.9 1.5 0.5 0.2 1.1 0.3 1.7 0.4 0.3 0 0.6 0.1 0.9 0h0.5c0.2 0 0.3 0 0.6-0.2h-0.1l26.3-7c4.4-1.2 8.7-2.4 13.1-3.6 4.4-1.3 8.7-2.6 12.8-4.5v-0.1c-4.6 0.5-9 1.6-13.3 2.8-4.4 1.2-8.8 2.3-13.1 3.6l-13.1 3.7-13.1 3.7h-0.1-0.2-0.3-0.6c-0.4-0.1-0.9-0.2-1.3-0.3-0.9-0.3-1.8-0.8-2.6-1.3-1.7-1.1-3.2-2.4-4.7-3.8-1.4-1.4-2.8-2.9-4-4.6-1.2-1.6-2.3-3.3-3.4-5.1-2.1-3.5-3.8-7.3-5.4-11.1-0.8-1.9-1.5-3.8-2.2-5.8-0.5-1.3-0.9-2.6-1.3-3.9 0.1 0 0.2 0.1 0.2 0.1 1.4 3.3 2.8 6.6 4.4 9.8 1.6 3.3 3.3 6.6 5.2 9.8s3.9 6.3 6.2 9.2c1.2 1.4 2.5 2.8 4 4s3.2 2.3 5.3 2.5h0.1 0.1c0.1 0 0.3-0.1 0.3-0.1 0.1 0 0.1-0.1 0.2-0.1s0.1-0.1 0.2-0.1l0.2-0.2c0.1-0.1 0.2-0.3 0.3-0.4 0.2-0.3 0.4-0.5 0.5-0.7 0.3-0.5 0.6-1 0.9-1.5 0.6-1 1.1-2 1.6-3.1 1-2.1 2-4.2 2.9-6.3 1.8-4.3 3.3-8.6 4.6-13 2.6-8.8 4.4-17.9 5.3-27.1s0.9-18.4-0.1-27.6-2.9-18.2-5.8-27v-0.1-0.1c-2.2-4.2-4.7-8.3-7.5-12.1s-6-7.4-9.7-10.5-7.9-5.6-12.5-7c-3.7-1.2-7.7-1.5-11.6-1.1 0.8-0.6 1.7-1.2 2.7-1.6 1.7-0.8 3.5-1.3 5.4-1.2 0.9 0 1.9 0.2 2.8 0.4 1 0.2 1.9 0.4 2.9 0.6 1.9 0.5 3.9 1 5.8 1.5l0.2-0.4c-1.8-1-3.6-1.9-5.6-2.5-0.3-0.1-0.6-0.2-0.9-0.3l27.4-4.5 3.9-0.7c1.3-0.2 2.6-0.5 3.9-0.8 2.6-0.5 5.1-0.7 7.7-0.5s5.1 0.7 7.6 1.4c2.5 0.8 5 1.7 7.6 2.4l0.1-0.4c-1.2-0.6-2.4-1.1-3.6-1.7-1.2-0.5-2.4-1.1-3.7-1.6-1.5-0.6-3-1-4.5-1.3 0.8-0.3 1.6-0.6 2.4-0.8 1.5-0.4 3.1-0.6 4.7-0.5 1.4 0.1 2.8 0.2 4.2 0.2v0.1s0.1 0 0.1-0.1h0.6c1.7 0 3.3-0.2 5-0.4-1.3-0.2-2.5-0.4-3.8-0.5l1.5-0.6c1.2-0.4 2.4-0.9 3.7-1.2s2.5-0.6 3.8-0.8 2.6-0.4 3.9-0.6v-0.2c-0.9 0.1-2.3 0.1-3.6 0.1zm-218.9 19.2c2-1.7 4.6-2.7 7.2-3.2h0.1 0.1c4.6-2.1 9.2-4.2 13.6-6.6l1.7-0.9c0.5-0.3 1.2-0.7 1.7-1 1-0.7 2.1-1.4 3.1-2 2.1-1.2 4.3-2.3 6.7-3 2.3-0.7 4.7-1.1 7.1-1.1 1.2 0 2.4 0.2 3.6 0.4 0.6 0.1 1.2 0.3 1.7 0.5l1.8 0.6c4.8 1.5 9.7 2.8 14.5 4.2 4.9 1.3 9.7 2.6 14.6 3.9s9.7 2.6 14.7 3.7c2.4 0.5 4.8 1.3 7.1 2.1 2.4 0.8 4.7 1.7 7 2.7s4.5 2 6.7 3.2 4.3 2.4 6.3 4l0.2-0.2c-0.8-1.1-1.7-2-2.7-2.8 8.7-2.9 15.9-3.5 17.1-3.6l1.2 0.6c0.2 0.1 22.4 14.5 28.3 81-0.6 0.1-1.2 0.2-1.9 0.3-0.4-3.1-0.8-6.2-1.3-9.3-0.3-1.7-0.6-3.3-0.9-5-0.4-1.6-0.7-3.3-1.3-4.9 0.5 1.6 0.8 3.3 1.1 4.9 0.3 1.7 0.5 3.3 0.7 5 0.4 3.1 0.7 6.2 0.9 9.3-0.6 0.1-1.3 0.2-1.8 0.4-0.4-3.2-0.9-6.5-1.6-9.6 0.5 3.3 0.8 6.5 0.9 9.8-0.6 0.1-1.2 0.3-1.6 0.4 0.1-0.8 0.2-1.7 0.2-2.8 0.4-5.8-7-13.5-12.4-19.2-1.3-1.4-2.4-2.5-3.2-3.5-4.1-4.8-15.1-10.4-15.6-10.7l-26.9-10.9c-0.3-0.1-25.7-9.8-29.8-12.1-3.5-2-8.8-2.3-12.4-2.4-0.9 0-1.6-0.1-2.2-0.1-2.7-0.3-7.6-1.5-12.1-3.4-1.1-0.5-2.3-0.8-3.5-0.9 1.3-3.9 2-8 1.8-12.1-0.1-4.4-1.3-8.8-3.4-12.6 1.8 4 2.7 8.3 2.6 12.6-0.1 4.1-1 8.2-2.6 11.9-0.9-0.1-1.8-0.1-2.7-0.1 0.3-1.4 0.4-2.9 0.3-4.4-0.1-1.8-0.5-3.6-1-5.3-1-3.4-2.7-6.6-4.5-9.6 1.6 3.1 3 6.4 3.8 9.8 0.4 1.7 0.6 3.4 0.6 5.1 0 1.5-0.3 3-0.7 4.4-1.3 0.1-2.2 0.3-2.4 0.3-0.2-0.9-0.4-1.8-0.7-2.7-0.9-2.7-2.2-5.4-3.9-7.6-1.7-2.3-3.9-4.2-6.4-5.6l-0.1 0.3c4.6 3.2 7.7 8.1 9 13.3 0.7 2.6 1 5.4 1 8.1s-0.3 5.5-0.9 8.1c-1.2 5.3-4.1 10.2-8.3 13.7-2.1 1.7-4.5 3.1-7 4.1s-5.2 1.6-7.9 1.6c-0.7 0-1.3-0.1-1.9-0.2-0.3-0.1-0.5-0.2-0.8-0.3s-0.6-0.3-0.8-0.5c-1.1-0.7-2-1.6-2.7-2.7-0.6-1.1-1-2.3-1.1-3.6-0.1-0.7-0.1-1.3 0-2v-2.1c0-2.8-0.3-5.6-0.7-8.4s-0.8-5.6-1.6-8.3c-0.8-2.6-1.1-5.3-1.2-8.1-0.1-2.7 0.2-5.5 1-8 1.1-2.9 2.4-5.2 4.5-6.9zm175.4 115.8c-7.3 0-11.5-1.8-13.7-5.7-3.5-6.3-4.8-11.9-5.1-13 1.6-3.4-0.3-10.4-0.4-10.7h-0.1c0.1-0.3 0.2-0.7 0.2-1.1 0.7-0.2 4.2-1.1 7.1-1.4 0.5 6.2 0.9 12.8 1.1 19.9-0.1 0.6-0.4 3.9 1.6 6.3 1.4 1.6 3.5 2.5 6.3 2.5l3.8 0.2c-0.1 1-0.4 2-0.8 3zm-281.7-79.5c0.7-3 1.5-6 2.4-8.9 0.9-3 2-5.9 3.2-8.7 1.3-2.8 2.7-5.6 4.7-7.8 0.8-0.9 1.7-1.6 2.6-2.2 4.8 0.3 9.2 1.5 10.3 2.8 0.2 0.2 0.2 0.3 0.2 0.5-0.7 2-15.2 44.4-16.8 91.3 0 1.4-2.7 5.3-7.3 6.1-0.9-7.4-1.5-14.9-1.8-22.4-0.7-17.1 0-34 2.5-50.7zm8.5 59.9c1.3-0.1 2.5-0.3 3.7-0.4-0.8 1.3-2.5 3.1-3.9 4.4 0-1.3 0.1-2.7 0.2-4zm0 22c-0.4 3.3-0.9 6.5-1.6 9.7-0.3 1.6-0.7 3.2-1.2 4.7-0.2 0.8-0.5 1.5-0.9 2.2-0.2 0.3-0.4 0.7-0.6 0.9 0 0.1-0.1 0.1-0.1 0.1l-0.2-0.7c-0.1-0.5-0.3-1-0.4-1.5-0.3-1-0.5-2-0.7-3.1-0.5-2.1-0.9-4.1-1.3-6.2-0.8-4.2-1.4-8.3-2-12.5-0.1-0.4-0.1-0.9-0.2-1.3 5.2-0.8 8.6-5.2 8.7-7.6v-0.8c0.2-0.2 1.1-0.9 2.1-2-0.2 6.3-0.8 12.2-1.6 18.1zm43.5-5.7c0.7-0.7 1.3-1.5 1.7-2.4-1.4 1.1-2.8 2-4.3 2.7h-0.1c-0.2 0.1-0.4 0.2-0.7 0.3-1.7 0.8-3.7 1.1-5.6 1.1s-3.8-0.4-5.7-0.9c-0.8-0.2-1.6-0.5-2.4-0.8l0.6-0.1-0.2-0.8c-0.1-0.4-0.4-1-1.8-1.8l-0.4-0.2-0.4 0.2s-0.2 0.1-0.6 0.1c-1.5 0-4.2-0.8-4.7-1-3.7-1.8-5.8-4-6.1-6.4-0.4-3.2 2.4-6.1 3.3-6.9 7.5 0.4 13.9 1.8 18.8 4.2 7.1 5 14.3 7.5 16.8 8.3-0.3 0.9-0.5 1.9-0.5 2.9v0.2c-1.1 0.3-4.6 0.8-7.7 1.3zm37.5 20.3c-1.4 0.7-2.7 1.4-4.1 2.1l-2 1.1c-0.6 0.3-1.2 0.5-1.8 0.5-1.3 0.1-2.6-0.4-3.9-1.1s-2.5-1.5-3.7-2.4-2.4-1.8-3.6-2.8l-1.8-1.4c-0.6-0.4-1.1-0.9-1.6-1.5-1.9-2.1-3.2-4.8-3.9-7.6s-1-5.8-1-8.8c0-1.3 0.4-2.7 1-4s1.3-2.7 2-4 1.6-2.6 2.4-3.9 1.7-2.5 2.4-4l0.1-0.1v-0.1c0.4-2.1 2.1-3.9 4.2-5 2-1.1 4.4-1.5 6.8-1.4 2.4 0.2 4.7 0.9 6.7 2.2 1 0.6 1.9 1.4 2.8 2.2 0.4 0.4 0.8 0.8 1.2 1.3 0.4 0.4 0.7 0.9 1 1.4 1.2 2 1.7 4.4 1.8 6.8 0 2.4-0.4 4.8-1 7.2s-1.5 4.7-2.5 7-2 4.5-2.8 7c1.6-1.5 2.8-3.4 3.7-5.3l0.6 1.5c0.3 1 0.5 2.1 0.6 3.2 0.2 2.2 0.1 4.4-0.1 6.6 0.5-2.2 0.8-4.4 0.9-6.6 0-1.1 0-2.3-0.2-3.4-0.1-0.5-0.2-1.1-0.4-1.6l5.3 1.9c-0.2 0.5-0.4 0.9-0.5 1.4-0.4 1.3-0.6 2.7-0.6 4.1 0 1.3 0 2.5-0.1 3.7-2.6 1.3-5.3 2.5-7.9 3.8zm53.5 25.7zm12.1-3.9c-1.3 0.8-2.7 1.5-4.1 2.1-0.7 0.3-1.4 0.6-2.1 0.8s-1.4 0.3-2 0.2h-0.1-0.1c-1 0.1-2 0.3-2.9 0.6-0.2 0.1-0.5 0.2-0.7 0.2h-0.1-0.3c-0.4 0-0.9 0-1.3-0.1-1.8-0.1-3.6-0.5-5.4-1s-3.5-1.1-5-2-2.9-2.1-3.8-3.6c-0.8-1.4-1-3.2-0.9-5s0.4-3.6 0.8-5.4c0.9-3.6 2.2-7.1 3.7-10.4 1.5-3.4 3.3-6.7 5.3-9.8 1-1.6 2-3.1 3.2-4.6 1.1-1.4 2.4-2.9 3.5-4.4s2.2-3 3.4-4.4 2.5-2.6 4.1-3.2 3.3-0.3 5 0.3 3.3 1.4 4.9 2.4c1.5 1.1 2.8 2.4 3.6 4 0.8 1.5 1 3.3 0.5 5.1-0.4 1.8-1.2 3.5-2 5.3-0.2 0.5-0.4 0.9-0.5 1.4l-0.5 1.4c-0.3 0.9-0.7 1.8-1 2.7-1.4 3.6-3 7-4.9 10.4-1.9 3.3-3.9 6.5-6.4 9.5 1.7-1 3.2-2.4 4.4-3.9 0.4 0.4 0.9 0.8 1.3 1.2 0.1 1.3 0 2.6-0.2 4-0.2 1.3-0.6 2.7-1 4 0.6-1.2 1.2-2.5 1.7-3.8 0.3-0.9 0.7-1.9 0.8-2.9 0.3 0.3 0.7 0.6 1 0.9 1.5 1.2 3 2.4 4.9 3.2 0.1 0 0.1 0.1 0.2 0.1-2.2 1.6-4.6 3.2-7 4.7zm37.8-6.7c-2.2 4.2-5.9 6.6-10.5 6.7-3.9 0.1-10-1.6-13.6-3.1 0.5-0.2 1-0.5 1.5-0.8 1.3-0.9 2.2-2.2 2.9-3.6-0.4 0.6-1 1.2-1.5 1.6-0.6 0.5-1.2 0.9-1.8 1.2s-1.3 0.5-2 0.5c-0.6 0-1.2-0.1-1.8-0.2l-0.7-0.5c0.9-0.5 1.7-1.1 2.3-1.8 1.3-1.5 2.3-3.1 3.1-4.8l-0.1-0.1c-1.1 1.5-2.4 2.9-3.8 4.1-0.7 0.6-1.5 1-2.2 1.3-0.8 0.2-1.4 0.3-2.1-0.1-1.6-0.8-3.1-1.9-4.5-3-1.3-1.1-2.5-2.2-3.7-3.4 0.9-1.1 1.6-2.3 2.4-3.6 2-3.4 3.6-6.9 5-10.6 0.3-0.9 0.7-1.8 1-2.8l0.5-1.4c0.2-0.4 0.3-0.9 0.5-1.3 0.4-1 0.8-1.9 1.2-2.9l6.6 3.5c2.1 2.3 4.3 4.5 6.5 6.7 1.1 1.1 2.2 2.2 3.4 3.2 0.6 0.5 1.4 1 2.2 1.1 0.9 0.2 1.6-0.1 2.4-0.2-0.4-0.1-0.8-0.1-1.2-0.1s-0.7-0.1-1.1-0.3c-0.3-0.1-0.6-0.3-0.9-0.5s-0.5-0.5-0.8-0.8c-1-1.1-2-2.3-3-3.5-0.9-1-1.8-2.1-2.8-3.1l14.5 7.7c1.2 3.5 3.7 11.6 2.1 14.9zm46.7-58.6c0.5 0.5 0.8 1.2 1.2 1.9-1.6 0.7-3.3 2.1-4.2 3l-0.6-1.2c-1.7-2.8-4.2-4.9-6.8-6.7-0.6-0.5-1.3-0.9-2-1.3s-1.3-0.8-2-1.2c-1.3-0.8-2.7-1.6-4.1-2.3-2.7-1.5-5.4-3-8.2-4.5l-8.2-4.4-4.1-2.1-2.1-1.1c-0.7-0.4-1.4-0.7-2-1l-1.2-0.9c2.4 0.7 4.8 1.6 7.1 2.8l1.2 0.6 1.2 0.6c0.8 0.4 1.7 0.7 2.5 1.1 1.7 0.7 3.4 1.2 5.1 1.8 3.4 1.2 6.8 2.2 10.3 3.2 1.5 0.4 3 0.8 4.6 1.2 4.6 3.6 10.3 8.4 12.3 10.5zm3 2.1c-0.5-1.2-1-2.3-1.8-3.2-1.9-2.1-6.9-6.3-10.2-8.9 0.9 0.1 1.8 0.2 2.7 0.1v-0.1c-1.6-1-3.3-1.6-5-2.1l-5.1-1.5c-3.4-1-6.9-2-10.3-3.1-1.7-0.5-3.4-1.1-5-1.7-0.8-0.3-1.6-0.6-2.4-1l-1.2-0.6-1.2-0.6c-3.3-1.6-6.7-2.8-10.3-3.6-1-1-1.9-2-2.8-3.1-2-2.3-3.9-4.7-5.9-7.2l-0.1 0.1c0.7 1.4 1.5 2.7 2.4 4 0.8 1.3 1.7 2.6 2.7 3.8s2 2.4 3.1 3.5 2.3 2.2 3.7 3.1l8.3 4.4 8.2 4.4c2.7 1.5 5.4 3 8.2 4.5 1.4 0.8 2.7 1.5 4 2.3 0.7 0.4 1.3 0.8 2 1.2 0.6 0.4 1.3 0.8 1.9 1.3 2.5 1.8 4.8 3.8 6.3 6.3 0.4 0.6 0.7 1.3 0.9 2s0.5 1.3 0.6 2.1c0.3 1.4 0.2 2.9-0.2 4.4l0.2 0.1c0.7-1.1 1.2-2.4 1.3-3.8 1.8 3.3 4.2 9.4 2.6 16.1-0.5 2.2-5 10-12.2 9.1-4.2-0.5-8.1-2.1-11.7-4.6-0.1-0.1-0.2-0.1-0.2-0.2-0.8-1.1-1.4-1.8-1.5-1.9-0.3-0.9-0.8-1.7-1.4-2.5-0.8-1.1-1.9-2-3-2.8-2.7-2.2-5.7-4.1-8.7-5.9s-6-3.4-9.1-5-6.2-3-9.4-4.5c-3.2-1.4-6.3-2.9-9.8-3.5 1.4 1.1 2.9 1.9 4.5 2.7 1.5 0.8 3.1 1.5 4.7 2.2 3.1 1.5 6.2 3 9.3 4.6s6.1 3.2 9.1 4.9 5.9 3.5 8.6 5.6h0.1c1 0.6 2 1.4 2.8 2.4 0.6 0.8 1.1 1.6 1.5 2.5l0.1 0.1c0.1 0.2 0.1 0.3 0.2 0.5 0.4 1.2 0.5 2.4 0.4 3.7s-0.4 2.5-0.8 3.8l0.2 0.1c0.7-1.1 1.2-2.4 1.5-3.7 0.1-0.7 0.2-1.4 0.2-2.1 1.9 2.8 4.3 7.6 1.4 11l-0.1 0.1v0.1c-0.2 0.4-3.9 10.3-16.6 5.8-3.6-1.7-4.7-2.8-6.2-4.4l-0.1-0.1-25.4-13.6-2.4-1.3 0.3-1.2c0.2-1 0.3-2.1 0.2-3.1-0.1-1.1-0.4-2.1-0.9-3-1-1.9-2.5-3.3-4.1-4.5-1.6-1-3.3-1.9-5.2-2.5-0.9-0.3-1.9-0.6-2.9-0.6-1-0.1-2.1 0-3.1 0.4-2 0.7-3.5 2.2-4.7 3.6-1.3 1.5-2.4 3-3.5 4.5s-2.3 2.9-3.5 4.4-2.2 3.1-3.3 4.7c-2 3.2-3.8 6.5-5.4 10-1.6 3.4-2.9 7-3.8 10.7-0.3 1.2-0.5 2.5-0.7 3.8l-0.1-0.1c-0.2 0.2-0.5 0.4-0.8 0.6s-0.6 0.4-1 0.6c-0.6 0.4-1.3 0.7-2 1.1-0.7 0.3-1.4 0.7-2.1 1s-1.4 0.7-2.1 0.9c-1.4 0.5-2.8 0.9-4.2 1-1.4 0-2.8-0.4-4.2-1-0.7-0.3-1.4-0.6-2.2-0.9-0.4-0.1-0.8-0.3-1.1-0.4s-0.6-0.3-0.9-0.4c-1.2-0.7-2.3-1.7-3.3-2.8s-1.8-2.4-2.6-3.7c-0.2-0.3-0.4-0.7-0.6-0.9-0.2-0.3-0.3-0.6-0.4-0.9s-0.1-0.6-0.2-1v-0.9c0.9-2.6 1.4-5.1 1.7-7.8 0.1-1.3 0.2-2.7 0.2-4 0-1.2 0.2-2.4 0.5-3.6 0.7-2.4 2-4.6 3.5-6.8 1.4-2.1 3.1-4.1 4.7-6.3 1.5-2.1 3.2-4.1 4.8-6.2l5-6.1 5-6.1 0.6-0.8c0.1-0.1 0.2-0.3 0.3-0.4l0.3-0.4c0.3-0.6 0.7-1.1 1.1-1.6 0.7-1 1.6-1.9 2.6-2.6 0.2-0.2 0.5-0.3 0.8-0.4 0.1-0.1 0.3-0.1 0.4-0.2l0.2-0.1h0.1c0.6-0.2 1.2-0.3 1.8-0.4 1.2-0.2 2.5-0.1 3.7 0.1 2.4 0.5 4.7 1.7 6.5 3.4s3.2 3.9 3.9 6.3c0.4 1.2 0.5 2.4 0.4 3.6-0.1 1.1-0.6 2.3-1.1 3.5-2.1 4.7-5 9.1-7.6 13.6-2.7 4.5-5.4 9-8 13.6 3.4-4 6.4-8.3 9.3-12.7 1.4-2.2 2.8-4.5 4.1-6.7 1.3-2.3 2.6-4.6 3.6-7.1 0.5-1.2 1-2.5 1.2-4 0.1-1.5-0.1-2.9-0.5-4.2-0.8-2.7-2.3-5-4.3-7-2-1.9-4.5-3.3-7.2-3.9-1.4-0.3-2.8-0.3-4.2-0.1-0.7 0.1-1.4 0.2-2 0.4h-0.1-0.1-0.1l-0.2 0.1c-0.2 0.1-0.4 0.1-0.5 0.2-0.3 0.2-0.6 0.3-0.9 0.5-1.2 0.8-2.2 1.8-3 3-0.4 0.6-0.8 1.1-1.1 1.7l-0.3 0.4c-0.1 0.1-0.1 0.2-0.3 0.3l-0.6 0.8-5 6.1-5 6.1c-1.6 2.1-3.3 4.1-4.9 6.3-2.4 3.4-5.3 6.7-7.2 10.7l-6.3-2.2c0.8-2 1.6-4 2.1-6.1 0.7-2.5 1.1-5 1.1-7.7 0-2.6-0.6-5.3-2-7.6-0.4-0.6-0.7-1.1-1.2-1.7-0.4-0.5-0.9-1-1.3-1.4-0.9-0.9-2-1.7-3.1-2.5-2.2-1.4-4.8-2.3-7.5-2.5s-5.4 0.3-7.8 1.5c-1.2 0.6-2.3 1.4-3.2 2.5-0.9 1-1.6 2.2-1.9 3.6-0.6 1.2-1.5 2.5-2.3 3.8l-2.4 3.9c-0.8 1.3-1.5 2.7-2.1 4.2 0 0.1-0.1 0.2-0.1 0.4-1.8-0.6-6.3-2.1-11.3-4.9l0.1-2.7-0.7 2.4c-1.4-0.8-2.9-1.7-4.4-2.7 0.1-0.7 0.2-1.5 0.3-2.2 0.1-1 0.2-2 0.1-2.9-0.1 1-0.3 1.9-0.5 2.9-0.2 0.7-0.3 1.3-0.5 2-3.6-1.8-8-3-13-3.7 0.3-2 0.5-4 0.8-6 0.2-2.2 0.4-4.3 0.5-6.5-0.2 2.2-0.5 4.3-0.9 6.4-0.3 2-0.7 4-1.1 6-2.4-0.3-4.9-0.5-7.5-0.5 0.5-2.9 0.9-5.8 1.2-8.7 0.3-3.2 0.6-6.4 0.6-9.5-0.1 3.2-0.5 6.3-1 9.5-0.4 2.9-1 5.8-1.6 8.7-2.6 0-5.3 0-8.1 0.2 1-5.1 1.8-10.2 2.5-15.4s1.3-10.4 1.3-15.6c-0.2 5.2-0.9 10.4-1.7 15.6s-1.8 10.3-2.9 15.4l0.3 0.1c-1.7 0.1-3.4 0.3-5.1 0.5 2.4-34.8 11.1-65.8 14.7-77.4 0.8 0.2 6.9 1.4 19.2 3.7 5.8 1.1 10.9 1.7 15.4 1.7s8.4-0.6 11.8-1.7c4.6-1.6 24.8-11.9 31.1-15.2 0 0.1-0.1 0.3-0.1 0.4-0.9 2.8-1.1 5.7-1.1 8.5 0.1 2.9 0.5 5.7 1.3 8.5 0.8 2.6 1.2 5.4 1.6 8.1s0.6 5.5 0.6 8.3v2 2.2c0.1 1.5 0.5 3 1.3 4.3s1.9 2.4 3.2 3.2c0.3 0.2 0.6 0.4 1 0.6 0.3 0.1 0.7 0.4 1.1 0.5 0.8 0.2 1.5 0.2 2.3 0.3 2.9 0 5.8-0.7 8.5-1.7s5.2-2.5 7.4-4.3 4.1-4.1 5.6-6.5c1.5-2.5 2.5-5.2 3.2-8 0.6-2.8 1-5.6 1-8.5 0-1.4-0.1-2.8-0.3-4.3 0.2 0 6.4-1.2 10.8 0.7 4.6 2 9.7 3.2 12.6 3.5 0.6 0.1 1.3 0.1 2.2 0.1 3.2 0.2 8.5 0.4 11.7 2.2 4.2 2.4 29 11.8 30 12.2l26.8 10.8c0.1 0.1 11.2 5.7 15.1 10.3 0.8 1 2 2.2 3.3 3.5 4.9 5.2 12.3 12.9 12 18-0.4 5.3-0.7 5.7-1.7 7.2-0.3 0.4-0.6 0.9-1 1.5-0.6 0.9-1.1 1.7-1.7 2.5-1.3 1.8-2.5 3.4-2.4 5.2l0.3 1.3 0.3 0.2c0.3 0.2 0.6 0.4 0.8 0.6 0.6 0.4 1.1 0.6 1.5 0.6 0.7 0 1.3-0.7 2.4-1.9l0.2-0.3c1.2-1.4 1.6-3.5 1.6-5.4 0.1 1.7 0 3.4-0.5 4.5-2.5 4.5-6.2 5.2-12 2.3-5.4-2.5-6.7-5.3-7.8-7.8zm16.6 5.1l-0.2 0.3c-0.6 0.7-1.1 1.2-1.3 1.4-0.1-0.1-0.3-0.2-0.5-0.3s-0.4-0.3-0.6-0.4l-0.1-0.5c0-1.3 0.9-2.6 2.1-4.2 0.6-0.8 1.2-1.6 1.8-2.6 0 0 0-0.1 0.1-0.1 0.1 2.1 0 5-1.3 6.4zm20.1 25.8c-0.9 2.1-1.8 4.2-2.8 6.2-0.5 1-1 2-1.6 3-0.3 0.5-0.6 1-0.9 1.4-0.2 0.2-0.3 0.5-0.5 0.7-0.1 0.1-0.1 0.2-0.2 0.2-1.5-0.3-2.9-1.1-4.2-2.2-1.4-1.1-2.6-2.4-3.7-3.8-2.3-2.8-4.3-5.8-6.1-9-1.8-3.1-3.5-6.4-5.1-9.6-1.3-2.7-2.5-5.4-3.7-8.2 1.8 0.7 3.5 1.1 5 1.1 2.6 0 4.6-1.1 6.3-3.3 0.6 2.4 2.1 6.9 4.9 12 2.4 4.4 6.9 6.4 14.5 6.5-0.6 1.7-1.3 3.3-1.9 5zm-24.9-122.2c4.4 1.3 8.4 3.7 12 6.7s6.7 6.5 9.4 10.2c2.8 3.7 5.2 7.7 7.3 11.8 2.8 8.6 4.8 17.5 5.7 26.6 1 9 1 18.2 0.1 27.3s-2.6 18-5.2 26.8l-0.6 1.8-4.2-0.2c-2.4 0-4.1-0.6-5.2-1.9-1.7-2-1.2-5.1-1.2-5.1v-0.1-0.1c-1.3-44.8-9.4-70.6-15.9-84.3-7.2-15-14-19.3-14.4-19.5l-1.2-0.6c4.5-1 9.1-0.8 13.4 0.6z"/>
	<path d="m376.4 150c-3.6 0.9-7.1 1.7-10.7 2.6l-2.7 0.7c-0.9 0.2-1.8 0.4-2.7 0.5-0.9 0.2-1.9 0.4-2.7 0.9-0.4 0.2-0.8 0.5-1.2 0.8s-0.6 0.7-1 1c0.7-0.6 1.4-1.1 2.3-1.4 0.8-0.3 1.7-0.5 2.6-0.5 1.9-0.1 3.7-0.5 5.5-0.8 3.6-0.7 7.2-1.5 10.8-2.3 3.6-0.9 7.1-1.7 10.6-2.7s7-2 10.5-3.2c-3.6 0.6-7.2 1.3-10.8 2-3.3 0.8-6.9 1.6-10.5 2.4z"/>
	<path d="m33.6 163.2c1.8 0.3 3.6 0.7 5.5 0.8 0.9 0 1.8 0.2 2.6 0.5s1.6 0.8 2.3 1.4c-0.3-0.3-0.6-0.7-1-1s-0.7-0.6-1.2-0.8c-0.8-0.4-1.8-0.7-2.7-0.9-0.9-0.1-1.8-0.3-2.7-0.5l-2.7-0.7c-3.5-0.9-7.1-1.8-10.7-2.6s-7.1-1.6-10.7-2.4-7.2-1.5-10.8-2c3.5 1.2 7 2.2 10.5 3.2s7.1 1.9 10.6 2.7c3.8 0.8 7.4 1.6 11 2.3z"/>
	<path d="m196.4 220.8c0.9-1.4 1.8-2.8 2.9-4 1 0.3 2 0.8 2.9 1.4 1 0.7 1.9 1.5 2.8 2.3 0.9 0.9 1.7 1.8 2.5 2.7 0.7 0.9 1.4 1.8 2 2.7-0.3 0.7-0.8 1.4-1.3 2-0.5 0.7-1.1 1.5-1.7 2.2l-1.7 2.2-1.8 2.2c0.7-0.6 1.4-1.3 2.1-1.9l2-2c0.6-0.7 1.3-1.4 1.9-2.1 0.3-0.4 0.6-0.7 0.9-1.1s0.6-0.8 0.8-1.3l0.1-0.2-0.1-0.2c-0.6-1.2-1.4-2.2-2.2-3.2s-1.7-2-2.6-2.9-1.9-1.7-3-2.4-2.3-1.3-3.7-1.5l-0.3-0.1-0.2 0.2c-1.1 1.5-2 3-2.9 4.7-0.4 0.8-0.8 1.6-1.2 2.5-0.4 0.8-0.7 1.7-1 2.5l1.3-2.3 1.5-2.4z"/>
	<path d="m202.7 234.7c-1.2-0.3-2.3-0.7-3.4-1.1-1.1-0.5-2-1-2.9-1.8-0.8-0.7-1.5-1.6-2-2.6s-0.8-2.2-1-3.4c-0.3 1.2-0.3 2.5 0 3.7s1.1 2.4 2.1 3.2 2.2 1.4 3.4 1.7c1.3 0.4 2.6 0.5 3.8 0.3z"/>
	<path d="m209 226.2c-0.5-1.1-1.1-2-1.9-2.9-0.7-0.9-1.6-1.7-2.4-2.4-0.9-0.7-1.8-1.4-2.8-1.9-1-0.6-2-1.1-3.1-1.4 1.7 1.5 3.4 2.9 5.1 4.3 0.9 0.7 1.7 1.4 2.5 2.1 0.9 0.7 1.7 1.4 2.6 2.2z"/>
	<path d="m109.5 221.3c-0.3 1.5-0.7 2.9-1.1 4.3l0.8 0.2c0.3-1.5 0.6-3 0.8-4.4 0.2-1.5 0.3-3 0.2-4.5-0.1 1.5-0.4 3-0.7 4.4z"/>
	<path d="m156 234.8c-1.1-0.7-2.2-1.3-3.2-1.9l-1.5-0.9c-0.5-0.3-1-0.6-1.4-0.9-0.5-0.3-0.9-0.7-1.3-1-0.5-0.3-0.9-0.7-1.3-1.1-0.9-0.8-1.7-1.6-2.6-2.6h-0.2c0.4 1.2 1 2.3 1.8 3.3s1.7 1.9 2.7 2.6c2.1 1.5 4.5 2.3 7 2.7v-0.2z"/>
	<path d="m229.9 245.1c-0.2-1-0.7-1.8-1.3-2.6-0.6-0.7-1.3-1.3-2.1-1.8-0.4-0.2-0.8-0.5-1.2-0.7s-0.9-0.4-1.3-0.5c-0.9-0.2-1.9-0.4-2.8-0.2v0.1c0.8 0.2 1.7 0.6 2.5 0.9 0.8 0.4 1.6 0.8 2.3 1.3 1.3 1 2.7 2.2 3.9 3.5z"/>
	<path d="m179.9 166.7c0.9-0.6 1.9-1.2 3-1.6 2.1-0.9 4.3-1.5 6.5-1.9v-0.1c-1.2-0.2-2.4-0.2-3.5 0-1.2 0.1-2.3 0.5-3.4 0.9-0.5 0.2-1.1 0.5-1.6 0.8s-1 0.7-1.5 1.1c-0.9 0.8-1.7 1.9-1.9 3.1h0.1c0.5-0.9 1.4-1.7 2.3-2.3z"/>
	<path d="m298.7 242.3c-0.9 0.7-1.7 1.4-2.6 2.2 2.1-0.9 3.9-2.3 5.6-3.8 0.8-0.8 1.6-1.7 2.2-2.6 0.6-1 1.1-2 1.3-3.1-0.5 1-1.1 1.9-1.8 2.8-0.7 0.8-1.5 1.7-2.3 2.4-0.7 0.6-1.6 1.4-2.4 2.1z"/>
	<path d="m299.7 234.4c0.7-1.2 1.2-2.4 1.6-3.7s0.5-2.7 0.4-4c-0.2 1.3-0.5 2.6-1 3.8s-1 2.4-1.7 3.5c-1.3 2.3-2.9 4.3-4.7 6.3 2.3-1.5 4.1-3.5 5.4-5.9z"/>
	<path d="m277 256.6c1.8-2.2 3.1-4.7 3.8-7.4-0.6 1.2-1.3 2.4-2 3.6-0.7 1.1-1.5 2.3-2.4 3.3-1.7 2.1-3.8 3.9-6.1 5.3 1.3-0.4 2.6-1.1 3.7-1.9 1-0.9 2.1-1.9 3-2.9z"/>
	<path d="m277.5 262.5c-0.7 0.4-1.3 0.8-2.1 1.2 0.8 0 1.6-0.3 2.4-0.7 0.7-0.3 1.4-0.8 2.1-1.3 0.6-0.5 1.3-1 1.8-1.6 0.6-0.6 1.1-1.2 1.5-1.9-1.3 0.9-2.6 1.9-3.8 2.9-0.6 0.5-1.2 1-1.9 1.4z"/>
	<path d="m200.7 279.7c-1-0.4-1.9-0.8-2.9-1.4 0.7 0.8 1.6 1.4 2.6 1.9s2 0.9 3 1.2c2.1 0.6 4.3 0.8 6.5 0.5-2.1-0.3-4.2-0.7-6.2-1.3-1-0.2-2-0.5-3-0.9z"/>
	<path d="m203.8 284.1c-1.7-0.6-3.3-1.2-5.1-1.8 0.7 0.6 1.5 1.1 2.3 1.5s1.6 0.8 2.5 1.1 1.8 0.5 2.7 0.6 1.9 0.1 2.7-0.2c-0.9 0-1.8-0.2-2.6-0.4s-1.6-0.5-2.5-0.8z"/>
	<path d="m177.9 272c1.1 0.2 2.2 0.2 3.2 0-2.1-0.3-4.1-0.8-6.1-1.5-1-0.4-1.9-0.8-2.9-1.3-0.9-0.5-1.9-1-2.8-1.5 1.5 1.6 3.4 2.7 5.4 3.5 1.1 0.3 2.1 0.6 3.2 0.8z"/>
	<path d="m173.8 272.5c-1-0.5-2.1-1-3.1-1.6 1.7 1.6 3.8 2.8 6 3.6s4.7 1.1 7 0.6c-2.3-0.1-4.6-0.6-6.7-1.3-1.1-0.4-2.2-0.9-3.2-1.3z"/>
</svg>
