<svg height="600" width="600" xmlns="http://www.w3.org/2000/svg"><path d="m3.2256306 500.60601c0-9.35229 40.5325054-56.31124 90.0722254-104.35322 49.539724-48.04198 97.282164-94.68963 106.094324-103.66145 8.81215-8.97181-.34059-61.05013-20.33945-115.72958-41.42966-113.273975-45.20616-150.940819-16.60716-165.63981 39.08859-20.0903261 92.734 9.589206 137.76388 76.218405l45.61883 67.500625 85.66798-69.919797c56.32954-45.974623 96.53965-66.450425 117.41324-59.789199 41.2992 13.179495 65.13328 64.750994 33.92345 73.402554-35.4245 9.819882-182.04094 195.368852-181.76277 230.028062.13168 16.41175 20.96416 59.97374 46.29439 96.80445 17.86624 25.97791 41.88147 46.4773 32.34817 60.568l-50.96081 75.32256c-9.88375 14.60871-46.39151-24.34008-89.63868-62.14731l-75.44134-65.95182-83.63449 82.48461c-45.99897 45.36653-88.943686 82.25082-95.43271 81.96507-6.489006-.28577-81.3790794-87.74985-81.3790794-97.10215z" fill="#ed4b41"/></svg>